<?xml version="1.0" standalone="no"?>
<!DOCTYPE svg PUBLIC "-//W3C//DTD SVG 1.1//EN" "http://www.w3.org/Graphics/SVG/1.1/DTD/svg11.dtd" >
<svg xmlns="http://www.w3.org/2000/svg" xmlns:xlink="http://www.w3.org/1999/xlink" version="1.1">
<metadata>
Created by FontForge 20170731 at Sun Feb 27 09:32:45 2022
 By Aleksey,,,
Vitaliy Tsygankov
</metadata>
<defs>
<font id="TSRemarker-Regular" horiz-adv-x="333" >
  <font-face 
    font-family="TS Remarker"
    font-weight="400"
    font-stretch="normal"
    units-per-em="1000"
    panose-1="0 0 0 0 0 0 0 0 0 0"
    ascent="800"
    descent="-200"
    x-height="703"
    cap-height="701"
    bbox="-31.7826 -220 760 905"
    underline-thickness="50"
    underline-position="-325"
    unicode-range="U+0020-25CA"
  />
<missing-glyph horiz-adv-x="427" 
d="M75 0q-15 0 -15 15v672q0 15 15 15h277q15 0 15 -15v-672q0 -15 -15 -15h-277zM80 36q0 -15 16 -15h235q16 0 16 15v630q0 15 -16 15h-235q-16 0 -16 -15v-630zM125 555q0 8 5 13q32 40 88 40q45 0 67.5 -26t22.5 -71q0 -68 -63 -142q-31 -33 -31 -58q0 -15 9 -39
q1 -3 1 -8q0 -9 -6 -15t-15 -6q-13 0 -19 13q-12 33 -12 56q0 18 8 35.5t13.5 24.5t19.5 23q31 36 42.5 59.5t11.5 51.5q0 63 -53 63q-32 0 -51 -26q-7 -9 -17 -9q-9 0 -15 6t-6 15zM177 127q0 16 14 26q9 6 22 6q14 0 24 -7q13 -12 13 -26q0 -12 -8 -21q-11 -14 -28 -14
q-15 0 -26 11t-11 25z" />
    <glyph glyph-name=".notdef" horiz-adv-x="427" 
d="M75 0q-15 0 -15 15v672q0 15 15 15h277q15 0 15 -15v-672q0 -15 -15 -15h-277zM80 36q0 -15 16 -15h235q16 0 16 15v630q0 15 -16 15h-235q-16 0 -16 -15v-630zM125 555q0 8 5 13q32 40 88 40q45 0 67.5 -26t22.5 -71q0 -68 -63 -142q-31 -33 -31 -58q0 -15 9 -39
q1 -3 1 -8q0 -9 -6 -15t-15 -6q-13 0 -19 13q-12 33 -12 56q0 18 8 35.5t13.5 24.5t19.5 23q31 36 42.5 59.5t11.5 51.5q0 63 -53 63q-32 0 -51 -26q-7 -9 -17 -9q-9 0 -15 6t-6 15zM177 127q0 16 14 26q9 6 22 6q14 0 24 -7q13 -12 13 -26q0 -12 -8 -21q-11 -14 -28 -14
q-15 0 -26 11t-11 25z" />
    <glyph glyph-name=".null" horiz-adv-x="0" 
 />
    <glyph glyph-name="nonmarkingreturn" 
 />
    <glyph glyph-name="space" unicode=" " horiz-adv-x="200" 
 />
    <glyph glyph-name="space" unicode="&#xa0;" horiz-adv-x="200" 
 />
    <glyph glyph-name="exclam" unicode="!" horiz-adv-x="214" 
d="M100 138q-12 0 -20.5 8t-9.5 20q-3 54 -3 204v153q0 113 -1 160q0 13 9 21.5t21 8.5q13 0 21.5 -8.5t8.5 -20.5q1 -48 1 -162v-131q0 -164 3 -221q1 -13 -8 -22.5t-22 -9.5zM60 35q0 23 21 39q13 8 25 8q18 0 31 -12q17 -17 17 -36q0 -15 -11 -31q-13 -18 -36 -18
q-19 0 -33 15q-14 16 -14 35z" />
    <glyph glyph-name="quotedbl" unicode="&#x22;" horiz-adv-x="250" 
d="M60 478q-13 0 -21.5 8.5t-8.5 21.5v184q0 13 8.5 21.5t21.5 8.5t21.5 -8.5t8.5 -21.5v-184q0 -13 -8.5 -21.5t-21.5 -8.5zM160 508v184q0 13 8.5 21.5t21.5 8.5t21.5 -8.5t8.5 -21.5v-184q0 -13 -8.5 -21.5t-21.5 -8.5t-21.5 8.5t-8.5 21.5z" />
    <glyph glyph-name="numbersign" unicode="#" horiz-adv-x="497" 
d="M94 3q-15 0 -24 11t-5 25l35 150l-39 -3q-13 -1 -22 7.5t-9 20.5q0 11 7.5 19t18.5 9l58 4q30 128 45 193q-7 -1 -20.5 -2t-19.5 -1q-12 -1 -21.5 7.5t-9.5 20.5q0 11 7 19t18 9q19 2 59 4q13 60 37 180q1 10 9.5 17t19.5 7q15 0 23.5 -11t6.5 -24q-13 -68 -35 -169
l92 -4q22 98 38 184q5 24 30 24q14 0 23 -11t6 -24q-17 -91 -36 -176h52q12 0 20.5 -8t8.5 -20q0 -11 -8.5 -19.5t-19.5 -8.5q-44 0 -65 1q-17 -75 -44 -188l53 -4q11 -1 18.5 -9t7.5 -19q0 -12 -9.5 -20.5t-21.5 -7.5q-20 2 -62 4l-39 -164q-5 -23 -29 -23q-14 0 -23 11
t-6 25l37 154h-34q-40 0 -59 -1l-40 -166q-5 -23 -29 -23zM176 248q15 1 46 1l47 -1q33 140 44 188q-30 2 -92 4z" />
    <glyph glyph-name="dollar" unicode="$" horiz-adv-x="329" 
d="M170 -12q-13 0 -21.5 8.5t-8.5 21.5v66q-66 8 -104 60q-6 10 -6 17q0 12 8.5 20.5t21.5 8.5q15 0 24 -12q31 -46 82 -46q33 0 56 22.5t23 63.5q0 32 -22 67.5t-57 61.5q-56 41 -89.5 80.5t-33.5 87.5q0 46 24 80.5t74 40.5v44q0 13 9 21.5t21 8.5q13 0 21.5 -8.5
t8.5 -21.5q0 -33 -1 -49q41 -11 79 -54q8 -8 8 -19q0 -12 -8.5 -20.5t-20.5 -8.5q-14 0 -22 10q-37 42 -78 42q-31 0 -43 -16t-12 -50q0 -32 25.5 -60.5t72.5 -61.5q46 -34 75 -82t29 -93q0 -54 -29 -88t-75 -44q-1 -22 -1 -68q0 -13 -9 -21.5t-21 -8.5z" />
    <glyph glyph-name="percent" unicode="%" horiz-adv-x="501" 
d="M95 -2q-13 0 -21.5 8.5t-8.5 21.5q0 7 3 13q59 116 159 334.5t145 310.5q8 17 27 17q12 0 21 -8.5t9 -21.5q0 -7 -3 -13q-42 -87 -143.5 -306.5t-161.5 -339.5q-9 -16 -26 -16zM30 508q0 74 27 126t69 52q49 0 80.5 -39.5t31.5 -109.5q0 -77 -25.5 -131.5t-71.5 -65.5
q-10 -2 -15 -2q-40 0 -68 50t-28 120zM90 523q-2 -37 4 -69t15 -47t17 -13q23 4 37.5 43t14.5 106q0 87 -52 87q-7 0 -14 -12t-13.5 -37t-8.5 -58zM271 178q0 78 24.5 128t69.5 50q50 0 77.5 -52.5t28.5 -125.5q0 -84 -32 -131t-78 -47q-43 0 -66.5 50t-23.5 128zM331 178
q0 -37 4.5 -65.5t11.5 -42.5t14 -14q50 0 50 122q-1 53 -13.5 87.5t-32.5 34.5q-14 0 -24 -33t-10 -89z" />
    <glyph glyph-name="ampersand" unicode="&#x26;" horiz-adv-x="416" 
d="M187 -20q-61 0 -109 50t-48 134q0 124 82 218q-46 105 -46 168q0 169 124 169q54 0 81.5 -38t27.5 -96q0 -42 -23 -91.5t-58 -86.5l-36 -36q47 -97 119 -200q3 21 3 45q0 41 -8 78q-3 14 5.5 25t23.5 11q11 0 19 -6.5t10 -17.5q9 -45 9 -85q0 -62 -17 -111q19 -26 57 -71
q7 -9 7 -19q0 -12 -8.5 -20.5t-20.5 -8.5q-13 0 -21 10q-3 3 -43 52q-50 -73 -130 -73zM91 164q0 -63 28 -95.5t67 -32.5q62 0 94 65q-83 111 -140 222q-49 -68 -49 -159zM126 550q0 -46 30 -122q7 6 19 18q28 29 46 67.5t18 71.5q0 46 -13 64t-47 13q-32 -4 -42.5 -29
t-10.5 -83z" />
    <glyph glyph-name="quotesingle" unicode="'" horiz-adv-x="120" 
d="M60 478q-13 0 -21.5 8.5t-8.5 21.5v184q0 13 8.5 21.5t21.5 8.5t21.5 -8.5t8.5 -21.5v-184q0 -13 -8.5 -21.5t-21.5 -8.5z" />
    <glyph glyph-name="parenleft" unicode="(" horiz-adv-x="193" 
d="M133 -43q-14 0 -24 13q-79 113 -79 390q0 264 79 375q9 12 24 12q12 0 20.5 -8.5t8.5 -20.5q0 -9 -5 -17q-67 -93 -67 -341q0 -259 67 -357q6 -7 6 -16q0 -13 -9 -21.5t-21 -8.5z" />
    <glyph glyph-name="parenright" unicode=")" horiz-adv-x="193" 
d="M60 -43q-12 0 -21 8.5t-9 21.5q0 9 6 16q67 98 67 357q0 248 -67 341q-5 8 -5 17q0 12 8.5 20.5t20.5 8.5q15 0 24 -12q79 -111 79 -375q0 -277 -79 -390q-10 -13 -24 -13z" />
    <glyph glyph-name="asterisk" unicode="*" horiz-adv-x="278" 
d="M59 532q-12 0 -20.5 8.5t-8.5 20.5q0 18 14 24t46 24q-19 8 -42 17q-15 5 -15 25q0 12 8.5 20t20.5 8q9 0 13 -3q16 -14 37 -29l-3 37q-1 13 8 21.5t22 8.5q12 0 21.5 -8.5t8.5 -20.5l-1 -28q4 3 16 10.5t18 10.5q7 4 15 4q12 0 20 -8t8 -20q0 -21 -14 -25
q-25 -6 -50 -21q26 -12 53 -18q14 -3 14 -25q0 -12 -8 -20t-20 -8q-9 0 -13 3q-25 18 -36 25l2 -46q1 -13 -8 -22t-22 -9t-22 9t-8 21q3 24 3 49q-28 -20 -43 -31q-5 -4 -14 -4z" />
    <glyph glyph-name="plus" unicode="+" horiz-adv-x="302" 
d="M153 229q-13 0 -21.5 8.5t-8.5 21.5l-1 71q-46 -2 -63 -2q-12 0 -20.5 8.5t-8.5 19.5q0 12 8.5 20t19.5 8l62 2l-1 73q0 13 9 21.5t21 8.5q13 0 21.5 -8.5t8.5 -21.5l1 -72l63 2q12 0 20.5 -8.5t8.5 -19.5q0 -12 -8.5 -20t-19.5 -8l-62 -2l1 -72q0 -13 -9 -21.5t-21 -8.5
z" />
    <glyph glyph-name="comma" unicode="," horiz-adv-x="135" 
d="M60 -117q-12 0 -21 8.5t-9 20.5q0 5 2 11q14 36 14 61q0 21 -9 35q-5 8 -5 16q0 12 8.5 20.5t20.5 8.5q15 0 24 -12q20 -29 20 -69q0 -39 -18 -82q-7 -18 -27 -18z" />
    <glyph glyph-name="hyphen" unicode="-" horiz-adv-x="230" 
d="M58 342q-11 0 -19.5 8.5t-8.5 19.5q0 12 8.5 20t20.5 8q20 0 57 1t56 1q11 0 19.5 -8.5t8.5 -19.5q0 -12 -8.5 -20t-20.5 -8q-17 0 -54 -1t-59 -1z" />
    <glyph glyph-name="period" unicode="." horiz-adv-x="141" 
d="M69 -16q-17 0 -28 15.5t-11 43.5q0 20 10.5 30t24.5 10q23 0 37 -22q9 -15 9 -30q0 -21 -19 -38q-11 -9 -23 -9z" />
    <glyph glyph-name="slash" unicode="/" horiz-adv-x="340" 
d="M60 -166q-15 0 -24 11.5t-5 25.5l220 818q7 23 29 23q15 0 24 -11.5t5 -25.5l-220 -818q-7 -23 -29 -23z" />
    <glyph glyph-name="zero" unicode="0" horiz-adv-x="372" 
d="M199 -21q-43 0 -80.5 28t-50.5 74q-16 56 -19.5 119t-3.5 203q0 76 2.5 119.5t15 91.5t37.5 71q36 33 81 33q58 0 104 -51q19 -21 28.5 -60t11.5 -71.5t2 -85.5v-17v-68q0 -152 -18 -276q-8 -55 -38.5 -82.5t-71.5 -27.5zM105 379q0 -121 3.5 -177t17.5 -103
q9 -30 28.5 -48.5t41.5 -18.5q44 0 54 67q17 119 17 265v71q-1 61 -2 87.5t-7 60.5t-18 48q-30 35 -56 35q-20 0 -43 -21q-17 -16 -25.5 -58.5t-9.5 -82.5t-1 -125z" />
    <glyph glyph-name="one" unicode="1" horiz-adv-x="269" 
d="M179 -9q-12 0 -21 8.5t-9 20.5l-9 593l-68 -92q-11 -15 -30 -15q-11 0 -19 8t-8 20q0 13 7 22l99 134q16 20 41 20q14 0 25.5 -15t12.5 -41l9 -633q0 -13 -8.5 -21.5t-21.5 -8.5z" />
    <glyph glyph-name="two" unicode="2" horiz-adv-x="323" 
d="M84 -13q-45 0 -51 48q-3 33 -3 60q0 70 17 114.5t54 98.5q4 6 44.5 53t61.5 87t21 84q0 131 -76 131q-31 0 -61 -54q-8 -15 -26 -15q-12 0 -20.5 8.5t-8.5 20.5q0 8 4 15q45 81 112 81q59 0 97.5 -48.5t38.5 -138.5q0 -55 -24 -103.5t-69 -100t-45 -52.5
q-33 -48 -46.5 -83.5t-13.5 -93.5q0 -25 3 -55q31 4 71 4q34 0 92 -2q11 -1 19.5 -9t8.5 -19q0 -12 -8.5 -20t-20.5 -8q-60 2 -89 2q-37 0 -64 -4q-6 -1 -18 -1z" />
    <glyph glyph-name="three" unicode="3" horiz-adv-x="294" 
d="M123 -19q-53 0 -93 49q-6 8 -6 18q0 12 8.5 20.5t20.5 8.5q15 0 23 -11q26 -32 53 -32q32 0 53.5 43t21.5 124q0 131 -107 131q-24 0 -24 27q0 11 7 19t17 9q42 5 68.5 36t26.5 109q0 132 -63 132q-35 0 -50 -21q-8 -12 -24 -12q-12 0 -20.5 8.5t-8.5 20.5q0 10 7 19
q35 41 96 41q56 0 89.5 -50t33.5 -138q0 -145 -81 -171q49 -17 71 -63.5t22 -96.5q-1 -102 -42.5 -161t-98.5 -59z" />
    <glyph glyph-name="four" unicode="4" horiz-adv-x="304" 
d="M83 220q-53 2 -53 47q0 11 3 21l103 400q5 23 29 23q12 0 21 -9t9 -21q0 -4 -1 -7l-103 -399l106 -3v42q0 13 -0.5 40t-0.5 41q0 13 8.5 21.5t21.5 8.5t21.5 -8.5t8.5 -21.5v-70q0 -66 -1.5 -163.5t-1.5 -120.5v-21q0 -13 -8.5 -22t-21.5 -9q-12 0 -20.5 9t-8.5 21v34
q0 31 2 163z" />
    <glyph glyph-name="five" unicode="5" horiz-adv-x="298" 
d="M138 -22q-51 0 -88 36q-10 8 -10 21q0 12 8.5 20.5t20.5 8.5q13 0 21 -8q26 -26 53 -26q32 0 53.5 31.5t21.5 86.5q0 72 -29.5 110.5t-107.5 38.5q-13 0 -21.5 8.5t-8.5 21.5q2 154 2 252v73q0 62 55 62h78q9 0 21.5 0.5t17.5 0.5q11 0 19 -8.5t8 -19.5t-7.5 -18.5
t-17.5 -8.5q-30 -2 -50 -2q-13 0 -34.5 0.5t-29.5 0.5v-74q0 -80 -2 -232q61 -2 100.5 -35t53 -75.5t13.5 -94.5q0 -77 -41.5 -123.5t-98.5 -46.5z" />
    <glyph glyph-name="six" unicode="6" horiz-adv-x="342" 
d="M157 -20q-29 0 -51 35t-39 128q-22 121 -22 303q0 126 32.5 200.5t96.5 74.5q52 0 101 -48q9 -7 9 -21q0 -12 -8.5 -20t-20.5 -8t-20 8q-33 33 -61 33q-30 0 -48.5 -49t-20.5 -144q30 6 56 6q151 0 151 -194q0 -139 -40 -221.5t-115 -82.5zM105 414q2 -157 21 -261
q8 -47 16 -73t14.5 -34t15.5 -8q38 0 59.5 96t21.5 160q0 67 -20.5 97t-74.5 30q-25 0 -53 -7z" />
    <glyph glyph-name="seven" unicode="7" horiz-adv-x="281" 
d="M108 -11q-12 0 -20.5 9.5t-8.5 22.5q8 259 33 395t86 241q-84 -3 -87 -3q-36 0 -71 4q-11 2 -18 10t-7 18q0 13 9.5 21.5t22.5 6.5q31 -4 64 -4q16 0 47.5 1.5t48.5 1.5q25 0 39 -13t14 -35q0 -14 -2 -17q-62 -107 -86.5 -240t-32.5 -390q0 -12 -9.5 -20.5t-21.5 -8.5z
" />
    <glyph glyph-name="eight" unicode="8" horiz-adv-x="331" 
d="M169 -20q-56 0 -97.5 53t-41.5 147q0 140 71 186q-54 52 -54 176q0 81 31.5 129.5t85.5 48.5q58 0 89.5 -48t31.5 -130q0 -123 -51 -176q34 -24 50.5 -75t16.5 -111q0 -97 -38.5 -148.5t-93.5 -51.5zM90 180q0 -72 23 -112t55 -40q30 0 51.5 39t21.5 113q0 157 -74 157
q-26 0 -43 -14.5t-23.5 -42t-8.5 -48.5t-2 -52zM107 542q0 -79 17.5 -120.5t43.5 -41.5q25 0 41 41.5t16 120.5q0 122 -61 122q-57 0 -57 -122z" />
    <glyph glyph-name="nine" unicode="9" horiz-adv-x="342" 
d="M185 720q29 0 51 -35t39 -128q22 -121 22 -303q0 -126 -32.5 -200.5t-96.5 -74.5q-52 0 -101 48q-9 7 -9 21q0 12 8.5 20t20.5 8t20 -8q33 -33 61 -33q30 0 48.5 49t20.5 144q-30 -6 -56 -6q-151 0 -151 194q0 139 40 221.5t115 82.5zM89 406q0 -67 20.5 -97t74.5 -30
q25 0 53 7q-2 157 -21 261q-8 47 -16 73t-14.5 34t-15.5 8q-38 0 -59.5 -96t-21.5 -160z" />
    <glyph glyph-name="colon" unicode=":" horiz-adv-x="146" 
d="M77 170q-16 0 -30 11q-17 17 -17 36q0 16 10 32q12 17 31 17q15 0 27.5 -12t16.5 -34q1 -4 1 -10q0 -19 -11.5 -29.5t-27.5 -10.5zM31 508q0 25 25 38q8 4 18 4q13 0 23 -7q19 -13 19 -34q0 -17 -13 -30q-12 -12 -31 -12q-18 0 -30 13q-11 11 -11 28z" />
    <glyph glyph-name="semicolon" unicode=";" horiz-adv-x="147" 
d="M72 83q-12 0 -21 8.5t-9 20.5q0 5 2 11q14 36 14 61q0 22 -9 35q-5 8 -5 16q0 12 8.5 20.5t20.5 8.5q15 0 24 -12q20 -29 20 -69q0 -38 -17 -81q-9 -19 -28 -19zM30 509q0 23 22 36q8 4 19 4q13 0 23 -7q19 -13 19 -34q0 -16 -12 -30q-12 -12 -28 -12q-15 0 -27 9
q-16 16 -16 34z" />
    <glyph glyph-name="less" unicode="&#x3c;" horiz-adv-x="321" 
d="M263 228q-6 0 -14 4l-186 98q-33 18 -33 41q0 25 37 40l183 75q6 2 11 2q12 0 20 -8.5t8 -19.5q0 -19 -17 -26l-159 -65l164 -87q14 -8 14 -25q0 -12 -8 -20.5t-20 -8.5z" />
    <glyph glyph-name="equal" unicode="=" horiz-adv-x="342" 
d="M59 386q-12 0 -20.5 8.5t-8.5 19.5q0 12 8.5 20t19.5 8l225 4q12 0 20.5 -8t8.5 -20q0 -11 -8.5 -19.5t-19.5 -8.5zM30 292q0 12 8.5 20t19.5 8q121 0 225 2q12 0 20.5 -8.5t8.5 -19.5q0 -12 -8.5 -20t-19.5 -8q-104 -2 -225 -2q-12 0 -20.5 8.5t-8.5 19.5z" />
    <glyph glyph-name="greater" unicode="&#x3e;" horiz-adv-x="321" 
d="M58 228q-12 0 -20 8.5t-8 20.5q0 17 14 25l164 87l-159 65q-17 7 -17 26q0 11 8 19.5t20 8.5q5 0 11 -2l183 -75q37 -15 37 -40q0 -23 -33 -41l-186 -98q-8 -4 -14 -4z" />
    <glyph glyph-name="question" unicode="?" horiz-adv-x="318" 
d="M140 199q-20 0 -27 19q-17 42 -17 78q0 26 11 51t19 35t28 32q44 51 60 84t16 73q0 88 -75 88q-45 0 -72 -36q-8 -13 -23 -13q-13 0 -21.5 8.5t-8.5 21.5q0 9 7 18q44 57 124 57q63 0 95 -36.5t32 -100.5q0 -45 -18 -89.5t-32.5 -64t-38.5 -47.5q-16 -17 -23 -26
t-14 -24.5t-7 -31.5q0 -23 13 -55q2 -8 2 -11q0 -13 -8.5 -21.5t-21.5 -8.5zM103 35q0 23 20 37q13 9 31 9t34 -11q18 -15 18 -36q0 -16 -11 -30q-16 -19 -40 -19q-22 0 -37 15q-15 16 -15 35z" />
    <glyph glyph-name="at" unicode="@" horiz-adv-x="574" 
d="M277 -18q-99 0 -165.5 106t-66.5 252q0 168 65.5 270t166.5 102q104 0 177 -95t74 -261q4 -105 -22.5 -170t-63.5 -71q-61 -8 -85 97q-14 -46 -35 -73t-45 -27q-55 0 -87.5 73t-32.5 178q0 102 32.5 157t87.5 55q47 0 76 -66q1 12 9.5 20.5t20.5 8.5q13 0 21.5 -9
t8.5 -22q0 -39 -1 -120.5t-1 -106.5q0 -10 0.5 -23t0.5 -14q3 -20 10 -46t12 -27q6 3 14.5 21t15 62.5t4.5 101.5q0 146 -55.5 223.5t-135.5 77.5q-75 0 -123 -83t-48 -233q0 -129 49.5 -215.5t121.5 -86.5q43 0 77 28q8 6 18 6q12 0 20.5 -8.5t8.5 -20.5q0 -13 -12 -23
q-50 -38 -112 -38zM217 363q0 -87 20 -141t50 -54q14 0 34.5 36t30.5 90v3q0 83 1 129q-9 46 -28.5 69.5t-37.5 23.5q-35 0 -52.5 -36t-17.5 -120z" />
    <glyph glyph-name="A" unicode="A" horiz-adv-x="376" 
d="M84 -11q-13 0 -21.5 8.5t-8.5 21.5q3 296 15 405q17 163 42 228.5t77 65.5q107 0 123 -276q11 -178 11 -295v-128q0 -12 -8.5 -21t-21.5 -9q-12 0 -21 9t-9 21q-2 225 -3 261q-38 -6 -87 -6q-18 0 -54 2q0 -13 -4 -257q0 -13 -9 -21.5t-21 -8.5zM121 331q18 -1 53 -1
q49 0 82 6h1q-1 27 -6 103q-13 223 -63 223q-12 0 -21 -20t-19 -74t-20 -150q-3 -30 -7 -87z" />
    <glyph glyph-name="B" unicode="B" horiz-adv-x="329" 
d="M116 -4q-56 0 -56 30q0 38 2 210.5t2 258.5q0 31 -1 83.5t-1 73.5q0 29 15.5 45.5t42.5 12.5q56 -9 93 -48.5t37 -101.5q0 -43 -15.5 -72t-56.5 -51q136 -45 136 -228q0 -103 -51.5 -158t-146.5 -55zM120 52q70 4 102.5 39t32.5 108q0 187 -131 211zM122 653
q2 -94 2 -162v-34q25 15 36.5 24.5t20.5 28t9 45.5q0 83 -68 98z" />
    <glyph glyph-name="C" unicode="C" horiz-adv-x="338" 
d="M180 -19q-38 0 -69.5 32t-45.5 94q-20 86 -20 215q0 66 7 176q10 127 43.5 174.5t82.5 47.5q36 0 62 -20t56 -63q5 -8 5 -16q0 -13 -8.5 -21.5t-21.5 -8.5q-16 0 -24 13q-24 36 -37.5 48t-31.5 12t-28.5 -9.5t-21.5 -48.5t-16 -112q-7 -112 -7 -175q0 -123 18 -199
q20 -87 62 -87q24 0 44.5 31.5t28.5 84.5q2 11 10 18.5t19 7.5q15 0 23.5 -11t6.5 -24q-12 -72 -51.5 -115.5t-85.5 -43.5z" />
    <glyph glyph-name="D" unicode="D" horiz-adv-x="385" 
d="M126 -10q-60 0 -60 62q0 75 -3 349t-3 275q0 16 12.5 23t44.5 7q44 0 83 -17t75 -54t57 -106t21 -162q0 -199 -57 -288t-170 -89zM120 650q7 -369 7 -510q0 -70 -1 -94q88 0 127 71t39 249q0 152 -49.5 218t-122.5 66z" />
    <glyph glyph-name="E" unicode="E" 
d="M123 -4q-29 -1 -44.5 14t-15.5 43q0 47 2 140t2 142q0 45 -3.5 150t-3.5 161q0 28 15.5 43t44.5 14l145 -3q12 0 20 -8.5t8 -19.5q0 -12 -8.5 -20t-20.5 -8l-144 3q0 -35 1 -75.5t2.5 -90t2.5 -76.5l107 -3q11 0 19 -8.5t8 -19.5q0 -12 -8.5 -20t-20.5 -8l-104 3v-14
q0 -56 -2 -154t-2 -129l145 5q11 0 20 -8t9 -20q0 -11 -8.5 -19t-19.5 -9z" />
    <glyph glyph-name="F" unicode="F" horiz-adv-x="338" 
d="M90 -11q-13 0 -21.5 9t-8.5 22q0 52 2 148t2 152v36q0 41 1 125t1 126v41q0 62 61 60l165 -4q11 0 19.5 -8t8.5 -20q0 -11 -8.5 -19.5t-20.5 -8.5l-165 4q0 -47 -1 -138.5t-1 -136.5l146 8q11 1 20 -7.5t9 -20.5q0 -11 -8 -19t-19 -9l-148 -8q0 -55 -2 -153.5t-2 -148.5
q0 -12 -9 -21t-21 -9z" />
    <glyph glyph-name="G" unicode="G" horiz-adv-x="382" 
d="M191 -20q-40 0 -73 31.5t-49 94.5q-24 97 -24 238q0 71 6 155q5 58 16.5 100.5t24 65t30.5 35.5t32.5 16.5t32.5 3.5q88 0 131 -105q2 -4 2 -11q0 -13 -8.5 -21.5t-20.5 -8.5q-21 0 -28 19q-16 41 -33.5 56t-42.5 15q-21 0 -33 -8t-24 -46.5t-19 -114.5q-7 -81 -7 -157
q0 -128 23 -218q11 -43 30 -65t41 -22q31 0 56 38.5t30 101.5q2 42 2 58q0 39 -3 73q-53 -8 -99 -8q-12 0 -20.5 8t-8.5 20q0 11 8.5 19.5t19.5 8.5q63 2 93 8q16 2 22 2q41 0 44 -44q4 -35 4 -84q0 -43 -2 -66q-7 -84 -52.5 -136t-100.5 -52z" />
    <glyph glyph-name="H" unicode="H" horiz-adv-x="418" 
d="M326 -11q-12 0 -21 9t-9 21q0 16 -0.5 59t-0.5 69q0 62 2 200h-174v-40q0 -188 -3 -288q0 -12 -8.5 -21t-21.5 -9q-12 0 -21 9t-9 22q3 100 3 288t-3 372q0 13 8.5 22t21.5 9t21.5 -9t8.5 -21q0 -31 1 -127.5t2 -150.5h174q0 48 0.5 142.5t0.5 135.5q0 13 9 21.5t21 8.5
q13 0 21.5 -8.5t8.5 -21.5q0 -45 -0.5 -150t-0.5 -156q-2 -156 -2 -227q0 -26 0.5 -69t0.5 -59q0 -13 -8.5 -22t-21.5 -9z" />
    <glyph glyph-name="I" unicode="I" horiz-adv-x="186" 
d="M96 -11q-12 0 -21 9t-9 21q-2 156 -2 237v133q0 210 -4 291q-1 13 7.5 22t21.5 9t21.5 -8t8.5 -20q5 -103 5 -379q0 -191 2 -284q0 -13 -8.5 -22t-21.5 -9z" />
    <glyph glyph-name="J" unicode="J" horiz-adv-x="325" 
d="M159 -20q-65 0 -153 120q-6 8 -6 17q0 12 8.5 20.5t21.5 8.5q14 0 23 -12q68 -98 100 -98q40 0 54 168q10 103 10 232q0 107 -8 217q-69 -2 -132 -11q-13 -2 -22.5 6.5t-9.5 21.5q0 11 7 19t17 9q65 9 138 11q58 0 63 -57q7 -92 7 -208q0 -136 -10 -245
q-20 -219 -108 -219z" />
    <glyph glyph-name="K" unicode="K" horiz-adv-x="371" 
d="M326 -9q-25 0 -29 25q-27 178 -53 245t-92 94q-16 7 -26 15q1 -46 1 -121v-31l3 -198q0 -12 -9 -20.5t-21 -8.5q-13 0 -21.5 9t-8.5 22l-3 198v30q0 230 -7 429q-1 13 8 22t22 9q12 0 20.5 -8.5t9.5 -20.5q4 -119 6 -274q4 6 9 11q95 110 151 273q7 20 29 20
q13 0 21.5 -9t8.5 -21q0 -3 -2 -9q-58 -165 -149 -274q74 -38 105 -117t57 -255q2 -13 -7 -24t-23 -11z" />
    <glyph glyph-name="L" unicode="L" horiz-adv-x="325" 
d="M176 -4q-37 0 -57 1q-59 3 -59 62q1 35 2 266t6 353q0 12 9 20.5t21 8.5q13 0 21.5 -9t8.5 -22q-5 -118 -6 -340.5t-2 -282.5q21 -1 58 -1q60 0 109 6q13 1 22.5 -7t9.5 -20q0 -11 -7 -19t-18 -9q-62 -7 -118 -7z" />
    <glyph glyph-name="M" unicode="M" horiz-adv-x="497" 
d="M92 -11q-13 0 -21.5 9t-8.5 21q-1 89 -1 258v238q0 124 -1 165q0 13 9 22t21 9q20 0 30 -22l126 -290l119 287q2 5 6 11q9 14 25 14q12 0 21 -8.5t9 -20.5q9 -232 11 -663q0 -12 -8.5 -21t-21.5 -9q-12 0 -21 9t-9 21q-2 269 -7 541l-93 -218q-15 -33 -38 -33
q-22 0 -35 32l-83 204v-52q0 -291 1 -473q0 -13 -9 -22t-21 -9z" />
    <glyph glyph-name="N" unicode="N" horiz-adv-x="440" 
d="M346 -11q-30 0 -43 39q-31 85 -97.5 288t-88.5 266v-288t1 -274q0 -12 -8.5 -21t-19.5 -9q-12 0 -20 9t-8 21q-2 180 -2 581v59q1 23 12 36.5t26 13.5q30 0 43 -37q95 -247 178 -526v69q0 76 1.5 212t1.5 183v68q0 13 8 21.5t20 8.5q11 0 19 -8.5t8 -21.5q3 -144 3 -474
v-168q-1 -23 -10.5 -35.5t-23.5 -12.5z" />
    <glyph glyph-name="O" unicode="O" horiz-adv-x="412" 
d="M210 -9q-33 0 -62.5 15.5t-43.5 39.5q-59 103 -59 331q0 205 51 282q39 61 107 61q38 0 72 -20.5t54 -58.5q38 -72 38 -208q0 -141 -21 -289q-11 -79 -49 -116t-87 -37zM105 377q0 -215 51 -303q17 -31 53 -31q26 0 48 26t30 83q20 149 20 281q0 124 -31 182
q-30 53 -71 53q-34 0 -59 -39q-41 -64 -41 -252z" />
    <glyph glyph-name="P" unicode="P" horiz-adv-x="312" 
d="M93 -11q-13 0 -21.5 8.5t-8.5 21.5v55q0 58 -1.5 181.5t-1.5 182.5q0 143 9 231q3 30 32 35q10 2 31 2q66 0 114 -39.5t48 -113.5q-1 -76 -50.5 -133.5t-122.5 -67.5q2 -182 2 -274v-59q0 -13 -9 -21.5t-21 -8.5zM121 408q49 8 81 48.5t32 96.5q0 49 -27 74t-69 25h-11
q-6 -52 -6 -202v-42z" />
    <glyph glyph-name="Q" unicode="Q" horiz-adv-x="413" 
d="M209 -20q-39 0 -74.5 20.5t-57.5 58.5q-21 36 -26.5 81.5t-5.5 127.5v71q0 141 13 228q13 79 56 116t99 37q37 0 69 -15t47 -39q25 -40 32 -100t7 -160v-82q0 -116 -8.5 -178.5t-38.5 -104.5q-12 -16 -18 -22q13 -20 44 -67q4 -5 4 -14q0 -12 -8.5 -20.5t-20.5 -8.5
q-14 0 -25 14q-25 34 -44 65q-19 -8 -44 -8zM105 268q0 -78 4 -116t20 -65q31 -54 78 -54q5 0 15 2l-16 26q-5 7 -5 16q0 12 9 20.5t21 8.5q15 0 24 -13l15 -23l1 1q1 1 1 2q22 32 29 87t7 164v86q0 91 -5.5 143.5t-24.5 82.5q-20 32 -66 32q-33 0 -59.5 -26t-35.5 -83
q-12 -81 -12 -216v-75z" />
    <glyph glyph-name="R" unicode="R" horiz-adv-x="355" 
d="M96 -11q-13 0 -21.5 9t-8.5 22v53q0 235 -6 595q0 24 28 32q34 9 60 9q61 0 101.5 -39t40.5 -124q0 -109 -109 -137q65 -59 102 -147t54 -237q1 -13 -7.5 -23.5t-21.5 -10.5q-26 0 -30 27q-17 152 -52.5 235.5t-101.5 147.5q2 -230 2 -329v-53q0 -12 -8.5 -21t-21.5 -9z
M120 651l3 -204q107 5 107 96q0 112 -79 112q-16 0 -31 -4z" />
    <glyph glyph-name="S" unicode="S" horiz-adv-x="332" 
d="M167 -20q-54 0 -95.5 38.5t-41.5 63.5q0 12 8.5 21t21.5 9q19 0 26 -17q31 -64 83 -64q32 0 55 31t23 87q0 100 -81 203q-5 6 -37 44.5t-43.5 55t-25.5 50t-14 64.5q0 63 28 107.5t87 44.5q71 0 125 -76q6 -6 6 -17q0 -12 -8.5 -20.5t-20.5 -8.5q-15 0 -24 12
q-21 30 -37.5 42t-40.5 12q-55 0 -55 -96q0 -19 5 -36.5t18 -37.5t21 -30.5t29.5 -36t27.5 -32.5q101 -123 101 -241q-1 -81 -42 -126.5t-99 -45.5z" />
    <glyph glyph-name="T" unicode="T" horiz-adv-x="328" 
d="M171 -11q-12 0 -21 9t-9 21q0 24 -3.5 226.5t-3.5 290.5q0 51 2 113h-14q-50 0 -90 4q-11 1 -18.5 9t-7.5 19q0 12 9.5 20.5t21.5 7.5q39 -4 86 -4q24 0 52.5 1t63 2.5t53.5 2.5q12 1 21 -7.5t9 -20.5q0 -11 -8 -19t-19 -9l-99 -4q-2 -64 -2 -115q0 -87 3.5 -288
t3.5 -228q0 -13 -8.5 -22t-21.5 -9z" />
    <glyph glyph-name="U" unicode="U" horiz-adv-x="396" 
d="M195 -19q-48 0 -85 47t-48 138q-8 69 -8 199q0 61 2 172t2 142q0 13 8.5 21.5t21.5 8.5q12 0 21 -8.5t9 -21.5q0 -32 -2 -142t-2 -170q0 -128 8 -195q8 -69 29.5 -104t48.5 -35q33 0 57.5 48.5t24.5 127.5q0 80 -3 192.5t-3 203.5v74q0 12 8.5 21t21.5 9q12 0 21 -9
t9 -21v-51q0 -103 3 -222t3 -197q0 -102 -44.5 -165t-102.5 -63z" />
    <glyph glyph-name="V" unicode="V" horiz-adv-x="356" 
d="M187 0q-47 0 -59 60l-121 610q-3 14 6 24.5t24 10.5q24 0 29 -24q95 -477 119 -616l1 -7h2l102 621q1 11 10 18.5t20 7.5q14 0 23 -11t7 -24l-105 -620q-5 -28 -17 -39t-41 -11z" />
    <glyph glyph-name="W" unicode="W" horiz-adv-x="551" 
d="M403 -12q-11 0 -20 6.5t-11 16.5l-90 355l-109 -355q-7 -22 -29 -22q-20 0 -31 15t-18 57q-38 224 -65 614q-1 13 7.5 22.5t21.5 9.5q12 0 20.5 -8t9.5 -20q26 -350 57 -553l103 326q13 42 39 42t37 -44l80 -320q51 300 60 552q0 12 9 20.5t21 8.5t19 -9t7 -22
q-4 -119 -27.5 -322.5t-53.5 -343.5q-4 -26 -37 -26z" />
    <glyph glyph-name="X" unicode="X" horiz-adv-x="382" 
d="M44 -12q-12 0 -20.5 8.5t-8.5 21.5q0 8 2 11l136 354l-129 286q-3 6 -3 12q0 13 8.5 21.5t20.5 8.5q20 0 27 -17l113 -258l103 252q7 17 27 17q12 0 21 -8.5t9 -20.5q0 -4 -3 -12l-119 -280l137 -352q2 -6 2 -12q0 -30 -29 -30q-12 0 -20.5 9.5t-11 15.5t-9.5 26
l-106 284l-119 -319q-7 -18 -28 -18z" />
    <glyph glyph-name="Y" unicode="Y" horiz-adv-x="393" 
d="M205 -10q-12 0 -20.5 8t-9.5 19q-4 50 -4 173v173l-161 301q-4 7 -4 15q0 12 9 20.5t21 8.5q18 0 26 -15l144 -274l127 275q7 16 27 16q12 0 19.5 -9t7.5 -21q0 -8 -3 -14q-143 -287 -153 -305v-171t4 -168q1 -13 -8 -22.5t-22 -9.5z" />
    <glyph glyph-name="Z" unicode="Z" horiz-adv-x="309" 
d="M48 -1q-13 0 -21.5 9t-8.5 20q0 4 2 10q27 79 74 213t75.5 219t56.5 176l-170 -4q-11 0 -19 8.5t-8 19.5q0 12 8.5 20t20.5 8l207 5h1q15 0 24 -12t5 -26q-29 -96 -57.5 -181.5t-77 -222.5t-72.5 -206l181 -1q11 0 19.5 -8.5t8.5 -19.5q0 -12 -9 -20t-20 -8z" />
    <glyph glyph-name="bracketleft" unicode="[" horiz-adv-x="170" 
d="M97 -82q-29 0 -44.5 16t-14.5 45q2 102 2 151q0 95 -5 283.5t-5 287.5q0 58 59 58h21q12 0 20.5 -8.5t8.5 -19.5q0 -12 -8.5 -20t-19.5 -8l-21 -1q1 -81 5.5 -274t4.5 -300q0 -50 -2 -154h13q12 0 20.5 -8.5t8.5 -19.5t-8.5 -19.5t-19.5 -8.5h-15z" />
    <glyph glyph-name="backslash" unicode="\" horiz-adv-x="340" 
d="M280 -166q-22 0 -29 23l-220 818q-4 14 5 25.5t24 11.5q22 0 29 -23l220 -818q4 -14 -5 -25.5t-24 -11.5z" />
    <glyph glyph-name="bracketright" unicode="]" horiz-adv-x="170" 
d="M58 -82q-11 0 -19.5 8.5t-8.5 19.5t8.5 19.5t20.5 8.5h13q-2 104 -2 154q0 107 4.5 300t5.5 274l-21 1q-11 0 -19.5 8t-8.5 20q0 11 8.5 19.5t20.5 8.5h21q59 0 59 -58q0 -99 -5 -287.5t-5 -283.5q0 -49 2 -151q1 -29 -14.5 -45t-44.5 -16h-15z" />
    <glyph glyph-name="asciicircum" unicode="^" horiz-adv-x="283" 
d="M60 416q-15 0 -24 12t-5 26q22 79 70 222q12 35 34 35q32 0 51 -59q9 -29 24 -72t25.5 -74.5t16.5 -51.5q4 -14 -5 -26t-24 -12q-23 0 -28 22q-6 20 -26 79.5t-29 86.5q-33 -97 -51 -166q-7 -22 -29 -22z" />
    <glyph glyph-name="underscore" unicode="_" horiz-adv-x="390" 
d="M299 -97l-203 1h-37q-12 0 -20.5 8t-8.5 20q0 11 8.5 19.5t19.5 8.5h33q25 0 102.5 -0.5t100.5 -0.5h37q12 0 20.5 -8.5t8.5 -19.5q0 -12 -8.5 -20t-19.5 -8h-33z" />
    <glyph glyph-name="grave" unicode="`" horiz-adv-x="207" 
d="M152 622q-10 0 -19 7q-56 51 -91 74q-12 9 -12 24q0 23 22 23q12 0 19 -5q47 -32 97 -78q9 -6 9 -21q0 -24 -25 -24z" />
    <glyph glyph-name="a" unicode="a" horiz-adv-x="376" 
d="M84 -11q-13 0 -21.5 8.5t-8.5 21.5q3 296 15 405q17 163 42 228.5t77 65.5q107 0 123 -276q11 -178 11 -295v-128q0 -12 -8.5 -21t-21.5 -9q-12 0 -21 9t-9 21q-2 225 -3 261q-38 -6 -87 -6q-18 0 -54 2q0 -13 -4 -257q0 -13 -9 -21.5t-21 -8.5zM121 331q18 -1 53 -1
q49 0 82 6h1q-1 27 -6 103q-13 223 -63 223q-12 0 -21 -20t-19 -74t-20 -150q-3 -30 -7 -87z" />
    <glyph glyph-name="b" unicode="b" horiz-adv-x="329" 
d="M116 -4q-56 0 -56 30q0 38 2 210.5t2 258.5q0 31 -1 83.5t-1 73.5q0 29 15.5 45.5t42.5 12.5q56 -9 93 -48.5t37 -101.5q0 -43 -15.5 -72t-56.5 -51q136 -45 136 -228q0 -103 -51.5 -158t-146.5 -55zM120 52q70 4 102.5 39t32.5 108q0 187 -131 211zM122 653
q2 -94 2 -162v-34q25 15 36.5 24.5t20.5 28t9 45.5q0 83 -68 98z" />
    <glyph glyph-name="c" unicode="c" horiz-adv-x="338" 
d="M180 -19q-38 0 -69.5 32t-45.5 94q-20 86 -20 215q0 66 7 176q10 127 43.5 174.5t82.5 47.5q36 0 62 -20t56 -63q5 -8 5 -16q0 -13 -8.5 -21.5t-21.5 -8.5q-16 0 -24 13q-24 36 -37.5 48t-31.5 12t-28.5 -9.5t-21.5 -48.5t-16 -112q-7 -112 -7 -175q0 -123 18 -199
q20 -87 62 -87q24 0 44.5 31.5t28.5 84.5q2 11 10 18.5t19 7.5q15 0 23.5 -11t6.5 -24q-12 -72 -51.5 -115.5t-85.5 -43.5z" />
    <glyph glyph-name="d" unicode="d" horiz-adv-x="385" 
d="M126 -10q-60 0 -60 62q0 75 -3 349t-3 275q0 16 12.5 23t44.5 7q44 0 83 -17t75 -54t57 -106t21 -162q0 -199 -57 -288t-170 -89zM120 650q7 -369 7 -510q0 -70 -1 -94q88 0 127 71t39 249q0 152 -49.5 218t-122.5 66z" />
    <glyph glyph-name="e" unicode="e" 
d="M123 -4q-29 -1 -44.5 14t-15.5 43q0 47 2 140t2 142q0 45 -3.5 150t-3.5 161q0 28 15.5 43t44.5 14l145 -3q12 0 20 -8.5t8 -19.5q0 -12 -8.5 -20t-20.5 -8l-144 3q0 -35 1 -75.5t2.5 -90t2.5 -76.5l107 -3q11 0 19 -8.5t8 -19.5q0 -12 -8.5 -20t-20.5 -8l-104 3v-14
q0 -56 -2 -154t-2 -129l145 5q11 0 20 -8t9 -20q0 -11 -8.5 -19t-19.5 -9z" />
    <glyph glyph-name="f" unicode="f" horiz-adv-x="338" 
d="M90 -11q-13 0 -21.5 9t-8.5 22q0 52 2 148t2 152v36q0 41 1 125t1 126v41q0 62 61 60l165 -4q11 0 19.5 -8t8.5 -20q0 -11 -8.5 -19.5t-20.5 -8.5l-165 4q0 -47 -1 -138.5t-1 -136.5l146 8q11 1 20 -7.5t9 -20.5q0 -11 -8 -19t-19 -9l-148 -8q0 -55 -2 -153.5t-2 -148.5
q0 -12 -9 -21t-21 -9z" />
    <glyph glyph-name="g" unicode="g" horiz-adv-x="382" 
d="M191 -20q-40 0 -73 31.5t-49 94.5q-24 97 -24 238q0 71 6 155q5 58 16.5 100.5t24 65t30.5 35.5t32.5 16.5t32.5 3.5q88 0 131 -105q2 -4 2 -11q0 -13 -8.5 -21.5t-20.5 -8.5q-21 0 -28 19q-16 41 -33.5 56t-42.5 15q-21 0 -33 -8t-24 -46.5t-19 -114.5q-7 -81 -7 -157
q0 -128 23 -218q11 -43 30 -65t41 -22q31 0 56 38.5t30 101.5q2 42 2 58q0 39 -3 73q-53 -8 -99 -8q-12 0 -20.5 8t-8.5 20q0 11 8.5 19.5t19.5 8.5q63 2 93 8q16 2 22 2q41 0 44 -44q4 -35 4 -84q0 -43 -2 -66q-7 -84 -52.5 -136t-100.5 -52z" />
    <glyph glyph-name="h" unicode="h" horiz-adv-x="418" 
d="M326 -11q-12 0 -21 9t-9 21q0 16 -0.5 59t-0.5 69q0 62 2 200h-174v-40q0 -188 -3 -288q0 -12 -8.5 -21t-21.5 -9q-12 0 -21 9t-9 22q3 100 3 288t-3 372q0 13 8.5 22t21.5 9t21.5 -9t8.5 -21q0 -31 1 -127.5t2 -150.5h174q0 48 0.5 142.5t0.5 135.5q0 13 9 21.5t21 8.5
q13 0 21.5 -8.5t8.5 -21.5q0 -45 -0.5 -150t-0.5 -156q-2 -156 -2 -227q0 -26 0.5 -69t0.5 -59q0 -13 -8.5 -22t-21.5 -9z" />
    <glyph glyph-name="i" unicode="i" horiz-adv-x="186" 
d="M96 -11q-12 0 -21 9t-9 21q-2 156 -2 237v133q0 210 -4 291q-1 13 7.5 22t21.5 9t21.5 -8t8.5 -20q5 -103 5 -379q0 -191 2 -284q0 -13 -8.5 -22t-21.5 -9z" />
    <glyph glyph-name="j" unicode="j" horiz-adv-x="325" 
d="M159 -20q-65 0 -153 120q-6 8 -6 17q0 12 8.5 20.5t21.5 8.5q14 0 23 -12q68 -98 100 -98q40 0 54 168q10 103 10 232q0 107 -8 217q-69 -2 -132 -11q-13 -2 -22.5 6.5t-9.5 21.5q0 11 7 19t17 9q65 9 138 11q58 0 63 -57q7 -92 7 -208q0 -136 -10 -245
q-20 -219 -108 -219z" />
    <glyph glyph-name="k" unicode="k" horiz-adv-x="371" 
d="M326 -9q-25 0 -29 25q-27 178 -53 245t-92 94q-16 7 -26 15q1 -46 1 -121v-31l3 -198q0 -12 -9 -20.5t-21 -8.5q-13 0 -21.5 9t-8.5 22l-3 198v30q0 230 -7 429q-1 13 8 22t22 9q12 0 20.5 -8.5t9.5 -20.5q4 -119 6 -274q4 6 9 11q95 110 151 273q7 20 29 20
q13 0 21.5 -9t8.5 -21q0 -3 -2 -9q-58 -165 -149 -274q74 -38 105 -117t57 -255q2 -13 -7 -24t-23 -11z" />
    <glyph glyph-name="l" unicode="l" horiz-adv-x="325" 
d="M176 -4q-37 0 -57 1q-59 3 -59 62q1 35 2 266t6 353q0 12 9 20.5t21 8.5q13 0 21.5 -9t8.5 -22q-5 -118 -6 -340.5t-2 -282.5q21 -1 58 -1q60 0 109 6q13 1 22.5 -7t9.5 -20q0 -11 -7 -19t-18 -9q-62 -7 -118 -7z" />
    <glyph glyph-name="m" unicode="m" horiz-adv-x="497" 
d="M92 -11q-13 0 -21.5 9t-8.5 21q-1 89 -1 258v238q0 124 -1 165q0 13 9 22t21 9q20 0 30 -22l126 -290l119 287q2 5 6 11q9 14 25 14q12 0 21 -8.5t9 -20.5q9 -232 11 -663q0 -12 -8.5 -21t-21.5 -9q-12 0 -21 9t-9 21q-2 269 -7 541l-93 -218q-15 -33 -38 -33
q-22 0 -35 32l-83 204v-52q0 -291 1 -473q0 -13 -9 -22t-21 -9z" />
    <glyph glyph-name="n" unicode="n" horiz-adv-x="440" 
d="M346 -11q-30 0 -43 39q-31 85 -97.5 288t-88.5 266v-288t1 -274q0 -12 -8.5 -21t-19.5 -9q-12 0 -20 9t-8 21q-2 180 -2 581v59q1 23 12 36.5t26 13.5q30 0 43 -37q95 -247 178 -526v69q0 76 1.5 212t1.5 183v68q0 13 8 21.5t20 8.5q11 0 19 -8.5t8 -21.5q3 -144 3 -474
v-168q-1 -23 -10.5 -35.5t-23.5 -12.5z" />
    <glyph glyph-name="o" unicode="o" horiz-adv-x="412" 
d="M210 -9q-33 0 -62.5 15.5t-43.5 39.5q-59 103 -59 331q0 205 51 282q39 61 107 61q38 0 72 -20.5t54 -58.5q38 -72 38 -208q0 -141 -21 -289q-11 -79 -49 -116t-87 -37zM105 377q0 -215 51 -303q17 -31 53 -31q26 0 48 26t30 83q20 149 20 281q0 124 -31 182
q-30 53 -71 53q-34 0 -59 -39q-41 -64 -41 -252z" />
    <glyph glyph-name="p" unicode="p" horiz-adv-x="312" 
d="M93 -11q-13 0 -21.5 8.5t-8.5 21.5v55q0 58 -1.5 181.5t-1.5 182.5q0 143 9 231q3 30 32 35q10 2 31 2q66 0 114 -39.5t48 -113.5q-1 -76 -50.5 -133.5t-122.5 -67.5q2 -182 2 -274v-59q0 -13 -9 -21.5t-21 -8.5zM121 408q49 8 81 48.5t32 96.5q0 49 -27 74t-69 25h-11
q-6 -52 -6 -202v-42z" />
    <glyph glyph-name="q" unicode="q" horiz-adv-x="413" 
d="M209 -20q-39 0 -74.5 20.5t-57.5 58.5q-21 36 -26.5 81.5t-5.5 127.5v71q0 141 13 228q13 79 56 116t99 37q37 0 69 -15t47 -39q25 -40 32 -100t7 -160v-82q0 -116 -8.5 -178.5t-38.5 -104.5q-12 -16 -18 -22q13 -20 44 -67q4 -5 4 -14q0 -12 -8.5 -20.5t-20.5 -8.5
q-14 0 -25 14q-25 34 -44 65q-19 -8 -44 -8zM105 268q0 -78 4 -116t20 -65q31 -54 78 -54q5 0 15 2l-16 26q-5 7 -5 16q0 12 9 20.5t21 8.5q15 0 24 -13l15 -23l1 1q1 1 1 2q22 32 29 87t7 164v86q0 91 -5.5 143.5t-24.5 82.5q-20 32 -66 32q-33 0 -59.5 -26t-35.5 -83
q-12 -81 -12 -216v-75z" />
    <glyph glyph-name="r" unicode="r" horiz-adv-x="355" 
d="M96 -11q-13 0 -21.5 9t-8.5 22v53q0 235 -6 595q0 24 28 32q34 9 60 9q61 0 101.5 -39t40.5 -124q0 -109 -109 -137q65 -59 102 -147t54 -237q1 -13 -7.5 -23.5t-21.5 -10.5q-26 0 -30 27q-17 152 -52.5 235.5t-101.5 147.5q2 -230 2 -329v-53q0 -12 -8.5 -21t-21.5 -9z
M120 651l3 -204q107 5 107 96q0 112 -79 112q-16 0 -31 -4z" />
    <glyph glyph-name="s" unicode="s" horiz-adv-x="332" 
d="M167 -20q-54 0 -95.5 38.5t-41.5 63.5q0 12 8.5 21t21.5 9q19 0 26 -17q31 -64 83 -64q32 0 55 31t23 87q0 100 -81 203q-5 6 -37 44.5t-43.5 55t-25.5 50t-14 64.5q0 63 28 107.5t87 44.5q71 0 125 -76q6 -6 6 -17q0 -12 -8.5 -20.5t-20.5 -8.5q-15 0 -24 12
q-21 30 -37.5 42t-40.5 12q-55 0 -55 -96q0 -19 5 -36.5t18 -37.5t21 -30.5t29.5 -36t27.5 -32.5q101 -123 101 -241q-1 -81 -42 -126.5t-99 -45.5z" />
    <glyph glyph-name="t" unicode="t" horiz-adv-x="328" 
d="M171 -11q-12 0 -21 9t-9 21q0 24 -3.5 226.5t-3.5 290.5q0 51 2 113h-14q-50 0 -90 4q-11 1 -18.5 9t-7.5 19q0 12 9.5 20.5t21.5 7.5q39 -4 86 -4q24 0 52.5 1t63 2.5t53.5 2.5q12 1 21 -7.5t9 -20.5q0 -11 -8 -19t-19 -9l-99 -4q-2 -64 -2 -115q0 -87 3.5 -288
t3.5 -228q0 -13 -8.5 -22t-21.5 -9z" />
    <glyph glyph-name="u" unicode="u" horiz-adv-x="396" 
d="M195 -19q-48 0 -85 47t-48 138q-8 69 -8 199q0 61 2 172t2 142q0 13 8.5 21.5t21.5 8.5q12 0 21 -8.5t9 -21.5q0 -32 -2 -142t-2 -170q0 -128 8 -195q8 -69 29.5 -104t48.5 -35q33 0 57.5 48.5t24.5 127.5q0 80 -3 192.5t-3 203.5v74q0 12 8.5 21t21.5 9q12 0 21 -9
t9 -21v-51q0 -103 3 -222t3 -197q0 -102 -44.5 -165t-102.5 -63z" />
    <glyph glyph-name="v" unicode="v" horiz-adv-x="356" 
d="M187 0q-47 0 -59 60l-121 610q-3 14 6 24.5t24 10.5q24 0 29 -24q95 -477 119 -616l1 -7h2l102 621q1 11 10 18.5t20 7.5q14 0 23 -11t7 -24l-105 -620q-5 -28 -17 -39t-41 -11z" />
    <glyph glyph-name="w" unicode="w" horiz-adv-x="551" 
d="M403 -12q-11 0 -20 6.5t-11 16.5l-90 355l-109 -355q-7 -22 -29 -22q-20 0 -31 15t-18 57q-38 224 -65 614q-1 13 7.5 22.5t21.5 9.5q12 0 20.5 -8t9.5 -20q26 -350 57 -553l103 326q13 42 39 42t37 -44l80 -320q51 300 60 552q0 12 9 20.5t21 8.5t19 -9t7 -22
q-4 -119 -27.5 -322.5t-53.5 -343.5q-4 -26 -37 -26z" />
    <glyph glyph-name="x" unicode="x" horiz-adv-x="382" 
d="M44 -12q-12 0 -20.5 8.5t-8.5 21.5q0 8 2 11l136 354l-129 286q-3 6 -3 12q0 13 8.5 21.5t20.5 8.5q20 0 27 -17l113 -258l103 252q7 17 27 17q12 0 21 -8.5t9 -20.5q0 -4 -3 -12l-119 -280l137 -352q2 -6 2 -12q0 -30 -29 -30q-12 0 -20.5 9.5t-11 15.5t-9.5 26
l-106 284l-119 -319q-7 -18 -28 -18z" />
    <glyph glyph-name="y" unicode="y" horiz-adv-x="393" 
d="M205 -10q-12 0 -20.5 8t-9.5 19q-4 50 -4 173v173l-161 301q-4 7 -4 15q0 12 9 20.5t21 8.5q18 0 26 -15l144 -274l127 275q7 16 27 16q12 0 19.5 -9t7.5 -21q0 -8 -3 -14q-143 -287 -153 -305v-171t4 -168q1 -13 -8 -22.5t-22 -9.5z" />
    <glyph glyph-name="z" unicode="z" horiz-adv-x="309" 
d="M48 -1q-13 0 -21.5 9t-8.5 20q0 4 2 10q27 79 74 213t75.5 219t56.5 176l-170 -4q-11 0 -19 8.5t-8 19.5q0 12 8.5 20t20.5 8l207 5h1q15 0 24 -12t5 -26q-29 -96 -57.5 -181.5t-77 -222.5t-72.5 -206l181 -1q11 0 19.5 -8.5t8.5 -19.5q0 -12 -9 -20t-20 -8z" />
    <glyph glyph-name="braceleft" unicode="{" horiz-adv-x="240" 
d="M176 -98q-36 8 -56 33t-20 60q0 16 2 84t2 107q0 69 -5 98q-4 21 -10 28t-23 7q-36 0 -36 27q0 28 37 28q13 0 18.5 8t7.5 27q5 31 5 105q0 38 -1.5 103.5t-1.5 80.5q0 35 19.5 60t56.5 33q13 3 23 -5.5t10 -21.5q0 -23 -23 -27q-26 -5 -26 -39q0 -13 1.5 -76.5
t1.5 -102.5q0 -84 -6 -118q-6 -35 -41 -51q40 -18 47 -58q5 -34 5 -111q0 -40 -1.5 -106t-1.5 -80q0 -34 27 -39q23 -4 23 -27q0 -13 -10.5 -21.5t-23.5 -5.5z" />
    <glyph glyph-name="bar" unicode="|" horiz-adv-x="182" 
d="M92 -106q-12 0 -20.5 8.5t-9.5 20.5q-1 33 -1 354q0 371 1 404q1 12 9.5 20.5t20.5 8.5q13 0 22 -9t8 -22q-1 -33 -1 -402q0 -319 1 -352q1 -13 -8 -22t-22 -9z" />
    <glyph glyph-name="braceright" unicode="}" horiz-adv-x="240" 
d="M64 -98q-13 -3 -23.5 5.5t-10.5 21.5q0 23 23 27q27 5 27 39q0 14 -1.5 80t-1.5 106q0 77 5 111q7 40 47 58q-35 16 -41 51q-6 34 -6 118q0 39 1.5 102.5t1.5 76.5q0 34 -26 39q-23 4 -23 27q0 13 10 21.5t23 5.5q37 -8 56.5 -33t19.5 -60q0 -15 -1.5 -80.5t-1.5 -103.5
q0 -74 5 -105q2 -19 7.5 -27t18.5 -8q37 0 37 -28q0 -27 -36 -27q-17 0 -23 -7t-10 -28q-5 -29 -5 -98q0 -39 2 -107t2 -84q0 -35 -20 -60t-56 -33z" />
    <glyph glyph-name="asciitilde" unicode="~" horiz-adv-x="424" 
d="M301 260q-31 0 -54.5 19t-52.5 56q-8 9 -17.5 23.5t-15 22t-13.5 13.5t-16 6q-32 0 -42 -89q-1 -11 -10 -18.5t-20 -7.5q-13 0 -22.5 10t-7.5 24q6 44 20.5 74.5t32 42.5t29 16t20.5 4q21 0 38.5 -9.5t25.5 -18t24 -31t21 -28.5q17 -21 24 -29t17.5 -16t18.5 -8
q6 0 14 6.5t15 26.5t4 50q-1 13 8 22.5t22 9.5q12 0 20.5 -8t9.5 -20q5 -70 -28.5 -106.5t-64.5 -36.5z" />
    <glyph glyph-name="exclamdown" unicode="&#xa1;" horiz-adv-x="214" 
d="M100 462q13 0 22 -9.5t8 -22.5q-3 -57 -3 -221v-131q0 -114 -1 -162q0 -12 -8.5 -20.5t-21.5 -8.5q-12 0 -21 8.5t-9 21.5q1 47 1 160v153q0 150 3 204q1 12 9.5 20t20.5 8zM60 565q0 19 14 35q13 15 33 15q23 0 36 -18q11 -16 11 -31q0 -19 -17 -36q-13 -12 -31 -12
q-12 0 -25 8q-21 16 -21 39z" />
    <glyph glyph-name="cent" unicode="&#xa2;" horiz-adv-x="278" 
d="M143 -12q-12 0 -21 8.5t-9 21.5q0 39 1 65v4q-49 19 -68 91q-16 64 -16 157q0 59 6 128q11 146 83 163v53q0 13 9 21.5t21 8.5q13 0 21.5 -8.5t8.5 -21.5v-58q30 -15 61 -69q4 -7 4 -15q0 -12 -8.5 -20.5t-20.5 -8.5q-19 0 -26 15q-18 32 -26.5 41t-20.5 9q-20 0 -30 -21
t-16 -93q-6 -71 -6 -127q0 -83 15 -140q15 -58 44 -58q16 0 29.5 18.5t19.5 52.5q2 11 10 17.5t19 6.5q14 0 23 -11t6 -25q-9 -40 -31.5 -68t-50.5 -39v-3q-1 -27 -1 -65q0 -13 -8.5 -21.5t-21.5 -8.5z" />
    <glyph glyph-name="sterling" unicode="&#xa3;" horiz-adv-x="298" 
d="M64 -10q-13 -1 -22.5 7.5t-9.5 20.5q0 24 25 28l7 1q17 24 25.5 36.5t19.5 45t11 66.5q0 18 -4.5 38.5t-15.5 57.5t-16 54q-26 -2 -40 -3q-13 -2 -22.5 6.5t-9.5 21.5q0 10 7 18t18 10q10 1 34 3q-11 66 -11 121q0 198 112 198q47 0 83 -27q12 -8 12 -23
q0 -12 -8.5 -20.5t-20.5 -8.5q-9 0 -17 5q-16 12 -24 15t-25 3q-52 0 -52 -142q0 -53 13 -118h25q42 0 57 -1q11 0 19 -8t8 -19q0 -12 -8 -20t-19 -8h-32h-35q3 -9 9.5 -31.5t9.5 -33t7 -27.5t5.5 -30t1.5 -26q0 -79 -43 -148h24q52 0 105 -6q25 -4 25 -28q0 -12 -9.5 -20.5
t-22.5 -7.5q-50 6 -98 6t-98 -6z" />
    <glyph glyph-name="currency" unicode="&#xa4;" horiz-adv-x="328" 
d="M61 109q-12 0 -21 9t-9 21q0 6 4 14q3 5 11.5 21t14.5 26l2 3q-23 55 -23 127q0 75 24 133q-2 1 -4 5l-26 51q-4 5 -4 13q0 13 8.5 21.5t21.5 8.5q18 0 26 -16l12 -24q31 34 68 34q36 0 65 -31l11 21q8 16 26 16q12 0 21 -8.5t9 -20.5q0 -6 -4 -14q-16 -30 -24 -47l-3 -5
q25 -61 25 -137q0 -73 -25 -131l3 -4q18 -32 23 -42q4 -5 4 -14q0 -12 -8.5 -20.5t-21.5 -8.5q-17 0 -25 15l-11 18q-29 -29 -65 -29q-38 0 -68 32l-11 -22q-8 -15 -26 -15zM100 330q0 -71 19.5 -115.5t46.5 -44.5t46.5 44.5t19.5 115.5t-20 120.5t-46 49.5t-46 -49.5
t-20 -120.5z" />
    <glyph glyph-name="yen" unicode="&#xa5;" horiz-adv-x="395" 
d="M205 -11q-12 0 -20.5 8t-9.5 19q-4 45 -4 188q-37 0 -83 -2q-12 0 -20 8.5t-8 19.5q0 12 8 20t20 8l83 2v85l-83 -2q-12 0 -20 8t-8 20q0 11 8 19.5t20 8.5l64 2l-142 267q-4 7 -4 15q0 12 9 20.5t21 8.5q18 0 26 -15l139 -263l132 264q9 16 27 16q12 0 20.5 -9t8.5 -21
q0 -8 -3 -14l-133 -267q34 2 58 0q11 -1 19 -9t8 -19q0 -12 -8.5 -20.5t-20.5 -7.5h-78v-85h79q11 0 19.5 -8t8.5 -20q0 -11 -8.5 -19.5t-19.5 -8.5h-79q0 -141 4 -185q1 -13 -8 -22.5t-22 -9.5z" />
    <glyph glyph-name="brokenbar" unicode="&#xa6;" horiz-adv-x="183" 
d="M93 355q-12 0 -21 8.5t-9 21.5q0 38 -1 125t-1 129v40q0 13 9 21.5t21 8.5q13 0 21.5 -8.5t8.5 -21.5v-40q0 -41 1 -128.5t1 -125.5q0 -13 -8.5 -21.5t-21.5 -8.5zM60 -8q0 1 3 214q0 13 8.5 21.5t21.5 8.5q12 0 21 -8.5t9 -21.5q0 -24 -1 -67.5t-1.5 -79t-0.5 -67.5
q0 -12 0.5 -34t0.5 -34q0 -13 -8.5 -21.5t-21.5 -8.5q-12 0 -21 8.5t-9 21.5q0 12 -0.5 34t-0.5 34z" />
    <glyph glyph-name="section" unicode="&#xa7;" horiz-adv-x="328" 
d="M169 -20q-28 0 -65.5 18.5t-55.5 41.5q-6 8 -6 18q0 12 8.5 20.5t20.5 8.5q10 0 24 -14q35 -37 71 -37q30 0 53.5 24.5t23.5 57.5q0 14 -3.5 27t-8.5 22t-13.5 17.5t-15.5 14t-17.5 11t-15.5 8t-14.5 6t-10.5 3.5q-114 49 -114 148q0 92 101 132q-59 35 -59 98
q0 54 34.5 84.5t80.5 30.5q39 0 73 -17q15 -8 15 -25q0 -11 -10 -20t-18 -9q-3 0 -25.5 7.5t-37.5 7.5q-52 0 -52 -59q0 -67 67 -95q58 -24 86 -55t28 -90q0 -87 -105 -115q95 -33 95 -132q0 -54 -41 -96t-93 -42zM79 370q0 -39 26.5 -65.5t66.5 -26.5q39 0 65.5 26.5
t26.5 65.5q0 40 -26.5 66.5t-65.5 26.5q-40 0 -66.5 -26.5t-26.5 -66.5z" />
    <glyph glyph-name="dieresis" unicode="&#xa8;" horiz-adv-x="215" 
d="M155 620q-13 0 -21.5 8.5t-8.5 21.5v26q0 13 8.5 21.5t21.5 8.5q12 0 21 -8.5t9 -21.5v-26q0 -13 -9 -21.5t-21 -8.5zM30 649v26q0 13 8.5 21.5t21.5 8.5q12 0 21 -8.5t9 -21.5v-26q0 -13 -9 -21.5t-21 -8.5q-13 0 -21.5 8.5t-8.5 21.5z" />
    <glyph glyph-name="copyright" unicode="&#xa9;" horiz-adv-x="490" 
d="M249 -20q-44 0 -71 10t-56 42q-28 31 -44.5 66t-23 84t-8 83t-1.5 101q0 114 14.5 183.5t51.5 112.5q49 58 130 58q45 0 86 -20t67 -57q51 -70 51 -210q-1 -150 -27 -301q-15 -78 -62 -115t-107 -37zM105 366q0 -81 2.5 -122.5t17.5 -92t45 -85.5q29 -34 79 -34
q38 0 68.5 26.5t41.5 83.5q26 158 25 291q0 124 -39 179q-38 55 -101 55q-52 0 -86 -41q-29 -34 -41 -93.5t-12 -166.5zM153 322q0 68 4 125q3 45 13 78t24 49.5t26 23.5t23 7q26 0 43.5 -15.5t36.5 -56.5q3 -6 3 -13q0 -25 -20 -25q-19 0 -28 14q-16 26 -22.5 33t-12.5 7
q-7 0 -11 -5t-8 -29t-7 -72q-5 -67 -5 -117q0 -73 12 -130q10 -52 26 -52q9 0 19.5 16.5t16.5 44.5q5 26 27 26q12 0 18.5 -11t3.5 -24q-9 -49 -34.5 -77t-55.5 -28q-27 0 -49 23.5t-31 69.5q-12 55 -12 138z" />
    <glyph glyph-name="guillemotleft" unicode="&#xab;" horiz-adv-x="414" 
d="M215 142q-13 0 -23 10l-144 171q-18 21 -18 43q0 21 16 41l136 180q9 11 23 11q13 0 21.5 -8.5t8.5 -20.5q0 -8 -6 -18l-141 -185l149 -176q7 -9 7 -19q0 -12 -8.5 -20.5t-20.5 -8.5zM170 366q0 21 16 41l136 180q9 11 23 11q13 0 21.5 -8.5t8.5 -20.5q0 -8 -6 -18
l-141 -185l149 -176q7 -9 7 -19q0 -12 -8.5 -20.5t-20.5 -8.5q-13 0 -23 10l-144 171q-18 21 -18 43z" />
    <glyph glyph-name="logicalnot" unicode="&#xac;" horiz-adv-x="275" 
d="M210 140q-13 0 -21.5 8.5t-8.5 20.5q0 4 3 83q-42 0 -124 -2q-12 0 -20.5 8.5t-8.5 19.5q0 12 8.5 20t19.5 8l126 3q30 0 46 -10t15 -30q-6 -93 -6 -99q0 -13 -8.5 -21.5t-20.5 -8.5z" />
    <glyph glyph-name="registered" unicode="&#xae;" horiz-adv-x="490" 
d="M249 -19q-40 0 -74.5 14.5t-52.5 37.5q-77 105 -77 334q0 107 15 174.5t52 110.5q48 58 129 58q45 0 86 -20t68 -56q50 -72 50 -211q-1 -139 -27 -290q-15 -78 -62 -115t-107 -37zM105 367q0 -210 65 -300q25 -34 79 -34q38 0 68.5 26.5t41.5 83.5q26 158 26 280
q-1 124 -39 179q-40 55 -102 55q-52 0 -86 -41q-29 -34 -41 -92t-12 -157zM166 535q0 27 7.5 39t27.5 12q122 0 122 -118q0 -62 -54 -88q47 -83 72 -207q1 -5 1 -16q0 -22 -21 -22q-22 0 -29 21q-11 38 -24.5 89t-22.5 81t-19 51q3 -89 3 -211q0 -25 -25 -25q-28 0 -28 25
q1 67 -4.5 201.5t-5.5 167.5zM219 529l5 -107q45 6 45 44q0 57 -50 63z" />
    <glyph glyph-name="macron" unicode="&#xaf;" horiz-adv-x="229" 
d="M57 620q-10 0 -18.5 8t-8.5 20q0 11 8.5 19t19.5 9q58 2 113 2q12 0 20 -8t8 -20q0 -11 -8 -19.5t-19 -8.5q-14 0 -56.5 -1t-58.5 -1z" />
    <glyph glyph-name="degree" unicode="&#xb0;" horiz-adv-x="250" 
d="M124 504q-40 0 -67 30t-27 78q0 40 17 69q25 39 77 39q36 0 61.5 -24t32.5 -59q2 -8 2 -25q0 -43 -29 -75q-30 -33 -67 -33zM76 609q0 -23 13 -43q11 -19 33 -19q20 0 33 17t13 45q0 31 -7 45q-12 23 -39 23q-25 0 -38 -26q-8 -19 -8 -42z" />
    <glyph glyph-name="plusminus" unicode="&#xb1;" horiz-adv-x="302" 
d="M59 348q-12 0 -20.5 8.5t-8.5 19.5q0 12 8.5 20t19.5 8l64 2q-1 18 -1 52q0 12 9 20.5t21 8.5t20.5 -8.5t9.5 -20.5l1 -51q46 2 61 2q12 0 20.5 -8.5t8.5 -19.5q0 -12 -8.5 -20t-19.5 -8l-61 -2v-30q0 -13 -9 -21.5t-21 -8.5q-13 0 -21.5 8.5t-8.5 21.5v29q-46 -2 -64 -2
zM30 235q0 12 8.5 20t19.5 8q74 2 131 2q39 0 56 -1q11 0 19 -8t8 -19q0 -12 -8.5 -20t-19.5 -8q-77 0 -185 -2q-12 0 -20.5 8.5t-8.5 19.5z" />
    <glyph glyph-name="acute" unicode="&#xb4;" horiz-adv-x="207" 
d="M55 622q-25 0 -25 24q0 15 9 21q50 46 97 78q7 5 19 5q22 0 22 -23q0 -15 -12 -24q-35 -23 -91 -74q-9 -7 -19 -7z" />
    <glyph glyph-name="paragraph" unicode="&#xb6;" horiz-adv-x="384" 
d="M172 -106q-12 0 -21 9t-9 21q2 154 2 237l-1 198q-9 0 -29.5 10.5t-45.5 30.5t-43.5 59t-18.5 87q0 47 29 91t97 69q12 4 24 4q21 0 33.5 -15t12.5 -41q2 -306 2 -459q0 -183 -2 -271q0 -12 -8.5 -21t-21.5 -9zM261 173q0 83 1.5 251.5t1.5 255.5q0 13 9 21.5t21 8.5
q13 0 21.5 -8.5t8.5 -21.5q0 -87 -1.5 -255.5t-1.5 -251.5q0 -119 3 -248q0 -13 -9 -22t-21 -9q-13 0 -21.5 8.5t-8.5 20.5q-3 129 -3 250z" />
    <glyph glyph-name="periodcentered" unicode="&#xb7;" horiz-adv-x="141" 
d="M69 325q-17 0 -28 15.5t-11 43.5q0 20 10.5 30t24.5 10q23 0 37 -22q9 -15 9 -30q0 -21 -19 -38q-11 -9 -23 -9z" />
    <glyph glyph-name="cedilla" unicode="&#xb8;" horiz-adv-x="243" 
d="M107 -179q-27 0 -55 6q-22 5 -22 27q0 14 11 22.5t23 5.5q32 -8 50 -8q39 0 39 26q0 17 -14 17q-6 0 -18 -3q-21 -6 -35 -6q-28 0 -28 24q0 15 25 40l41 40l24 -1l-36 -55q49 14 74.5 -4.5t26.5 -51.5q0 -38 -29 -58.5t-77 -20.5z" />
    <glyph glyph-name="guillemotright" unicode="&#xbb;" horiz-adv-x="414" 
d="M199 142q-12 0 -20.5 8.5t-8.5 20.5q0 10 7 19l149 176l-141 185q-6 10 -6 18q0 12 8.5 20.5t21.5 8.5q14 0 23 -11l136 -180q16 -20 16 -41q0 -22 -18 -43l-144 -171q-10 -10 -23 -10zM30 171q0 10 7 19l149 176l-141 185q-6 10 -6 18q0 12 8.5 20.5t21.5 8.5
q14 0 23 -11l136 -180q16 -20 16 -41q0 -22 -18 -43l-144 -171q-10 -10 -23 -10q-12 0 -20.5 8.5t-8.5 20.5z" />
    <glyph glyph-name="onequarter" unicode="&#xbc;" horiz-adv-x="544" 
d="M131 354q-11 0 -18 7t-7 18l-6 272l-30 -28q-6 -7 -16 -7t-17 7t-7 17q0 11 7 17l42 40q22 21 46 11.5t25 -40.5l6 -288q0 -10 -7.5 -18t-17.5 -8zM87 28l343 663q7 13 17 18.5t18 0.5q18 -12 6 -36l-344 -665q-7 -13 -16.5 -18t-17.5 0q-19 12 -6 37zM347 145l73 196
q5 16 23 16q14 0 21.5 -11t2.5 -23l-68 -178l63 -2h2v49q0 10 7.5 18t17.5 8t17.5 -7.5t7.5 -17.5v-43.5v-46v-33.5q-1 -23 -1 -55q0 -11 -7.5 -18.5t-17.5 -7.5t-17.5 7.5t-7.5 17.5q0 35 1 57v26h-3l-83 3q-18 1 -28 14t-3 31z" />
    <glyph glyph-name="onehalf" unicode="&#xbd;" horiz-adv-x="591" 
d="M131 354q-11 0 -18 7t-7 18l-6 272l-30 -28q-6 -7 -16 -7t-17 7t-7 17q0 11 7 17l42 40q22 21 46 11.5t25 -40.5l6 -288q0 -10 -7.5 -18t-17.5 -8zM87 28l343 663q7 13 17 18.5t18 0.5q18 -12 6 -36l-344 -665q-7 -13 -16.5 -18t-17.5 0q-19 12 -6 37zM387 310q0 10 5 15
q31 40 73 40q40 0 68 -26.5t28 -73.5q0 -24 -15 -49t-27 -37t-34 -31q-29 -25 -39.5 -47t-7.5 -62q13 2 77 2q3 0 8 -0.5t7 -0.5q9 0 16 -6.5t7 -16.5q0 -9 -7 -16t-17 -7q-2 0 -7.5 0.5t-8.5 0.5q-16 0 -48 0.5t-47 1.5q-13 0 -21.5 8.5t-8.5 21.5q-1 51 7.5 79t34.5 56
q5 5 23 21q19 16 28.5 25.5t19.5 25.5t10 31q0 54 -46 54q-19 0 -34 -23q-8 -10 -20 -10q-10 0 -17 7t-7 17z" />
    <glyph glyph-name="threequarters" unicode="&#xbe;" horiz-adv-x="561" 
d="M111 349q-38 0 -67 19q-10 8 -10 20q0 10 6.5 17t16.5 7q7 0 14 -5q20 -16 45 -16q17 0 28.5 18t11.5 52q0 62 -62 62q-10 0 -17.5 6.5t-7.5 16.5q0 9 6.5 15.5t15.5 7.5q11 1 21.5 5t22 18t11.5 35q0 23 -9.5 35t-22.5 12q-28 0 -41 -11q-7 -5 -15 -5q-10 0 -16.5 7
t-6.5 17q0 12 10 19q26 19 69 19q31 0 56.5 -26.5t25.5 -66.5q0 -68 -55 -76q65 -13 65 -90q0 -52 -28 -82t-67 -30zM104 28l343 663q7 13 17 18.5t18 0.5q18 -12 6 -36l-344 -665q-7 -13 -16.5 -18t-17.5 0q-19 12 -6 37zM364 145l73 196q5 16 23 16q14 0 21.5 -11t2.5 -23
l-68 -178l63 -2h2v49q0 10 7.5 18t17.5 8t17.5 -7.5t7.5 -17.5v-43.5v-46v-33.5q-1 -23 -1 -55q0 -11 -7.5 -18.5t-17.5 -7.5t-17.5 7.5t-7.5 17.5q0 35 1 57v26h-3l-83 3q-18 1 -28 14t-3 31z" />
    <glyph glyph-name="questiondown" unicode="&#xbf;" horiz-adv-x="318" 
d="M178 401q20 0 27 -19q17 -42 17 -78q0 -26 -11 -51t-19 -35t-28 -32q-44 -51 -60 -84t-16 -73q0 -88 75 -88q45 0 72 36q8 13 23 13q13 0 21.5 -8.5t8.5 -21.5q0 -9 -7 -18q-44 -57 -124 -57q-63 0 -95 36.5t-32 100.5q0 45 18 89.5t32.5 64t38.5 47.5q16 17 23 26
t14 24.5t7 31.5q0 23 -13 55q-2 8 -2 11q0 13 8.5 21.5t21.5 8.5zM112 566q0 16 11 30q16 19 40 19q22 0 37 -15q15 -17 15 -35q0 -23 -20 -37q-13 -9 -31 -9t-34 11q-18 15 -18 36z" />
    <glyph glyph-name="Agrave" unicode="&#xc0;" horiz-adv-x="376" 
d="M84 -11q-13 0 -21.5 8.5t-8.5 21.5q3 296 15 405q17 163 42 228.5t77 65.5q107 0 123 -276q11 -178 11 -295v-128q0 -12 -8.5 -21t-21.5 -9q-12 0 -21 9t-9 21q-2 225 -3 261q-38 -6 -87 -6q-18 0 -54 2q0 -13 -4 -257q0 -13 -9 -21.5t-21 -8.5zM111 847q0 23 22 23
q12 0 19 -5q47 -32 97 -78q9 -6 9 -21q0 -24 -25 -24q-10 0 -19 7q-56 51 -91 74q-12 9 -12 24zM121 331q18 -1 53 -1q49 0 82 6h1q-1 27 -6 103q-13 223 -63 223q-12 0 -21 -20t-19 -74t-20 -150q-3 -30 -7 -87z" />
    <glyph glyph-name="Aacute" unicode="&#xc1;" horiz-adv-x="376" 
d="M84 -11q-13 0 -21.5 8.5t-8.5 21.5q3 296 15 405q17 163 42 228.5t77 65.5q107 0 123 -276q11 -178 11 -295v-128q0 -12 -8.5 -21t-21.5 -9q-12 0 -21 9t-9 21q-2 225 -3 261q-38 -6 -87 -6q-18 0 -54 2q0 -13 -4 -257q0 -13 -9 -21.5t-21 -8.5zM111 766q0 15 9 21
q50 46 97 78q7 5 19 5q22 0 22 -23q0 -15 -12 -24q-35 -23 -91 -74q-9 -7 -19 -7q-25 0 -25 24zM121 331q18 -1 53 -1q49 0 82 6h1q-1 27 -6 103q-13 223 -63 223q-12 0 -21 -20t-19 -74t-20 -150q-3 -30 -7 -87z" />
    <glyph glyph-name="Acircumflex" unicode="&#xc2;" horiz-adv-x="376" 
d="M84 -11q-13 0 -21.5 8.5t-8.5 21.5q3 296 15 405q17 163 42 228.5t77 65.5q107 0 123 -276q11 -178 11 -295v-128q0 -12 -8.5 -21t-21.5 -9q-12 0 -21 9t-9 21q-2 225 -3 261q-38 -6 -87 -6q-18 0 -54 2q0 -13 -4 -257q0 -13 -9 -21.5t-21 -8.5zM86 759q0 7 3 13
q7 12 26 41t33 52q17 30 37 30q6 0 11.5 -2.5t11.5 -9t10 -12t11 -16t12 -17.5q31 -43 45 -66q3 -4 3 -12t-6 -14t-14 -6q-15 0 -27 17l-56 85q-4 -7 -14 -22.5t-22.5 -35t-17.5 -28.5q-10 -16 -26 -16q-7 0 -13.5 6t-6.5 13zM121 331q18 -1 53 -1q49 0 82 6h1q-1 27 -6 103
q-13 223 -63 223q-12 0 -21 -20t-19 -74t-20 -150q-3 -30 -7 -87z" />
    <glyph glyph-name="Atilde" unicode="&#xc3;" horiz-adv-x="376" 
d="M84 -11q-13 0 -21.5 8.5t-8.5 21.5q3 296 15 405q17 163 42 228.5t77 65.5q107 0 123 -276q11 -178 11 -295v-128q0 -12 -8.5 -21t-21.5 -9q-12 0 -21 9t-9 21q-2 225 -3 261q-38 -6 -87 -6q-18 0 -54 2q0 -13 -4 -257q0 -13 -9 -21.5t-21 -8.5zM64 788q16 80 69 80
q43 0 82 -54q16 -23 27 -23q12 0 11 31q0 12 8.5 21t21.5 9q12 0 21 -8.5t9 -21.5q-1 -40 -21.5 -61t-49.5 -21q-46 0 -76 42q-24 35 -32 35q-9 0 -12 -38q-2 -11 -10 -18.5t-20 -7.5q-14 0 -22.5 11t-5.5 24zM121 331q18 -1 53 -1q49 0 82 6h1q-1 27 -6 103
q-13 223 -63 223q-12 0 -21 -20t-19 -74t-20 -150q-3 -30 -7 -87z" />
    <glyph glyph-name="Adieresis" unicode="&#xc4;" horiz-adv-x="376" 
d="M84 -11q-13 0 -21.5 8.5t-8.5 21.5q3 296 15 405q17 163 42 228.5t77 65.5q107 0 123 -276q11 -178 11 -295v-128q0 -12 -8.5 -21t-21.5 -9q-12 0 -21 9t-9 21q-2 225 -3 261q-38 -6 -87 -6q-18 0 -54 2q0 -13 -4 -257q0 -13 -9 -21.5t-21 -8.5zM110 769v26
q0 13 8.5 21.5t21.5 8.5q12 0 21 -8.5t9 -21.5v-26q0 -13 -9 -21.5t-21 -8.5q-13 0 -21.5 8.5t-8.5 21.5zM121 331q18 -1 53 -1q49 0 82 6h1q-1 27 -6 103q-13 223 -63 223q-12 0 -21 -20t-19 -74t-20 -150q-3 -30 -7 -87zM205 770v26q0 13 8.5 21.5t21.5 8.5q12 0 21 -8.5
t9 -21.5v-26q0 -13 -9 -21.5t-21 -8.5q-13 0 -21.5 8.5t-8.5 21.5z" />
    <glyph glyph-name="Aring" unicode="&#xc5;" horiz-adv-x="376" 
d="M84 -11q-13 0 -21.5 8.5t-8.5 21.5q3 296 15 405q17 163 42 228.5t77 65.5q107 0 123 -276q11 -178 11 -295v-128q0 -12 -8.5 -21t-21.5 -9q-12 0 -21 9t-9 21q-2 225 -3 261q-38 -6 -87 -6q-18 0 -54 2q0 -13 -4 -257q0 -13 -9 -21.5t-21 -8.5zM117 826q0 32 19 55.5
t45 23.5q31 0 56 -24t25 -65q0 -32 -22.5 -54t-51.5 -22t-50 23.5t-21 62.5zM121 331q18 -1 53 -1q49 0 82 6h1q-1 27 -6 103q-13 223 -63 223q-12 0 -21 -20t-19 -74t-20 -150q-3 -30 -7 -87zM168 836q0 -55 19 -55q24 0 24 31q0 52 -23 52q-20 0 -20 -28z" />
    <glyph glyph-name="AE" unicode="&#xc6;" horiz-adv-x="499" 
d="M84 -11q-13 0 -21.5 8.5t-8.5 21.5q3 296 15 405q17 163 41.5 224t77.5 61l108 -1h1l134 -3q12 0 20 -8.5t8 -19.5q0 -12 -8.5 -20t-20.5 -8l-144 3q0 -8 6 -247l107 -3q11 0 19 -8.5t8 -19.5q0 -12 -8.5 -20t-20.5 -8l-104 3v-14q0 -56 -2 -156.5t-2 -130.5l145 5
q11 0 20 -8t9 -20q0 -11 -8.5 -19t-19.5 -9l-146 -5q-29 -1 -44.5 14t-15.5 43q0 43 2 122t2 105q-38 -2 -61 -2q-18 0 -54 2q0 -13 -4 -257q0 -13 -9 -21.5t-21 -8.5zM121 331q18 -1 53 -1q34 0 59 3v2q0 44 -3.5 150.5t-3.5 165.5q-17 -1 -38 -1q-13 0 -21.5 -15.5
t-18.5 -67.5t-20 -149q-3 -30 -7 -87z" />
    <glyph glyph-name="Ccedilla" unicode="&#xc7;" horiz-adv-x="338" 
d="M159 -199q-27 0 -55 6q-22 5 -22 27q0 14 11 22.5t23 5.5q32 -8 50 -8q39 0 39 26q0 17 -14 17q-6 0 -18 -3q-21 -6 -35 -6q-28 0 -28 24q0 15 25 40l31 30q-34 6 -61 37.5t-40 87.5q-20 86 -20 215q0 66 7 176q10 127 43.5 174.5t82.5 47.5q36 0 62 -20t56 -63
q5 -8 5 -16q0 -13 -8.5 -21.5t-21.5 -8.5q-16 0 -24 13q-24 36 -37.5 48t-31.5 12t-28.5 -9.5t-21.5 -48.5t-16 -112q-7 -112 -7 -175q0 -123 18 -199q20 -87 62 -87q24 0 44.5 31.5t28.5 84.5q2 11 10 18.5t19 7.5q15 0 23.5 -11t6.5 -24q-12 -67 -46.5 -109t-76.5 -49
l-30 -46q49 14 74.5 -4.5t26.5 -51.5q0 -38 -29 -58.5t-77 -20.5z" />
    <glyph glyph-name="Egrave" unicode="&#xc8;" 
d="M123 -4q-29 -1 -44.5 14t-15.5 43q0 47 2 140t2 142q0 45 -3.5 150t-3.5 161q0 28 15.5 43t44.5 14l145 -3q12 0 20 -8.5t8 -19.5q0 -12 -8.5 -20t-20.5 -8l-144 3q0 -35 1 -75.5t2.5 -90t2.5 -76.5l107 -3q11 0 19 -8.5t8 -19.5q0 -12 -8.5 -20t-20.5 -8l-104 3v-14
q0 -56 -2 -154t-2 -129l145 5q11 0 20 -8t9 -20q0 -11 -8.5 -19t-19.5 -9zM110 847q0 23 22 23q12 0 19 -5q47 -32 97 -78q9 -6 9 -21q0 -24 -25 -24q-10 0 -19 7q-56 51 -91 74q-12 9 -12 24z" />
    <glyph glyph-name="Eacute" unicode="&#xc9;" 
d="M123 -4q-29 -1 -44.5 14t-15.5 43q0 47 2 140t2 142q0 45 -3.5 150t-3.5 161q0 28 15.5 43t44.5 14l145 -3q12 0 20 -8.5t8 -19.5q0 -12 -8.5 -20t-20.5 -8l-144 3q0 -35 1 -75.5t2.5 -90t2.5 -76.5l107 -3q11 0 19 -8.5t8 -19.5q0 -12 -8.5 -20t-20.5 -8l-104 3v-14
q0 -56 -2 -154t-2 -129l145 5q11 0 20 -8t9 -20q0 -11 -8.5 -19t-19.5 -9zM110 766q0 15 9 21q50 46 97 78q7 5 19 5q22 0 22 -23q0 -15 -12 -24q-35 -23 -91 -74q-9 -7 -19 -7q-25 0 -25 24z" />
    <glyph glyph-name="Ecircumflex" unicode="&#xca;" 
d="M123 -4q-29 -1 -44.5 14t-15.5 43q0 47 2 140t2 142q0 45 -3.5 150t-3.5 161q0 28 15.5 43t44.5 14l145 -3q12 0 20 -8.5t8 -19.5q0 -12 -8.5 -20t-20.5 -8l-144 3q0 -35 1 -75.5t2.5 -90t2.5 -76.5l107 -3q11 0 19 -8.5t8 -19.5q0 -12 -8.5 -20t-20.5 -8l-104 3v-14
q0 -56 -2 -154t-2 -129l145 5q11 0 20 -8t9 -20q0 -11 -8.5 -19t-19.5 -9zM85 759q0 7 3 13q7 12 26 41t33 52q17 30 37 30q6 0 11.5 -2.5t11.5 -9t10 -12t11 -16t12 -17.5q31 -43 45 -66q3 -4 3 -12t-6 -14t-14 -6q-15 0 -27 17l-56 85q-4 -7 -14 -22.5t-22.5 -35
t-17.5 -28.5q-10 -16 -26 -16q-7 0 -13.5 6t-6.5 13z" />
    <glyph glyph-name="Edieresis" unicode="&#xcb;" 
d="M123 -4q-29 -1 -44.5 14t-15.5 43q0 47 2 140t2 142q0 45 -3.5 150t-3.5 161q0 28 15.5 43t44.5 14l145 -3q12 0 20 -8.5t8 -19.5q0 -12 -8.5 -20t-20.5 -8l-144 3q0 -35 1 -75.5t2.5 -90t2.5 -76.5l107 -3q11 0 19 -8.5t8 -19.5q0 -12 -8.5 -20t-20.5 -8l-104 3v-14
q0 -56 -2 -154t-2 -129l145 5q11 0 20 -8t9 -20q0 -11 -8.5 -19t-19.5 -9zM109 769v26q0 13 8.5 21.5t21.5 8.5q12 0 21 -8.5t9 -21.5v-26q0 -13 -9 -21.5t-21 -8.5q-13 0 -21.5 8.5t-8.5 21.5zM204 770v26q0 13 8.5 21.5t21.5 8.5q12 0 21 -8.5t9 -21.5v-26q0 -13 -9 -21.5
t-21 -8.5q-13 0 -21.5 8.5t-8.5 21.5z" />
    <glyph glyph-name="Igrave" unicode="&#xcc;" horiz-adv-x="186" 
d="M96 -11q-12 0 -21 9t-9 21q-2 156 -2 237v133q0 210 -4 291q-1 13 7.5 22t21.5 9t21.5 -8t8.5 -20q5 -103 5 -379q0 -191 2 -284q0 -13 -8.5 -22t-21.5 -9zM16 847q0 23 22 23q12 0 19 -5q47 -32 97 -78q9 -6 9 -21q0 -24 -25 -24q-10 0 -19 7q-56 51 -91 74
q-12 9 -12 24z" />
    <glyph glyph-name="Iacute" unicode="&#xcd;" horiz-adv-x="186" 
d="M96 -11q-12 0 -21 9t-9 21q-2 156 -2 237v133q0 210 -4 291q-1 13 7.5 22t21.5 9t21.5 -8t8.5 -20q5 -103 5 -379q0 -191 2 -284q0 -13 -8.5 -22t-21.5 -9zM16 766q0 15 9 21q50 46 97 78q7 5 19 5q22 0 22 -23q0 -15 -12 -24q-35 -23 -91 -74q-9 -7 -19 -7q-25 0 -25 24
z" />
    <glyph glyph-name="Icircumflex" unicode="&#xce;" horiz-adv-x="186" 
d="M96 -11q-12 0 -21 9t-9 21q-2 156 -2 237v133q0 210 -4 291q-1 13 7.5 22t21.5 9t21.5 -8t8.5 -20q5 -103 5 -379q0 -191 2 -284q0 -13 -8.5 -22t-21.5 -9zM-9 759q0 7 3 13q7 12 26 41t33 52q17 30 37 30q6 0 11.5 -2.5t11.5 -9t10 -12t11 -16t12 -17.5q31 -43 45 -66
q3 -4 3 -12t-6 -14t-14 -6q-15 0 -27 17l-56 85q-4 -7 -14 -22.5t-22.5 -35t-17.5 -28.5q-10 -16 -26 -16q-7 0 -13.5 6t-6.5 13z" />
    <glyph glyph-name="Idieresis" unicode="&#xcf;" horiz-adv-x="186" 
d="M96 -11q-12 0 -21 9t-9 21q-2 156 -2 237v133q0 210 -4 291q-1 13 7.5 22t21.5 9t21.5 -8t8.5 -20q5 -103 5 -379q0 -191 2 -284q0 -13 -8.5 -22t-21.5 -9zM15 769v26q0 13 8.5 21.5t21.5 8.5q12 0 21 -8.5t9 -21.5v-26q0 -13 -9 -21.5t-21 -8.5q-13 0 -21.5 8.5
t-8.5 21.5zM110 770v26q0 13 8.5 21.5t21.5 8.5q12 0 21 -8.5t9 -21.5v-26q0 -13 -9 -21.5t-21 -8.5q-13 0 -21.5 8.5t-8.5 21.5z" />
    <glyph glyph-name="Eth" unicode="&#xd0;" horiz-adv-x="385" 
d="M126 -10q-60 0 -60 62q0 48 -2 276q-23 0 -34 1t-18.5 9t-7.5 19q0 12 9 20.5t21 7.5q5 0 14.5 -0.5t14.5 -1.5l-3 293q0 16 12.5 23t44.5 7q44 0 83 -17t75 -54t57 -106t21 -162q0 -199 -57 -288t-170 -89zM120 650l5 -266q37 2 52 5q13 3 23.5 -5.5t10.5 -21.5
q0 -23 -23 -28q-27 -4 -63 -6q2 -138 2 -188q0 -70 -1 -94q88 0 127 71t39 249q0 152 -49.5 218t-122.5 66z" />
    <glyph glyph-name="Ntilde" unicode="&#xd1;" horiz-adv-x="440" 
d="M346 -11q-30 0 -43 39q-31 85 -97.5 288t-88.5 266v-288t1 -274q0 -12 -8.5 -21t-19.5 -9q-12 0 -20 9t-8 21q-2 180 -2 581v59q1 23 12 36.5t26 13.5q30 0 43 -37q95 -247 178 -526v69q0 76 1.5 212t1.5 183v68q0 13 8 21.5t20 8.5q11 0 19 -8.5t8 -21.5q3 -144 3 -474
v-168q-1 -23 -10.5 -35.5t-23.5 -12.5zM116 788q16 80 69 80q43 0 82 -54q16 -23 27 -23q12 0 11 31q0 12 8.5 21t21.5 9q12 0 21 -8.5t9 -21.5q-1 -40 -21.5 -61t-49.5 -21q-46 0 -76 42q-24 35 -32 35q-9 0 -12 -38q-2 -11 -10 -18.5t-20 -7.5q-14 0 -22.5 11t-5.5 24z
" />
    <glyph glyph-name="Ograve" unicode="&#xd2;" horiz-adv-x="412" 
d="M210 -9q-33 0 -62.5 15.5t-43.5 39.5q-59 103 -59 331q0 205 51 282q39 61 107 61q38 0 72 -20.5t54 -58.5q38 -72 38 -208q0 -141 -21 -289q-11 -79 -49 -116t-87 -37zM105 377q0 -215 51 -303q17 -31 53 -31q26 0 48 26t30 83q20 149 20 281q0 124 -31 182
q-30 53 -71 53q-34 0 -59 -39q-41 -64 -41 -252zM129 847q0 23 22 23q12 0 19 -5q47 -32 97 -78q9 -6 9 -21q0 -24 -25 -24q-10 0 -19 7q-56 51 -91 74q-12 9 -12 24z" />
    <glyph glyph-name="Oacute" unicode="&#xd3;" horiz-adv-x="412" 
d="M210 -9q-33 0 -62.5 15.5t-43.5 39.5q-59 103 -59 331q0 205 51 282q39 61 107 61q38 0 72 -20.5t54 -58.5q38 -72 38 -208q0 -141 -21 -289q-11 -79 -49 -116t-87 -37zM105 377q0 -215 51 -303q17 -31 53 -31q26 0 48 26t30 83q20 149 20 281q0 124 -31 182
q-30 53 -71 53q-34 0 -59 -39q-41 -64 -41 -252zM129 766q0 15 9 21q50 46 97 78q7 5 19 5q22 0 22 -23q0 -15 -12 -24q-35 -23 -91 -74q-9 -7 -19 -7q-25 0 -25 24z" />
    <glyph glyph-name="Ocircumflex" unicode="&#xd4;" horiz-adv-x="412" 
d="M210 -9q-33 0 -62.5 15.5t-43.5 39.5q-59 103 -59 331q0 205 51 282q39 61 107 61q38 0 72 -20.5t54 -58.5q38 -72 38 -208q0 -141 -21 -289q-11 -79 -49 -116t-87 -37zM104 759q0 7 3 13q7 12 26 41t33 52q17 30 37 30q6 0 11.5 -2.5t11.5 -9t10 -12t11 -16t12 -17.5
q31 -43 45 -66q3 -4 3 -12t-6 -14t-14 -6q-15 0 -27 17l-56 85q-4 -7 -14 -22.5t-22.5 -35t-17.5 -28.5q-10 -16 -26 -16q-7 0 -13.5 6t-6.5 13zM105 377q0 -215 51 -303q17 -31 53 -31q26 0 48 26t30 83q20 149 20 281q0 124 -31 182q-30 53 -71 53q-34 0 -59 -39
q-41 -64 -41 -252z" />
    <glyph glyph-name="Otilde" unicode="&#xd5;" horiz-adv-x="412" 
d="M210 -9q-33 0 -62.5 15.5t-43.5 39.5q-59 103 -59 331q0 205 51 282q39 61 107 61q38 0 72 -20.5t54 -58.5q38 -72 38 -208q0 -141 -21 -289q-11 -79 -49 -116t-87 -37zM82 788q16 80 69 80q43 0 82 -54q16 -23 27 -23q12 0 11 31q0 12 8.5 21t21.5 9q12 0 21 -8.5
t9 -21.5q-1 -40 -21.5 -61t-49.5 -21q-46 0 -76 42q-24 35 -32 35q-9 0 -12 -38q-2 -11 -10 -18.5t-20 -7.5q-14 0 -22.5 11t-5.5 24zM105 377q0 -215 51 -303q17 -31 53 -31q26 0 48 26t30 83q20 149 20 281q0 124 -31 182q-30 53 -71 53q-34 0 -59 -39q-41 -64 -41 -252z
" />
    <glyph glyph-name="Odieresis" unicode="&#xd6;" horiz-adv-x="412" 
d="M210 -9q-33 0 -62.5 15.5t-43.5 39.5q-59 103 -59 331q0 205 51 282q39 61 107 61q38 0 72 -20.5t54 -58.5q38 -72 38 -208q0 -141 -21 -289q-11 -79 -49 -116t-87 -37zM105 377q0 -215 51 -303q17 -31 53 -31q26 0 48 26t30 83q20 149 20 281q0 124 -31 182
q-30 53 -71 53q-34 0 -59 -39q-41 -64 -41 -252zM128 769v26q0 13 8.5 21.5t21.5 8.5q12 0 21 -8.5t9 -21.5v-26q0 -13 -9 -21.5t-21 -8.5q-13 0 -21.5 8.5t-8.5 21.5zM223 770v26q0 13 8.5 21.5t21.5 8.5q12 0 21 -8.5t9 -21.5v-26q0 -13 -9 -21.5t-21 -8.5
q-13 0 -21.5 8.5t-8.5 21.5z" />
    <glyph glyph-name="multiply" unicode="&#xd7;" horiz-adv-x="317" 
d="M61 209q-12 0 -20.5 8.5t-8.5 20.5t6 19q10 12 37 45.5t43 52.5q-68 73 -80 84q-8 8 -8 20t8.5 20.5t19.5 8.5t21 -8q49 -49 77 -80q40 48 76 85q10 8 21 8q12 0 20.5 -8.5t8.5 -20.5t-8 -20q-18 -18 -78 -88q55 -59 84 -95q7 -7 7 -19t-8.5 -20.5t-20.5 -8.5
q-13 0 -22 9l-78 89q-30 -36 -75 -91q-8 -11 -22 -11z" />
    <glyph glyph-name="Oslash" unicode="&#xd8;" horiz-adv-x="412" 
d="M210 -9q-33 0 -62.5 15.5t-43.5 39.5q-1 2 -4.5 8.5t-5.5 10.5q-9 -19 -19 -40.5t-11 -24.5q-5 -11 -18 -11q-11 0 -16.5 9t-1.5 18q0 1 48 99q-31 103 -31 262q0 205 51 282q39 61 107 61q79 0 122 -72l24 52q5 11 17 11q8 0 14 -6t6 -14q0 -3 -2 -9l-38 -82
q21 -62 21 -167q0 -141 -21 -289q-11 -79 -49 -116t-87 -37zM105 377q0 -97 12 -173q73 159 103.5 221t71.5 151q-5 16 -16 39q-30 53 -71 53q-34 0 -59 -39q-41 -64 -41 -252zM130 140q10 -37 26 -66q17 -31 53 -31q26 0 48 26t30 83q20 149 20 281q0 42 -3 75
q-102 -219 -174 -368z" />
    <glyph glyph-name="Ugrave" unicode="&#xd9;" horiz-adv-x="396" 
d="M195 -19q-48 0 -85 47t-48 138q-8 69 -8 199q0 61 2 172t2 142q0 13 8.5 21.5t21.5 8.5q12 0 21 -8.5t9 -21.5q0 -32 -2 -142t-2 -170q0 -128 8 -195q8 -69 29.5 -104t48.5 -35q33 0 57.5 48.5t24.5 127.5q0 80 -3 192.5t-3 203.5v74q0 12 8.5 21t21.5 9q12 0 21 -9
t9 -21v-51q0 -103 3 -222t3 -197q0 -102 -44.5 -165t-102.5 -63zM121 847q0 23 22 23q12 0 19 -5q47 -32 97 -78q9 -6 9 -21q0 -24 -25 -24q-10 0 -19 7q-56 51 -91 74q-12 9 -12 24z" />
    <glyph glyph-name="Uacute" unicode="&#xda;" horiz-adv-x="396" 
d="M195 -19q-48 0 -85 47t-48 138q-8 69 -8 199q0 61 2 172t2 142q0 13 8.5 21.5t21.5 8.5q12 0 21 -8.5t9 -21.5q0 -32 -2 -142t-2 -170q0 -128 8 -195q8 -69 29.5 -104t48.5 -35q33 0 57.5 48.5t24.5 127.5q0 80 -3 192.5t-3 203.5v74q0 12 8.5 21t21.5 9q12 0 21 -9
t9 -21v-51q0 -103 3 -222t3 -197q0 -102 -44.5 -165t-102.5 -63zM121 766q0 15 9 21q50 46 97 78q7 5 19 5q22 0 22 -23q0 -15 -12 -24q-35 -23 -91 -74q-9 -7 -19 -7q-25 0 -25 24z" />
    <glyph glyph-name="Ucircumflex" unicode="&#xdb;" horiz-adv-x="396" 
d="M195 -19q-48 0 -85 47t-48 138q-8 69 -8 199q0 61 2 172t2 142q0 13 8.5 21.5t21.5 8.5q12 0 21 -8.5t9 -21.5q0 -32 -2 -142t-2 -170q0 -128 8 -195q8 -69 29.5 -104t48.5 -35q33 0 57.5 48.5t24.5 127.5q0 80 -3 192.5t-3 203.5v74q0 12 8.5 21t21.5 9q12 0 21 -9
t9 -21v-51q0 -103 3 -222t3 -197q0 -102 -44.5 -165t-102.5 -63zM96 759q0 7 3 13q7 12 26 41t33 52q17 30 37 30q6 0 11.5 -2.5t11.5 -9t10 -12t11 -16t12 -17.5q31 -43 45 -66q3 -4 3 -12t-6 -14t-14 -6q-15 0 -27 17l-56 85q-4 -7 -14 -22.5t-22.5 -35t-17.5 -28.5
q-10 -16 -26 -16q-7 0 -13.5 6t-6.5 13z" />
    <glyph glyph-name="Udieresis" unicode="&#xdc;" horiz-adv-x="396" 
d="M195 -19q-48 0 -85 47t-48 138q-8 69 -8 199q0 61 2 172t2 142q0 13 8.5 21.5t21.5 8.5q12 0 21 -8.5t9 -21.5q0 -32 -2 -142t-2 -170q0 -128 8 -195q8 -69 29.5 -104t48.5 -35q33 0 57.5 48.5t24.5 127.5q0 80 -3 192.5t-3 203.5v74q0 12 8.5 21t21.5 9q12 0 21 -9
t9 -21v-51q0 -103 3 -222t3 -197q0 -102 -44.5 -165t-102.5 -63zM120 769v26q0 13 8.5 21.5t21.5 8.5q12 0 21 -8.5t9 -21.5v-26q0 -13 -9 -21.5t-21 -8.5q-13 0 -21.5 8.5t-8.5 21.5zM215 770v26q0 13 8.5 21.5t21.5 8.5q12 0 21 -8.5t9 -21.5v-26q0 -13 -9 -21.5t-21 -8.5
q-13 0 -21.5 8.5t-8.5 21.5z" />
    <glyph glyph-name="Yacute" unicode="&#xdd;" horiz-adv-x="393" 
d="M205 -10q-12 0 -20.5 8t-9.5 19q-4 50 -4 173v173l-161 301q-4 7 -4 15q0 12 9 20.5t21 8.5q18 0 26 -15l144 -274l127 275q7 16 27 16q12 0 19.5 -9t7.5 -21q0 -8 -3 -14q-143 -287 -153 -305v-171t4 -168q1 -13 -8 -22.5t-22 -9.5zM120 766q0 15 9 21q50 46 97 78
q7 5 19 5q22 0 22 -23q0 -15 -12 -24q-35 -23 -91 -74q-9 -7 -19 -7q-25 0 -25 24z" />
    <glyph glyph-name="Thorn" unicode="&#xde;" horiz-adv-x="316" 
d="M93 -11q-13 0 -21.5 8.5t-8.5 21.5v55q0 58 -1.5 187.5t-1.5 186.5q0 175 9 238q4 25 29 25q13 0 22.5 -10t7.5 -24q-5 -37 -7 -136q82 -3 129.5 -41t47.5 -110q0 -76 -50.5 -133t-124.5 -68v-111v-59q0 -13 -8.5 -21.5t-21.5 -8.5zM121 461q0 -31 0.5 -104t0.5 -112
q50 8 83 48.5t33 96.5q0 94 -117 96v-25z" />
    <glyph glyph-name="germandbls" unicode="&#xdf;" horiz-adv-x="461" 
d="M296 -20q-54 0 -95.5 38.5t-41.5 63.5q0 12 8.5 21t21.5 9q19 0 26 -17q31 -64 83 -64q32 0 55 31t23 87q0 47 -33 97.5t-126 142.5q-17 17 -6 35l128 226q-12 0 -92.5 3t-123.5 1q0 -88 -2 -303.5t0 -332.5q0 -12 -9 -21t-21 -9q-13 0 -21.5 9t-8.5 21q-2 63 0 330
t2 330q0 29 30 31q42 0 89.5 -0.5t105 -1.5t89.5 -1q22 0 32.5 -16t-0.5 -37l-136 -241q88 -80 126 -141.5t38 -118.5q-1 -81 -42 -126.5t-99 -45.5z" />
    <glyph glyph-name="agrave" unicode="&#xe0;" horiz-adv-x="376" 
d="M84 -11q-13 0 -21.5 8.5t-8.5 21.5q3 296 15 405q17 163 42 228.5t77 65.5q107 0 123 -276q11 -178 11 -295v-128q0 -12 -8.5 -21t-21.5 -9q-12 0 -21 9t-9 21q-2 225 -3 261q-38 -6 -87 -6q-18 0 -54 2q0 -13 -4 -257q0 -13 -9 -21.5t-21 -8.5zM111 847q0 23 22 23
q12 0 19 -5q47 -32 97 -78q9 -6 9 -21q0 -24 -25 -24q-10 0 -19 7q-56 51 -91 74q-12 9 -12 24zM121 331q18 -1 53 -1q49 0 82 6h1q-1 27 -6 103q-13 223 -63 223q-12 0 -21 -20t-19 -74t-20 -150q-3 -30 -7 -87z" />
    <glyph glyph-name="aacute" unicode="&#xe1;" horiz-adv-x="376" 
d="M84 -11q-13 0 -21.5 8.5t-8.5 21.5q3 296 15 405q17 163 42 228.5t77 65.5q107 0 123 -276q11 -178 11 -295v-128q0 -12 -8.5 -21t-21.5 -9q-12 0 -21 9t-9 21q-2 225 -3 261q-38 -6 -87 -6q-18 0 -54 2q0 -13 -4 -257q0 -13 -9 -21.5t-21 -8.5zM111 766q0 15 9 21
q50 46 97 78q7 5 19 5q22 0 22 -23q0 -15 -12 -24q-35 -23 -91 -74q-9 -7 -19 -7q-25 0 -25 24zM121 331q18 -1 53 -1q49 0 82 6h1q-1 27 -6 103q-13 223 -63 223q-12 0 -21 -20t-19 -74t-20 -150q-3 -30 -7 -87z" />
    <glyph glyph-name="acircumflex" unicode="&#xe2;" horiz-adv-x="376" 
d="M84 -11q-13 0 -21.5 8.5t-8.5 21.5q3 296 15 405q17 163 42 228.5t77 65.5q107 0 123 -276q11 -178 11 -295v-128q0 -12 -8.5 -21t-21.5 -9q-12 0 -21 9t-9 21q-2 225 -3 261q-38 -6 -87 -6q-18 0 -54 2q0 -13 -4 -257q0 -13 -9 -21.5t-21 -8.5zM86 759q0 7 3 13
q7 12 26 41t33 52q17 30 37 30q6 0 11.5 -2.5t11.5 -9t10 -12t11 -16t12 -17.5q31 -43 45 -66q3 -4 3 -12t-6 -14t-14 -6q-15 0 -27 17l-56 85q-4 -7 -14 -22.5t-22.5 -35t-17.5 -28.5q-10 -16 -26 -16q-7 0 -13.5 6t-6.5 13zM121 331q18 -1 53 -1q49 0 82 6h1q-1 27 -6 103
q-13 223 -63 223q-12 0 -21 -20t-19 -74t-20 -150q-3 -30 -7 -87z" />
    <glyph glyph-name="atilde" unicode="&#xe3;" horiz-adv-x="376" 
d="M84 -11q-13 0 -21.5 8.5t-8.5 21.5q3 296 15 405q17 163 42 228.5t77 65.5q107 0 123 -276q11 -178 11 -295v-128q0 -12 -8.5 -21t-21.5 -9q-12 0 -21 9t-9 21q-2 225 -3 261q-38 -6 -87 -6q-18 0 -54 2q0 -13 -4 -257q0 -13 -9 -21.5t-21 -8.5zM64 788q16 80 69 80
q43 0 82 -54q16 -23 27 -23q12 0 11 31q0 12 8.5 21t21.5 9q12 0 21 -8.5t9 -21.5q-1 -40 -21.5 -61t-49.5 -21q-46 0 -76 42q-24 35 -32 35q-9 0 -12 -38q-2 -11 -10 -18.5t-20 -7.5q-14 0 -22.5 11t-5.5 24zM121 331q18 -1 53 -1q49 0 82 6h1q-1 27 -6 103
q-13 223 -63 223q-12 0 -21 -20t-19 -74t-20 -150q-3 -30 -7 -87z" />
    <glyph glyph-name="adieresis" unicode="&#xe4;" horiz-adv-x="376" 
d="M84 -11q-13 0 -21.5 8.5t-8.5 21.5q3 296 15 405q17 163 42 228.5t77 65.5q107 0 123 -276q11 -178 11 -295v-128q0 -12 -8.5 -21t-21.5 -9q-12 0 -21 9t-9 21q-2 225 -3 261q-38 -6 -87 -6q-18 0 -54 2q0 -13 -4 -257q0 -13 -9 -21.5t-21 -8.5zM110 769v26
q0 13 8.5 21.5t21.5 8.5q12 0 21 -8.5t9 -21.5v-26q0 -13 -9 -21.5t-21 -8.5q-13 0 -21.5 8.5t-8.5 21.5zM121 331q18 -1 53 -1q49 0 82 6h1q-1 27 -6 103q-13 223 -63 223q-12 0 -21 -20t-19 -74t-20 -150q-3 -30 -7 -87zM205 770v26q0 13 8.5 21.5t21.5 8.5q12 0 21 -8.5
t9 -21.5v-26q0 -13 -9 -21.5t-21 -8.5q-13 0 -21.5 8.5t-8.5 21.5z" />
    <glyph glyph-name="aring" unicode="&#xe5;" horiz-adv-x="376" 
d="M84 -11q-13 0 -21.5 8.5t-8.5 21.5q3 296 15 405q17 163 42 228.5t77 65.5q107 0 123 -276q11 -178 11 -295v-128q0 -12 -8.5 -21t-21.5 -9q-12 0 -21 9t-9 21q-2 225 -3 261q-38 -6 -87 -6q-18 0 -54 2q0 -13 -4 -257q0 -13 -9 -21.5t-21 -8.5zM117 826q0 32 19 55.5
t45 23.5q31 0 56 -24t25 -65q0 -32 -22.5 -54t-51.5 -22t-50 23.5t-21 62.5zM121 331q18 -1 53 -1q49 0 82 6h1q-1 27 -6 103q-13 223 -63 223q-12 0 -21 -20t-19 -74t-20 -150q-3 -30 -7 -87zM168 836q0 -55 19 -55q24 0 24 31q0 52 -23 52q-20 0 -20 -28z" />
    <glyph glyph-name="ae" unicode="&#xe6;" horiz-adv-x="499" 
d="M84 -11q-13 0 -21.5 8.5t-8.5 21.5q3 296 15 405q17 163 41.5 224t77.5 61l108 -1h1l134 -3q12 0 20 -8.5t8 -19.5q0 -12 -8.5 -20t-20.5 -8l-144 3q0 -8 6 -247l107 -3q11 0 19 -8.5t8 -19.5q0 -12 -8.5 -20t-20.5 -8l-104 3v-14q0 -56 -2 -156.5t-2 -130.5l145 5
q11 0 20 -8t9 -20q0 -11 -8.5 -19t-19.5 -9l-146 -5q-29 -1 -44.5 14t-15.5 43q0 43 2 122t2 105q-38 -2 -61 -2q-18 0 -54 2q0 -13 -4 -257q0 -13 -9 -21.5t-21 -8.5zM121 331q18 -1 53 -1q34 0 59 3v2q0 44 -3.5 150.5t-3.5 165.5q-17 -1 -38 -1q-13 0 -21.5 -15.5
t-18.5 -67.5t-20 -149q-3 -30 -7 -87z" />
    <glyph glyph-name="ccedilla" unicode="&#xe7;" horiz-adv-x="338" 
d="M159 -199q-27 0 -55 6q-22 5 -22 27q0 14 11 22.5t23 5.5q32 -8 50 -8q39 0 39 26q0 17 -14 17q-6 0 -18 -3q-21 -6 -35 -6q-28 0 -28 24q0 15 25 40l31 30q-34 6 -61 37.5t-40 87.5q-20 86 -20 215q0 66 7 176q10 127 43.5 174.5t82.5 47.5q36 0 62 -20t56 -63
q5 -8 5 -16q0 -13 -8.5 -21.5t-21.5 -8.5q-16 0 -24 13q-24 36 -37.5 48t-31.5 12t-28.5 -9.5t-21.5 -48.5t-16 -112q-7 -112 -7 -175q0 -123 18 -199q20 -87 62 -87q24 0 44.5 31.5t28.5 84.5q2 11 10 18.5t19 7.5q15 0 23.5 -11t6.5 -24q-12 -67 -46.5 -109t-76.5 -49
l-30 -46q49 14 74.5 -4.5t26.5 -51.5q0 -38 -29 -58.5t-77 -20.5z" />
    <glyph glyph-name="egrave" unicode="&#xe8;" 
d="M123 -4q-29 -1 -44.5 14t-15.5 43q0 47 2 140t2 142q0 45 -3.5 150t-3.5 161q0 28 15.5 43t44.5 14l145 -3q12 0 20 -8.5t8 -19.5q0 -12 -8.5 -20t-20.5 -8l-144 3q0 -35 1 -75.5t2.5 -90t2.5 -76.5l107 -3q11 0 19 -8.5t8 -19.5q0 -12 -8.5 -20t-20.5 -8l-104 3v-14
q0 -56 -2 -154t-2 -129l145 5q11 0 20 -8t9 -20q0 -11 -8.5 -19t-19.5 -9zM110 847q0 23 22 23q12 0 19 -5q47 -32 97 -78q9 -6 9 -21q0 -24 -25 -24q-10 0 -19 7q-56 51 -91 74q-12 9 -12 24z" />
    <glyph glyph-name="eacute" unicode="&#xe9;" 
d="M123 -4q-29 -1 -44.5 14t-15.5 43q0 47 2 140t2 142q0 45 -3.5 150t-3.5 161q0 28 15.5 43t44.5 14l145 -3q12 0 20 -8.5t8 -19.5q0 -12 -8.5 -20t-20.5 -8l-144 3q0 -35 1 -75.5t2.5 -90t2.5 -76.5l107 -3q11 0 19 -8.5t8 -19.5q0 -12 -8.5 -20t-20.5 -8l-104 3v-14
q0 -56 -2 -154t-2 -129l145 5q11 0 20 -8t9 -20q0 -11 -8.5 -19t-19.5 -9zM110 766q0 15 9 21q50 46 97 78q7 5 19 5q22 0 22 -23q0 -15 -12 -24q-35 -23 -91 -74q-9 -7 -19 -7q-25 0 -25 24z" />
    <glyph glyph-name="ecircumflex" unicode="&#xea;" 
d="M123 -4q-29 -1 -44.5 14t-15.5 43q0 47 2 140t2 142q0 45 -3.5 150t-3.5 161q0 28 15.5 43t44.5 14l145 -3q12 0 20 -8.5t8 -19.5q0 -12 -8.5 -20t-20.5 -8l-144 3q0 -35 1 -75.5t2.5 -90t2.5 -76.5l107 -3q11 0 19 -8.5t8 -19.5q0 -12 -8.5 -20t-20.5 -8l-104 3v-14
q0 -56 -2 -154t-2 -129l145 5q11 0 20 -8t9 -20q0 -11 -8.5 -19t-19.5 -9zM85 759q0 7 3 13q7 12 26 41t33 52q17 30 37 30q6 0 11.5 -2.5t11.5 -9t10 -12t11 -16t12 -17.5q31 -43 45 -66q3 -4 3 -12t-6 -14t-14 -6q-15 0 -27 17l-56 85q-4 -7 -14 -22.5t-22.5 -35
t-17.5 -28.5q-10 -16 -26 -16q-7 0 -13.5 6t-6.5 13z" />
    <glyph glyph-name="edieresis" unicode="&#xeb;" 
d="M123 -4q-29 -1 -44.5 14t-15.5 43q0 47 2 140t2 142q0 45 -3.5 150t-3.5 161q0 28 15.5 43t44.5 14l145 -3q12 0 20 -8.5t8 -19.5q0 -12 -8.5 -20t-20.5 -8l-144 3q0 -35 1 -75.5t2.5 -90t2.5 -76.5l107 -3q11 0 19 -8.5t8 -19.5q0 -12 -8.5 -20t-20.5 -8l-104 3v-14
q0 -56 -2 -154t-2 -129l145 5q11 0 20 -8t9 -20q0 -11 -8.5 -19t-19.5 -9zM109 769v26q0 13 8.5 21.5t21.5 8.5q12 0 21 -8.5t9 -21.5v-26q0 -13 -9 -21.5t-21 -8.5q-13 0 -21.5 8.5t-8.5 21.5zM204 770v26q0 13 8.5 21.5t21.5 8.5q12 0 21 -8.5t9 -21.5v-26q0 -13 -9 -21.5
t-21 -8.5q-13 0 -21.5 8.5t-8.5 21.5z" />
    <glyph glyph-name="igrave" unicode="&#xec;" horiz-adv-x="186" 
d="M96 -11q-12 0 -21 9t-9 21q-2 156 -2 237v133q0 210 -4 291q-1 13 7.5 22t21.5 9t21.5 -8t8.5 -20q5 -103 5 -379q0 -191 2 -284q0 -13 -8.5 -22t-21.5 -9zM16 847q0 23 22 23q12 0 19 -5q47 -32 97 -78q9 -6 9 -21q0 -24 -25 -24q-10 0 -19 7q-56 51 -91 74
q-12 9 -12 24z" />
    <glyph glyph-name="iacute" unicode="&#xed;" horiz-adv-x="186" 
d="M96 -11q-12 0 -21 9t-9 21q-2 156 -2 237v133q0 210 -4 291q-1 13 7.5 22t21.5 9t21.5 -8t8.5 -20q5 -103 5 -379q0 -191 2 -284q0 -13 -8.5 -22t-21.5 -9zM16 766q0 15 9 21q50 46 97 78q7 5 19 5q22 0 22 -23q0 -15 -12 -24q-35 -23 -91 -74q-9 -7 -19 -7q-25 0 -25 24
z" />
    <glyph glyph-name="icircumflex" unicode="&#xee;" horiz-adv-x="186" 
d="M96 -11q-12 0 -21 9t-9 21q-2 156 -2 237v133q0 210 -4 291q-1 13 7.5 22t21.5 9t21.5 -8t8.5 -20q5 -103 5 -379q0 -191 2 -284q0 -13 -8.5 -22t-21.5 -9zM-9 759q0 7 3 13q7 12 26 41t33 52q17 30 37 30q6 0 11.5 -2.5t11.5 -9t10 -12t11 -16t12 -17.5q31 -43 45 -66
q3 -4 3 -12t-6 -14t-14 -6q-15 0 -27 17l-56 85q-4 -7 -14 -22.5t-22.5 -35t-17.5 -28.5q-10 -16 -26 -16q-7 0 -13.5 6t-6.5 13z" />
    <glyph glyph-name="idieresis" unicode="&#xef;" horiz-adv-x="186" 
d="M96 -11q-12 0 -21 9t-9 21q-2 156 -2 237v133q0 210 -4 291q-1 13 7.5 22t21.5 9t21.5 -8t8.5 -20q5 -103 5 -379q0 -191 2 -284q0 -13 -8.5 -22t-21.5 -9zM15 769v26q0 13 8.5 21.5t21.5 8.5q12 0 21 -8.5t9 -21.5v-26q0 -13 -9 -21.5t-21 -8.5q-13 0 -21.5 8.5
t-8.5 21.5zM110 770v26q0 13 8.5 21.5t21.5 8.5q12 0 21 -8.5t9 -21.5v-26q0 -13 -9 -21.5t-21 -8.5q-13 0 -21.5 8.5t-8.5 21.5z" />
    <glyph glyph-name="eth" unicode="&#xf0;" horiz-adv-x="385" 
d="M126 -10q-60 0 -60 62q0 48 -2 276q-23 0 -34 1t-18.5 9t-7.5 19q0 12 9 20.5t21 7.5q5 0 14.5 -0.5t14.5 -1.5l-3 293q0 16 12.5 23t44.5 7q44 0 83 -17t75 -54t57 -106t21 -162q0 -199 -57 -288t-170 -89zM120 650l5 -266q37 2 52 5q13 3 23.5 -5.5t10.5 -21.5
q0 -23 -23 -28q-27 -4 -63 -6q2 -138 2 -188q0 -70 -1 -94q88 0 127 71t39 249q0 152 -49.5 218t-122.5 66z" />
    <glyph glyph-name="ntilde" unicode="&#xf1;" horiz-adv-x="440" 
d="M346 -11q-30 0 -43 39q-31 85 -97.5 288t-88.5 266v-288t1 -274q0 -12 -8.5 -21t-19.5 -9q-12 0 -20 9t-8 21q-2 180 -2 581v59q1 23 12 36.5t26 13.5q30 0 43 -37q95 -247 178 -526v69q0 76 1.5 212t1.5 183v68q0 13 8 21.5t20 8.5q11 0 19 -8.5t8 -21.5q3 -144 3 -474
v-168q-1 -23 -10.5 -35.5t-23.5 -12.5zM116 788q16 80 69 80q43 0 82 -54q16 -23 27 -23q12 0 11 31q0 12 8.5 21t21.5 9q12 0 21 -8.5t9 -21.5q-1 -40 -21.5 -61t-49.5 -21q-46 0 -76 42q-24 35 -32 35q-9 0 -12 -38q-2 -11 -10 -18.5t-20 -7.5q-14 0 -22.5 11t-5.5 24z
" />
    <glyph glyph-name="ograve" unicode="&#xf2;" horiz-adv-x="412" 
d="M210 -9q-33 0 -62.5 15.5t-43.5 39.5q-59 103 -59 331q0 205 51 282q39 61 107 61q38 0 72 -20.5t54 -58.5q38 -72 38 -208q0 -141 -21 -289q-11 -79 -49 -116t-87 -37zM105 377q0 -215 51 -303q17 -31 53 -31q26 0 48 26t30 83q20 149 20 281q0 124 -31 182
q-30 53 -71 53q-34 0 -59 -39q-41 -64 -41 -252zM129 847q0 23 22 23q12 0 19 -5q47 -32 97 -78q9 -6 9 -21q0 -24 -25 -24q-10 0 -19 7q-56 51 -91 74q-12 9 -12 24z" />
    <glyph glyph-name="oacute" unicode="&#xf3;" horiz-adv-x="412" 
d="M210 -9q-33 0 -62.5 15.5t-43.5 39.5q-59 103 -59 331q0 205 51 282q39 61 107 61q38 0 72 -20.5t54 -58.5q38 -72 38 -208q0 -141 -21 -289q-11 -79 -49 -116t-87 -37zM105 377q0 -215 51 -303q17 -31 53 -31q26 0 48 26t30 83q20 149 20 281q0 124 -31 182
q-30 53 -71 53q-34 0 -59 -39q-41 -64 -41 -252zM129 766q0 15 9 21q50 46 97 78q7 5 19 5q22 0 22 -23q0 -15 -12 -24q-35 -23 -91 -74q-9 -7 -19 -7q-25 0 -25 24z" />
    <glyph glyph-name="ocircumflex" unicode="&#xf4;" horiz-adv-x="412" 
d="M210 -9q-33 0 -62.5 15.5t-43.5 39.5q-59 103 -59 331q0 205 51 282q39 61 107 61q38 0 72 -20.5t54 -58.5q38 -72 38 -208q0 -141 -21 -289q-11 -79 -49 -116t-87 -37zM104 759q0 7 3 13q7 12 26 41t33 52q17 30 37 30q6 0 11.5 -2.5t11.5 -9t10 -12t11 -16t12 -17.5
q31 -43 45 -66q3 -4 3 -12t-6 -14t-14 -6q-15 0 -27 17l-56 85q-4 -7 -14 -22.5t-22.5 -35t-17.5 -28.5q-10 -16 -26 -16q-7 0 -13.5 6t-6.5 13zM105 377q0 -215 51 -303q17 -31 53 -31q26 0 48 26t30 83q20 149 20 281q0 124 -31 182q-30 53 -71 53q-34 0 -59 -39
q-41 -64 -41 -252z" />
    <glyph glyph-name="otilde" unicode="&#xf5;" horiz-adv-x="412" 
d="M210 -9q-33 0 -62.5 15.5t-43.5 39.5q-59 103 -59 331q0 205 51 282q39 61 107 61q38 0 72 -20.5t54 -58.5q38 -72 38 -208q0 -141 -21 -289q-11 -79 -49 -116t-87 -37zM82 788q16 80 69 80q43 0 82 -54q16 -23 27 -23q12 0 11 31q0 12 8.5 21t21.5 9q12 0 21 -8.5
t9 -21.5q-1 -40 -21.5 -61t-49.5 -21q-46 0 -76 42q-24 35 -32 35q-9 0 -12 -38q-2 -11 -10 -18.5t-20 -7.5q-14 0 -22.5 11t-5.5 24zM105 377q0 -215 51 -303q17 -31 53 -31q26 0 48 26t30 83q20 149 20 281q0 124 -31 182q-30 53 -71 53q-34 0 -59 -39q-41 -64 -41 -252z
" />
    <glyph glyph-name="odieresis" unicode="&#xf6;" horiz-adv-x="412" 
d="M210 -9q-33 0 -62.5 15.5t-43.5 39.5q-59 103 -59 331q0 205 51 282q39 61 107 61q38 0 72 -20.5t54 -58.5q38 -72 38 -208q0 -141 -21 -289q-11 -79 -49 -116t-87 -37zM105 377q0 -215 51 -303q17 -31 53 -31q26 0 48 26t30 83q20 149 20 281q0 124 -31 182
q-30 53 -71 53q-34 0 -59 -39q-41 -64 -41 -252zM128 769v26q0 13 8.5 21.5t21.5 8.5q12 0 21 -8.5t9 -21.5v-26q0 -13 -9 -21.5t-21 -8.5q-13 0 -21.5 8.5t-8.5 21.5zM223 770v26q0 13 8.5 21.5t21.5 8.5q12 0 21 -8.5t9 -21.5v-26q0 -13 -9 -21.5t-21 -8.5
q-13 0 -21.5 8.5t-8.5 21.5z" />
    <glyph glyph-name="divide" unicode="&#xf7;" horiz-adv-x="302" 
d="M59 326q-12 0 -20.5 8.5t-8.5 19.5q0 12 8.5 20t19.5 8q29 1 98 3t87 2q12 0 20.5 -8.5t8.5 -19.5q0 -12 -8.5 -20t-19.5 -8q-17 0 -86 -2t-99 -3zM100 219q0 20 17 35q13 12 31 12q15 0 32 -10q23 -16 23 -40q0 -17 -13 -31q-14 -15 -37 -15q-21 0 -38 15q-15 17 -15 34
zM105 481q0 3 0.5 7t0.5 7q9 41 44 41q20 0 34 -15q13 -16 13 -32q0 -14 -8 -27q-15 -21 -41 -21q-18 0 -30.5 10.5t-12.5 29.5z" />
    <glyph glyph-name="oslash" unicode="&#xf8;" horiz-adv-x="412" 
d="M210 -9q-33 0 -62.5 15.5t-43.5 39.5q-1 2 -4.5 8.5t-5.5 10.5q-9 -19 -19 -40.5t-11 -24.5q-5 -11 -18 -11q-11 0 -16.5 9t-1.5 18q0 1 48 99q-31 103 -31 262q0 205 51 282q39 61 107 61q79 0 122 -72l24 52q5 11 17 11q8 0 14 -6t6 -14q0 -3 -2 -9l-38 -82
q21 -62 21 -167q0 -141 -21 -289q-11 -79 -49 -116t-87 -37zM105 377q0 -97 12 -173q73 159 103.5 221t71.5 151q-5 16 -16 39q-30 53 -71 53q-34 0 -59 -39q-41 -64 -41 -252zM130 140q10 -37 26 -66q17 -31 53 -31q26 0 48 26t30 83q20 149 20 281q0 42 -3 75
q-102 -219 -174 -368z" />
    <glyph glyph-name="ugrave" unicode="&#xf9;" horiz-adv-x="396" 
d="M195 -19q-48 0 -85 47t-48 138q-8 69 -8 199q0 61 2 172t2 142q0 13 8.5 21.5t21.5 8.5q12 0 21 -8.5t9 -21.5q0 -32 -2 -142t-2 -170q0 -128 8 -195q8 -69 29.5 -104t48.5 -35q33 0 57.5 48.5t24.5 127.5q0 80 -3 192.5t-3 203.5v74q0 12 8.5 21t21.5 9q12 0 21 -9
t9 -21v-51q0 -103 3 -222t3 -197q0 -102 -44.5 -165t-102.5 -63zM121 847q0 23 22 23q12 0 19 -5q47 -32 97 -78q9 -6 9 -21q0 -24 -25 -24q-10 0 -19 7q-56 51 -91 74q-12 9 -12 24z" />
    <glyph glyph-name="uacute" unicode="&#xfa;" horiz-adv-x="396" 
d="M195 -19q-48 0 -85 47t-48 138q-8 69 -8 199q0 61 2 172t2 142q0 13 8.5 21.5t21.5 8.5q12 0 21 -8.5t9 -21.5q0 -32 -2 -142t-2 -170q0 -128 8 -195q8 -69 29.5 -104t48.5 -35q33 0 57.5 48.5t24.5 127.5q0 80 -3 192.5t-3 203.5v74q0 12 8.5 21t21.5 9q12 0 21 -9
t9 -21v-51q0 -103 3 -222t3 -197q0 -102 -44.5 -165t-102.5 -63zM121 766q0 15 9 21q50 46 97 78q7 5 19 5q22 0 22 -23q0 -15 -12 -24q-35 -23 -91 -74q-9 -7 -19 -7q-25 0 -25 24z" />
    <glyph glyph-name="ucircumflex" unicode="&#xfb;" horiz-adv-x="396" 
d="M195 -19q-48 0 -85 47t-48 138q-8 69 -8 199q0 61 2 172t2 142q0 13 8.5 21.5t21.5 8.5q12 0 21 -8.5t9 -21.5q0 -32 -2 -142t-2 -170q0 -128 8 -195q8 -69 29.5 -104t48.5 -35q33 0 57.5 48.5t24.5 127.5q0 80 -3 192.5t-3 203.5v74q0 12 8.5 21t21.5 9q12 0 21 -9
t9 -21v-51q0 -103 3 -222t3 -197q0 -102 -44.5 -165t-102.5 -63zM96 759q0 7 3 13q7 12 26 41t33 52q17 30 37 30q6 0 11.5 -2.5t11.5 -9t10 -12t11 -16t12 -17.5q31 -43 45 -66q3 -4 3 -12t-6 -14t-14 -6q-15 0 -27 17l-56 85q-4 -7 -14 -22.5t-22.5 -35t-17.5 -28.5
q-10 -16 -26 -16q-7 0 -13.5 6t-6.5 13z" />
    <glyph glyph-name="udieresis" unicode="&#xfc;" horiz-adv-x="396" 
d="M195 -19q-48 0 -85 47t-48 138q-8 69 -8 199q0 61 2 172t2 142q0 13 8.5 21.5t21.5 8.5q12 0 21 -8.5t9 -21.5q0 -32 -2 -142t-2 -170q0 -128 8 -195q8 -69 29.5 -104t48.5 -35q33 0 57.5 48.5t24.5 127.5q0 80 -3 192.5t-3 203.5v74q0 12 8.5 21t21.5 9q12 0 21 -9
t9 -21v-51q0 -103 3 -222t3 -197q0 -102 -44.5 -165t-102.5 -63zM120 769v26q0 13 8.5 21.5t21.5 8.5q12 0 21 -8.5t9 -21.5v-26q0 -13 -9 -21.5t-21 -8.5q-13 0 -21.5 8.5t-8.5 21.5zM215 770v26q0 13 8.5 21.5t21.5 8.5q12 0 21 -8.5t9 -21.5v-26q0 -13 -9 -21.5t-21 -8.5
q-13 0 -21.5 8.5t-8.5 21.5z" />
    <glyph glyph-name="yacute" unicode="&#xfd;" horiz-adv-x="393" 
d="M205 -10q-12 0 -20.5 8t-9.5 19q-4 50 -4 173v173l-161 301q-4 7 -4 15q0 12 9 20.5t21 8.5q18 0 26 -15l144 -274l127 275q7 16 27 16q12 0 19.5 -9t7.5 -21q0 -8 -3 -14q-143 -287 -153 -305v-171t4 -168q1 -13 -8 -22.5t-22 -9.5zM120 766q0 15 9 21q50 46 97 78
q7 5 19 5q22 0 22 -23q0 -15 -12 -24q-35 -23 -91 -74q-9 -7 -19 -7q-25 0 -25 24z" />
    <glyph glyph-name="thorn" unicode="&#xfe;" horiz-adv-x="316" 
d="M93 -11q-13 0 -21.5 8.5t-8.5 21.5v55q0 58 -1.5 187.5t-1.5 186.5q0 175 9 238q4 25 29 25q13 0 22.5 -10t7.5 -24q-5 -37 -7 -136q82 -3 129.5 -41t47.5 -110q0 -76 -50.5 -133t-124.5 -68v-111v-59q0 -13 -8.5 -21.5t-21.5 -8.5zM121 461q0 -31 0.5 -104t0.5 -112
q50 8 83 48.5t33 96.5q0 94 -117 96v-25z" />
    <glyph glyph-name="ydieresis" unicode="&#xff;" horiz-adv-x="393" 
d="M205 -10q-12 0 -20.5 8t-9.5 19q-4 50 -4 173v173l-161 301q-4 7 -4 15q0 12 9 20.5t21 8.5q18 0 26 -15l144 -274l127 275q7 16 27 16q12 0 19.5 -9t7.5 -21q0 -8 -3 -14q-143 -287 -153 -305v-171t4 -168q1 -13 -8 -22.5t-22 -9.5zM119 769v26q0 13 8.5 21.5t21.5 8.5
q12 0 21 -8.5t9 -21.5v-26q0 -13 -9 -21.5t-21 -8.5q-13 0 -21.5 8.5t-8.5 21.5zM214 770v26q0 13 8.5 21.5t21.5 8.5q12 0 21 -8.5t9 -21.5v-26q0 -13 -9 -21.5t-21 -8.5q-13 0 -21.5 8.5t-8.5 21.5z" />
    <glyph glyph-name="Amacron" unicode="&#x100;" horiz-adv-x="376" 
d="M84 -11q-13 0 -21.5 8.5t-8.5 21.5q3 296 15 405q17 163 42 228.5t77 65.5q107 0 123 -276q11 -178 11 -295v-128q0 -12 -8.5 -21t-21.5 -9q-12 0 -21 9t-9 21q-2 225 -3 261q-38 -6 -87 -6q-18 0 -54 2q0 -13 -4 -257q0 -13 -9 -21.5t-21 -8.5zM104 768q0 11 8.5 19
t19.5 9q58 2 113 2q12 0 20 -8t8 -20q0 -11 -8 -19.5t-19 -8.5q-14 0 -56.5 -1t-58.5 -1q-10 0 -18.5 8t-8.5 20zM121 331q18 -1 53 -1q49 0 82 6h1q-1 27 -6 103q-13 223 -63 223q-12 0 -21 -20t-19 -74t-20 -150q-3 -30 -7 -87z" />
    <glyph glyph-name="amacron" unicode="&#x101;" horiz-adv-x="376" 
d="M84 -11q-13 0 -21.5 8.5t-8.5 21.5q3 296 15 405q17 163 42 228.5t77 65.5q107 0 123 -276q11 -178 11 -295v-128q0 -12 -8.5 -21t-21.5 -9q-12 0 -21 9t-9 21q-2 225 -3 261q-38 -6 -87 -6q-18 0 -54 2q0 -13 -4 -257q0 -13 -9 -21.5t-21 -8.5zM104 768q0 11 8.5 19
t19.5 9q58 2 113 2q12 0 20 -8t8 -20q0 -11 -8 -19.5t-19 -8.5q-14 0 -56.5 -1t-58.5 -1q-10 0 -18.5 8t-8.5 20zM121 331q18 -1 53 -1q49 0 82 6h1q-1 27 -6 103q-13 223 -63 223q-12 0 -21 -20t-19 -74t-20 -150q-3 -30 -7 -87z" />
    <glyph glyph-name="Abreve" unicode="&#x102;" horiz-adv-x="376" 
d="M84 -11q-13 0 -21.5 8.5t-8.5 21.5q3 296 15 405q17 163 42 228.5t77 65.5q107 0 123 -276q11 -178 11 -295v-128q0 -12 -8.5 -21t-21.5 -9q-12 0 -21 9t-9 21q-2 225 -3 261q-38 -6 -87 -6q-18 0 -54 2q0 -13 -4 -257q0 -13 -9 -21.5t-21 -8.5zM95 821q0 25 25 25
q16 0 26 -21q21 -34 42 -34q13 0 21.5 7.5t21.5 26.5q9 18 28 18q21 0 21 -25q0 -4 -2 -12q-29 -66 -90 -66q-66 0 -91 72q-2 6 -2 9zM121 331q18 -1 53 -1q49 0 82 6h1q-1 27 -6 103q-13 223 -63 223q-12 0 -21 -20t-19 -74t-20 -150q-3 -30 -7 -87z" />
    <glyph glyph-name="abreve" unicode="&#x103;" horiz-adv-x="376" 
d="M84 -11q-13 0 -21.5 8.5t-8.5 21.5q3 296 15 405q17 163 42 228.5t77 65.5q107 0 123 -276q11 -178 11 -295v-128q0 -12 -8.5 -21t-21.5 -9q-12 0 -21 9t-9 21q-2 225 -3 261q-38 -6 -87 -6q-18 0 -54 2q0 -13 -4 -257q0 -13 -9 -21.5t-21 -8.5zM95 821q0 25 25 25
q16 0 26 -21q21 -34 42 -34q13 0 21.5 7.5t21.5 26.5q9 18 28 18q21 0 21 -25q0 -4 -2 -12q-29 -66 -90 -66q-66 0 -91 72q-2 6 -2 9zM121 331q18 -1 53 -1q49 0 82 6h1q-1 27 -6 103q-13 223 -63 223q-12 0 -21 -20t-19 -74t-20 -150q-3 -30 -7 -87z" />
    <glyph glyph-name="Aogonek" unicode="&#x104;" horiz-adv-x="376" 
d="M84 -11q-13 0 -21.5 8.5t-8.5 21.5q3 296 15 405q17 163 42 228.5t77 65.5q107 0 123 -276q11 -178 11 -295v-128q0 -15 -12 -24q-29 -27 -29 -50q0 -31 29 -31h3q29 0 32 -17l1 -8q0 -13 -9.5 -18.5t-18.5 -5.5q-42 0 -63.5 20t-21.5 52q0 42 42 58q-13 8 -13 24
q-2 225 -3 261q-38 -6 -87 -6q-18 0 -54 2q0 -13 -4 -257q0 -13 -9 -21.5t-21 -8.5zM121 331q18 -1 53 -1q49 0 82 6h1q-1 27 -6 103q-13 223 -63 223q-12 0 -21 -20t-19 -74t-20 -150q-3 -30 -7 -87z" />
    <glyph glyph-name="aogonek" unicode="&#x105;" horiz-adv-x="376" 
d="M84 -11q-13 0 -21.5 8.5t-8.5 21.5q3 296 15 405q17 163 42 228.5t77 65.5q107 0 123 -276q11 -178 11 -295v-128q0 -15 -12 -24q-29 -27 -29 -50q0 -31 29 -31h3q29 0 32 -17l1 -8q0 -13 -9.5 -18.5t-18.5 -5.5q-42 0 -63.5 20t-21.5 52q0 42 42 58q-13 8 -13 24
q-2 225 -3 261q-38 -6 -87 -6q-18 0 -54 2q0 -13 -4 -257q0 -13 -9 -21.5t-21 -8.5zM121 331q18 -1 53 -1q49 0 82 6h1q-1 27 -6 103q-13 223 -63 223q-12 0 -21 -20t-19 -74t-20 -150q-3 -30 -7 -87z" />
    <glyph glyph-name="Cacute" unicode="&#x106;" horiz-adv-x="338" 
d="M180 -19q-38 0 -69.5 32t-45.5 94q-20 86 -20 215q0 66 7 176q10 127 43.5 174.5t82.5 47.5q36 0 62 -20t56 -63q5 -8 5 -16q0 -13 -8.5 -21.5t-21.5 -8.5q-16 0 -24 13q-24 36 -37.5 48t-31.5 12t-28.5 -9.5t-21.5 -48.5t-16 -112q-7 -112 -7 -175q0 -123 18 -199
q20 -87 62 -87q24 0 44.5 31.5t28.5 84.5q2 11 10 18.5t19 7.5q15 0 23.5 -11t6.5 -24q-12 -72 -51.5 -115.5t-85.5 -43.5zM102 766q0 15 9 21q50 46 97 78q7 5 19 5q22 0 22 -23q0 -15 -12 -24q-35 -23 -91 -74q-9 -7 -19 -7q-25 0 -25 24z" />
    <glyph glyph-name="cacute" unicode="&#x107;" horiz-adv-x="338" 
d="M180 -19q-38 0 -69.5 32t-45.5 94q-20 86 -20 215q0 66 7 176q10 127 43.5 174.5t82.5 47.5q36 0 62 -20t56 -63q5 -8 5 -16q0 -13 -8.5 -21.5t-21.5 -8.5q-16 0 -24 13q-24 36 -37.5 48t-31.5 12t-28.5 -9.5t-21.5 -48.5t-16 -112q-7 -112 -7 -175q0 -123 18 -199
q20 -87 62 -87q24 0 44.5 31.5t28.5 84.5q2 11 10 18.5t19 7.5q15 0 23.5 -11t6.5 -24q-12 -72 -51.5 -115.5t-85.5 -43.5zM102 766q0 15 9 21q50 46 97 78q7 5 19 5q22 0 22 -23q0 -15 -12 -24q-35 -23 -91 -74q-9 -7 -19 -7q-25 0 -25 24z" />
    <glyph glyph-name="Ccircumflex" unicode="&#x108;" horiz-adv-x="338" 
d="M180 -19q-38 0 -69.5 32t-45.5 94q-20 86 -20 215q0 66 7 176q10 127 43.5 174.5t82.5 47.5q36 0 62 -20t56 -63q5 -8 5 -16q0 -13 -8.5 -21.5t-21.5 -8.5q-16 0 -24 13q-24 36 -37.5 48t-31.5 12t-28.5 -9.5t-21.5 -48.5t-16 -112q-7 -112 -7 -175q0 -123 18 -199
q20 -87 62 -87q24 0 44.5 31.5t28.5 84.5q2 11 10 18.5t19 7.5q15 0 23.5 -11t6.5 -24q-12 -72 -51.5 -115.5t-85.5 -43.5zM77 759q0 7 3 13q7 12 26 41t33 52q17 30 37 30q6 0 11.5 -2.5t11.5 -9t10 -12t11 -16t12 -17.5q31 -43 45 -66q3 -4 3 -12t-6 -14t-14 -6
q-15 0 -27 17l-56 85q-4 -7 -14 -22.5t-22.5 -35t-17.5 -28.5q-10 -16 -26 -16q-7 0 -13.5 6t-6.5 13z" />
    <glyph glyph-name="ccircumflex" unicode="&#x109;" horiz-adv-x="338" 
d="M180 -19q-38 0 -69.5 32t-45.5 94q-20 86 -20 215q0 66 7 176q10 127 43.5 174.5t82.5 47.5q36 0 62 -20t56 -63q5 -8 5 -16q0 -13 -8.5 -21.5t-21.5 -8.5q-16 0 -24 13q-24 36 -37.5 48t-31.5 12t-28.5 -9.5t-21.5 -48.5t-16 -112q-7 -112 -7 -175q0 -123 18 -199
q20 -87 62 -87q24 0 44.5 31.5t28.5 84.5q2 11 10 18.5t19 7.5q15 0 23.5 -11t6.5 -24q-12 -72 -51.5 -115.5t-85.5 -43.5zM77 759q0 7 3 13q7 12 26 41t33 52q17 30 37 30q6 0 11.5 -2.5t11.5 -9t10 -12t11 -16t12 -17.5q31 -43 45 -66q3 -4 3 -12t-6 -14t-14 -6
q-15 0 -27 17l-56 85q-4 -7 -14 -22.5t-22.5 -35t-17.5 -28.5q-10 -16 -26 -16q-7 0 -13.5 6t-6.5 13z" />
    <glyph glyph-name="Cdotaccent" unicode="&#x10a;" horiz-adv-x="338" 
d="M180 -19q-38 0 -69.5 32t-45.5 94q-20 86 -20 215q0 66 7 176q10 127 43.5 174.5t82.5 47.5q36 0 62 -20t56 -63q5 -8 5 -16q0 -13 -8.5 -21.5t-21.5 -8.5q-16 0 -24 13q-24 36 -37.5 48t-31.5 12t-28.5 -9.5t-21.5 -48.5t-16 -112q-7 -112 -7 -175q0 -123 18 -199
q20 -87 62 -87q24 0 44.5 31.5t28.5 84.5q2 11 10 18.5t19 7.5q15 0 23.5 -11t6.5 -24q-12 -72 -51.5 -115.5t-85.5 -43.5zM134 785q0 24 13 38t30 14q26 0 41 -28q6 -12 6 -23q0 -20 -15 -33t-34 -13q-4 0 -12 2q-29 10 -29 43z" />
    <glyph glyph-name="cdotaccent" unicode="&#x10b;" horiz-adv-x="338" 
d="M180 -19q-38 0 -69.5 32t-45.5 94q-20 86 -20 215q0 66 7 176q10 127 43.5 174.5t82.5 47.5q36 0 62 -20t56 -63q5 -8 5 -16q0 -13 -8.5 -21.5t-21.5 -8.5q-16 0 -24 13q-24 36 -37.5 48t-31.5 12t-28.5 -9.5t-21.5 -48.5t-16 -112q-7 -112 -7 -175q0 -123 18 -199
q20 -87 62 -87q24 0 44.5 31.5t28.5 84.5q2 11 10 18.5t19 7.5q15 0 23.5 -11t6.5 -24q-12 -72 -51.5 -115.5t-85.5 -43.5zM134 785q0 24 13 38t30 14q26 0 41 -28q6 -12 6 -23q0 -20 -15 -33t-34 -13q-4 0 -12 2q-29 10 -29 43z" />
    <glyph glyph-name="Ccaron" unicode="&#x10c;" horiz-adv-x="338" 
d="M180 -19q-38 0 -69.5 32t-45.5 94q-20 86 -20 215q0 66 7 176q10 127 43.5 174.5t82.5 47.5q36 0 62 -20t56 -63q5 -8 5 -16q0 -13 -8.5 -21.5t-21.5 -8.5q-16 0 -24 13q-24 36 -37.5 48t-31.5 12t-28.5 -9.5t-21.5 -48.5t-16 -112q-7 -112 -7 -175q0 -123 18 -199
q20 -87 62 -87q24 0 44.5 31.5t28.5 84.5q2 11 10 18.5t19 7.5q15 0 23.5 -11t6.5 -24q-12 -72 -51.5 -115.5t-85.5 -43.5zM77 876q0 7 6.5 13t13.5 6q16 0 26 -16q5 -9 17.5 -28.5t22.5 -35t14 -22.5l56 85q12 17 27 17q8 0 14 -6t6 -14t-3 -12q-14 -23 -45 -66
q-5 -7 -12 -17.5t-11 -16t-10 -12t-11.5 -9t-11.5 -2.5q-20 0 -37 30q-14 23 -33 52t-26 41q-3 6 -3 13z" />
    <glyph glyph-name="ccaron" unicode="&#x10d;" horiz-adv-x="338" 
d="M180 -19q-38 0 -69.5 32t-45.5 94q-20 86 -20 215q0 66 7 176q10 127 43.5 174.5t82.5 47.5q36 0 62 -20t56 -63q5 -8 5 -16q0 -13 -8.5 -21.5t-21.5 -8.5q-16 0 -24 13q-24 36 -37.5 48t-31.5 12t-28.5 -9.5t-21.5 -48.5t-16 -112q-7 -112 -7 -175q0 -123 18 -199
q20 -87 62 -87q24 0 44.5 31.5t28.5 84.5q2 11 10 18.5t19 7.5q15 0 23.5 -11t6.5 -24q-12 -72 -51.5 -115.5t-85.5 -43.5zM77 876q0 7 6.5 13t13.5 6q16 0 26 -16q5 -9 17.5 -28.5t22.5 -35t14 -22.5l56 85q12 17 27 17q8 0 14 -6t6 -14t-3 -12q-14 -23 -45 -66
q-5 -7 -12 -17.5t-11 -16t-10 -12t-11.5 -9t-11.5 -2.5q-20 0 -37 30q-14 23 -33 52t-26 41q-3 6 -3 13z" />
    <glyph glyph-name="Dcaron" unicode="&#x10e;" horiz-adv-x="385" 
d="M126 -10q-60 0 -60 62q0 75 -3 349t-3 275q0 16 12.5 23t44.5 7q44 0 83 -17t75 -54t57 -106t21 -162q0 -199 -57 -288t-170 -89zM69 876q0 7 6.5 13t13.5 6q16 0 26 -16q5 -9 17.5 -28.5t22.5 -35t14 -22.5l56 85q12 17 27 17q8 0 14 -6t6 -14t-3 -12q-14 -23 -45 -66
q-5 -7 -12 -17.5t-11 -16t-10 -12t-11.5 -9t-11.5 -2.5q-20 0 -37 30q-14 23 -33 52t-26 41q-3 6 -3 13zM120 650q7 -369 7 -510q0 -70 -1 -94q88 0 127 71t39 249q0 152 -49.5 218t-122.5 66z" />
    <glyph glyph-name="dcaron" unicode="&#x10f;" horiz-adv-x="385" 
d="M126 -10q-60 0 -60 62q0 75 -3 349t-3 275q0 16 12.5 23t44.5 7q44 0 83 -17t75 -54t57 -106t21 -162q0 -199 -57 -288t-170 -89zM69 876q0 7 6.5 13t13.5 6q16 0 26 -16q5 -9 17.5 -28.5t22.5 -35t14 -22.5l56 85q12 17 27 17q8 0 14 -6t6 -14t-3 -12q-14 -23 -45 -66
q-5 -7 -12 -17.5t-11 -16t-10 -12t-11.5 -9t-11.5 -2.5q-20 0 -37 30q-14 23 -33 52t-26 41q-3 6 -3 13zM120 650q7 -369 7 -510q0 -70 -1 -94q88 0 127 71t39 249q0 152 -49.5 218t-122.5 66z" />
    <glyph glyph-name="Dcroat" unicode="&#x110;" horiz-adv-x="385" 
d="M126 -10q-60 0 -60 62q0 48 -2 276q-23 0 -34 1t-18.5 9t-7.5 19q0 12 9 20.5t21 7.5q5 0 14.5 -0.5t14.5 -1.5l-3 293q0 16 12.5 23t44.5 7q44 0 83 -17t75 -54t57 -106t21 -162q0 -199 -57 -288t-170 -89zM120 650l5 -266q37 2 52 5q13 3 23.5 -5.5t10.5 -21.5
q0 -23 -23 -28q-27 -4 -63 -6q2 -138 2 -188q0 -70 -1 -94q88 0 127 71t39 249q0 152 -49.5 218t-122.5 66z" />
    <glyph glyph-name="dcroat" unicode="&#x111;" horiz-adv-x="385" 
d="M126 -10q-60 0 -60 62q0 48 -2 276q-23 0 -34 1t-18.5 9t-7.5 19q0 12 9 20.5t21 7.5q5 0 14.5 -0.5t14.5 -1.5l-3 293q0 16 12.5 23t44.5 7q44 0 83 -17t75 -54t57 -106t21 -162q0 -199 -57 -288t-170 -89zM120 650l5 -266q37 2 52 5q13 3 23.5 -5.5t10.5 -21.5
q0 -23 -23 -28q-27 -4 -63 -6q2 -138 2 -188q0 -70 -1 -94q88 0 127 71t39 249q0 152 -49.5 218t-122.5 66z" />
    <glyph glyph-name="Emacron" unicode="&#x112;" 
d="M123 -4q-29 -1 -44.5 14t-15.5 43q0 47 2 140t2 142q0 45 -3.5 150t-3.5 161q0 28 15.5 43t44.5 14l145 -3q12 0 20 -8.5t8 -19.5q0 -12 -8.5 -20t-20.5 -8l-144 3q0 -35 1 -75.5t2.5 -90t2.5 -76.5l107 -3q11 0 19 -8.5t8 -19.5q0 -12 -8.5 -20t-20.5 -8l-104 3v-14
q0 -56 -2 -154t-2 -129l145 5q11 0 20 -8t9 -20q0 -11 -8.5 -19t-19.5 -9zM103 768q0 11 8.5 19t19.5 9q58 2 113 2q12 0 20 -8t8 -20q0 -11 -8 -19.5t-19 -8.5q-14 0 -56.5 -1t-58.5 -1q-10 0 -18.5 8t-8.5 20z" />
    <glyph glyph-name="emacron" unicode="&#x113;" 
d="M123 -4q-29 -1 -44.5 14t-15.5 43q0 47 2 140t2 142q0 45 -3.5 150t-3.5 161q0 28 15.5 43t44.5 14l145 -3q12 0 20 -8.5t8 -19.5q0 -12 -8.5 -20t-20.5 -8l-144 3q0 -35 1 -75.5t2.5 -90t2.5 -76.5l107 -3q11 0 19 -8.5t8 -19.5q0 -12 -8.5 -20t-20.5 -8l-104 3v-14
q0 -56 -2 -154t-2 -129l145 5q11 0 20 -8t9 -20q0 -11 -8.5 -19t-19.5 -9zM103 768q0 11 8.5 19t19.5 9q58 2 113 2q12 0 20 -8t8 -20q0 -11 -8 -19.5t-19 -8.5q-14 0 -56.5 -1t-58.5 -1q-10 0 -18.5 8t-8.5 20z" />
    <glyph glyph-name="Edotaccent" unicode="&#x116;" 
d="M123 -4q-29 -1 -44.5 14t-15.5 43q0 47 2 140t2 142q0 45 -3.5 150t-3.5 161q0 28 15.5 43t44.5 14l145 -3q12 0 20 -8.5t8 -19.5q0 -12 -8.5 -20t-20.5 -8l-144 3q0 -35 1 -75.5t2.5 -90t2.5 -76.5l107 -3q11 0 19 -8.5t8 -19.5q0 -12 -8.5 -20t-20.5 -8l-104 3v-14
q0 -56 -2 -154t-2 -129l145 5q11 0 20 -8t9 -20q0 -11 -8.5 -19t-19.5 -9zM142 785q0 24 13 38t30 14q26 0 41 -28q6 -12 6 -23q0 -20 -15 -33t-34 -13q-4 0 -12 2q-29 10 -29 43z" />
    <glyph glyph-name="edotaccent" unicode="&#x117;" 
d="M123 -4q-29 -1 -44.5 14t-15.5 43q0 47 2 140t2 142q0 45 -3.5 150t-3.5 161q0 28 15.5 43t44.5 14l145 -3q12 0 20 -8.5t8 -19.5q0 -12 -8.5 -20t-20.5 -8l-144 3q0 -35 1 -75.5t2.5 -90t2.5 -76.5l107 -3q11 0 19 -8.5t8 -19.5q0 -12 -8.5 -20t-20.5 -8l-104 3v-14
q0 -56 -2 -154t-2 -129l145 5q11 0 20 -8t9 -20q0 -11 -8.5 -19t-19.5 -9zM142 785q0 24 13 38t30 14q26 0 41 -28q6 -12 6 -23q0 -20 -15 -33t-34 -13q-4 0 -12 2q-29 10 -29 43z" />
    <glyph glyph-name="Eogonek" unicode="&#x118;" 
d="M123 -4q-29 -1 -44.5 14t-15.5 43q0 47 2 140t2 142q0 45 -3.5 150t-3.5 161q0 28 15.5 43t44.5 14l145 -3q12 0 20 -8.5t8 -19.5q0 -12 -8.5 -20t-20.5 -8l-144 3q0 -35 1 -75.5t2.5 -90t2.5 -76.5l107 -3q11 0 19 -8.5t8 -19.5q0 -12 -8.5 -20t-20.5 -8l-104 3v-14
q0 -56 -2 -154t-2 -129l145 5q11 0 20 -8t9 -20q0 -15 -13 -23q-30 -27 -30 -51q0 -31 29 -31h3q29 0 32 -17l1 -8q0 -13 -9.5 -18.5t-18.5 -5.5q-42 0 -63.5 20t-21.5 52q0 35 31 53z" />
    <glyph glyph-name="eogonek" unicode="&#x119;" 
d="M123 -4q-29 -1 -44.5 14t-15.5 43q0 47 2 140t2 142q0 45 -3.5 150t-3.5 161q0 28 15.5 43t44.5 14l145 -3q12 0 20 -8.5t8 -19.5q0 -12 -8.5 -20t-20.5 -8l-144 3q0 -35 1 -75.5t2.5 -90t2.5 -76.5l107 -3q11 0 19 -8.5t8 -19.5q0 -12 -8.5 -20t-20.5 -8l-104 3v-14
q0 -56 -2 -154t-2 -129l145 5q11 0 20 -8t9 -20q0 -15 -13 -23q-30 -27 -30 -51q0 -31 29 -31h3q29 0 32 -17l1 -8q0 -13 -9.5 -18.5t-18.5 -5.5q-42 0 -63.5 20t-21.5 52q0 35 31 53z" />
    <glyph glyph-name="Ecaron" unicode="&#x11a;" 
d="M123 -4q-29 -1 -44.5 14t-15.5 43q0 47 2 140t2 142q0 45 -3.5 150t-3.5 161q0 28 15.5 43t44.5 14l145 -3q12 0 20 -8.5t8 -19.5q0 -12 -8.5 -20t-20.5 -8l-144 3q0 -35 1 -75.5t2.5 -90t2.5 -76.5l107 -3q11 0 19 -8.5t8 -19.5q0 -12 -8.5 -20t-20.5 -8l-104 3v-14
q0 -56 -2 -154t-2 -129l145 5q11 0 20 -8t9 -20q0 -11 -8.5 -19t-19.5 -9zM85 876q0 7 6.5 13t13.5 6q16 0 26 -16q5 -9 17.5 -28.5t22.5 -35t14 -22.5l56 85q12 17 27 17q8 0 14 -6t6 -14t-3 -12q-14 -23 -45 -66q-5 -7 -12 -17.5t-11 -16t-10 -12t-11.5 -9t-11.5 -2.5
q-20 0 -37 30q-14 23 -33 52t-26 41q-3 6 -3 13z" />
    <glyph glyph-name="ecaron" unicode="&#x11b;" 
d="M123 -4q-29 -1 -44.5 14t-15.5 43q0 47 2 140t2 142q0 45 -3.5 150t-3.5 161q0 28 15.5 43t44.5 14l145 -3q12 0 20 -8.5t8 -19.5q0 -12 -8.5 -20t-20.5 -8l-144 3q0 -35 1 -75.5t2.5 -90t2.5 -76.5l107 -3q11 0 19 -8.5t8 -19.5q0 -12 -8.5 -20t-20.5 -8l-104 3v-14
q0 -56 -2 -154t-2 -129l145 5q11 0 20 -8t9 -20q0 -11 -8.5 -19t-19.5 -9zM85 876q0 7 6.5 13t13.5 6q16 0 26 -16q5 -9 17.5 -28.5t22.5 -35t14 -22.5l56 85q12 17 27 17q8 0 14 -6t6 -14t-3 -12q-14 -23 -45 -66q-5 -7 -12 -17.5t-11 -16t-10 -12t-11.5 -9t-11.5 -2.5
q-20 0 -37 30q-14 23 -33 52t-26 41q-3 6 -3 13z" />
    <glyph glyph-name="Gcircumflex" unicode="&#x11c;" horiz-adv-x="382" 
d="M191 -20q-40 0 -73 31.5t-49 94.5q-24 97 -24 238q0 71 6 155q5 58 16.5 100.5t24 65t30.5 35.5t32.5 16.5t32.5 3.5q88 0 131 -105q2 -4 2 -11q0 -13 -8.5 -21.5t-20.5 -8.5q-21 0 -28 19q-16 41 -33.5 56t-42.5 15q-21 0 -33 -8t-24 -46.5t-19 -114.5q-7 -81 -7 -157
q0 -128 23 -218q11 -43 30 -65t41 -22q31 0 56 38.5t30 101.5q2 42 2 58q0 39 -3 73q-53 -8 -99 -8q-12 0 -20.5 8t-8.5 20q0 11 8.5 19.5t19.5 8.5q63 2 93 8q16 2 22 2q41 0 44 -44q4 -35 4 -84q0 -43 -2 -66q-7 -84 -52.5 -136t-100.5 -52zM85 759q0 7 3 13q7 12 26 41
t33 52q17 30 37 30q6 0 11.5 -2.5t11.5 -9t10 -12t11 -16t12 -17.5q31 -43 45 -66q3 -4 3 -12t-6 -14t-14 -6q-15 0 -27 17l-56 85q-4 -7 -14 -22.5t-22.5 -35t-17.5 -28.5q-10 -16 -26 -16q-7 0 -13.5 6t-6.5 13z" />
    <glyph glyph-name="gcircumflex" unicode="&#x11d;" horiz-adv-x="382" 
d="M191 -20q-40 0 -73 31.5t-49 94.5q-24 97 -24 238q0 71 6 155q5 58 16.5 100.5t24 65t30.5 35.5t32.5 16.5t32.5 3.5q88 0 131 -105q2 -4 2 -11q0 -13 -8.5 -21.5t-20.5 -8.5q-21 0 -28 19q-16 41 -33.5 56t-42.5 15q-21 0 -33 -8t-24 -46.5t-19 -114.5q-7 -81 -7 -157
q0 -128 23 -218q11 -43 30 -65t41 -22q31 0 56 38.5t30 101.5q2 42 2 58q0 39 -3 73q-53 -8 -99 -8q-12 0 -20.5 8t-8.5 20q0 11 8.5 19.5t19.5 8.5q63 2 93 8q16 2 22 2q41 0 44 -44q4 -35 4 -84q0 -43 -2 -66q-7 -84 -52.5 -136t-100.5 -52zM85 759q0 7 3 13q7 12 26 41
t33 52q17 30 37 30q6 0 11.5 -2.5t11.5 -9t10 -12t11 -16t12 -17.5q31 -43 45 -66q3 -4 3 -12t-6 -14t-14 -6q-15 0 -27 17l-56 85q-4 -7 -14 -22.5t-22.5 -35t-17.5 -28.5q-10 -16 -26 -16q-7 0 -13.5 6t-6.5 13z" />
    <glyph glyph-name="Gbreve" unicode="&#x11e;" horiz-adv-x="382" 
d="M191 -20q-40 0 -73 31.5t-49 94.5q-24 97 -24 238q0 71 6 155q5 58 16.5 100.5t24 65t30.5 35.5t32.5 16.5t32.5 3.5q88 0 131 -105q2 -4 2 -11q0 -13 -8.5 -21.5t-20.5 -8.5q-21 0 -28 19q-16 41 -33.5 56t-42.5 15q-21 0 -33 -8t-24 -46.5t-19 -114.5q-7 -81 -7 -157
q0 -128 23 -218q11 -43 30 -65t41 -22q31 0 56 38.5t30 101.5q2 42 2 58q0 39 -3 73q-53 -8 -99 -8q-12 0 -20.5 8t-8.5 20q0 11 8.5 19.5t19.5 8.5q63 2 93 8q16 2 22 2q41 0 44 -44q4 -35 4 -84q0 -43 -2 -66q-7 -84 -52.5 -136t-100.5 -52zM94 821q0 25 25 25
q16 0 26 -21q21 -34 42 -34q13 0 21.5 7.5t21.5 26.5q9 18 28 18q21 0 21 -25q0 -4 -2 -12q-29 -66 -90 -66q-66 0 -91 72q-2 6 -2 9z" />
    <glyph glyph-name="gbreve" unicode="&#x11f;" horiz-adv-x="382" 
d="M191 -20q-40 0 -73 31.5t-49 94.5q-24 97 -24 238q0 71 6 155q5 58 16.5 100.5t24 65t30.5 35.5t32.5 16.5t32.5 3.5q88 0 131 -105q2 -4 2 -11q0 -13 -8.5 -21.5t-20.5 -8.5q-21 0 -28 19q-16 41 -33.5 56t-42.5 15q-21 0 -33 -8t-24 -46.5t-19 -114.5q-7 -81 -7 -157
q0 -128 23 -218q11 -43 30 -65t41 -22q31 0 56 38.5t30 101.5q2 42 2 58q0 39 -3 73q-53 -8 -99 -8q-12 0 -20.5 8t-8.5 20q0 11 8.5 19.5t19.5 8.5q63 2 93 8q16 2 22 2q41 0 44 -44q4 -35 4 -84q0 -43 -2 -66q-7 -84 -52.5 -136t-100.5 -52zM94 821q0 25 25 25
q16 0 26 -21q21 -34 42 -34q13 0 21.5 7.5t21.5 26.5q9 18 28 18q21 0 21 -25q0 -4 -2 -12q-29 -66 -90 -66q-66 0 -91 72q-2 6 -2 9z" />
    <glyph glyph-name="Gdotaccent" unicode="&#x120;" horiz-adv-x="382" 
d="M191 -20q-40 0 -73 31.5t-49 94.5q-24 97 -24 238q0 71 6 155q5 58 16.5 100.5t24 65t30.5 35.5t32.5 16.5t32.5 3.5q88 0 131 -105q2 -4 2 -11q0 -13 -8.5 -21.5t-20.5 -8.5q-21 0 -28 19q-16 41 -33.5 56t-42.5 15q-21 0 -33 -8t-24 -46.5t-19 -114.5q-7 -81 -7 -157
q0 -128 23 -218q11 -43 30 -65t41 -22q31 0 56 38.5t30 101.5q2 42 2 58q0 39 -3 73q-53 -8 -99 -8q-12 0 -20.5 8t-8.5 20q0 11 8.5 19.5t19.5 8.5q63 2 93 8q16 2 22 2q41 0 44 -44q4 -35 4 -84q0 -43 -2 -66q-7 -84 -52.5 -136t-100.5 -52zM142 785q0 24 13 38t30 14
q26 0 41 -28q6 -12 6 -23q0 -20 -15 -33t-34 -13q-4 0 -12 2q-29 10 -29 43z" />
    <glyph glyph-name="gdotaccent" unicode="&#x121;" horiz-adv-x="382" 
d="M191 -20q-40 0 -73 31.5t-49 94.5q-24 97 -24 238q0 71 6 155q5 58 16.5 100.5t24 65t30.5 35.5t32.5 16.5t32.5 3.5q88 0 131 -105q2 -4 2 -11q0 -13 -8.5 -21.5t-20.5 -8.5q-21 0 -28 19q-16 41 -33.5 56t-42.5 15q-21 0 -33 -8t-24 -46.5t-19 -114.5q-7 -81 -7 -157
q0 -128 23 -218q11 -43 30 -65t41 -22q31 0 56 38.5t30 101.5q2 42 2 58q0 39 -3 73q-53 -8 -99 -8q-12 0 -20.5 8t-8.5 20q0 11 8.5 19.5t19.5 8.5q63 2 93 8q16 2 22 2q41 0 44 -44q4 -35 4 -84q0 -43 -2 -66q-7 -84 -52.5 -136t-100.5 -52zM142 785q0 24 13 38t30 14
q26 0 41 -28q6 -12 6 -23q0 -20 -15 -33t-34 -13q-4 0 -12 2q-29 10 -29 43z" />
    <glyph glyph-name="uni0122" unicode="&#x122;" horiz-adv-x="382" 
d="M191 -20q-40 0 -73 31.5t-49 94.5q-24 97 -24 238q0 71 6 155q5 58 16.5 100.5t24 65t30.5 35.5t32.5 16.5t32.5 3.5q88 0 131 -105q2 -4 2 -11q0 -13 -8.5 -21.5t-20.5 -8.5q-21 0 -28 19q-16 41 -33.5 56t-42.5 15q-21 0 -33 -8t-24 -46.5t-19 -114.5q-7 -81 -7 -157
q0 -128 23 -218q11 -43 30 -65t41 -22q31 0 56 38.5t30 101.5q2 42 2 58q0 39 -3 73q-53 -8 -99 -8q-12 0 -20.5 8t-8.5 20q0 11 8.5 19.5t19.5 8.5q63 2 93 8q16 2 22 2q41 0 44 -44q4 -35 4 -84q0 -43 -2 -66q-7 -84 -52.5 -136t-100.5 -52zM149 -191q0 5 2 11
q14 36 14 61q0 21 -9 35q-5 8 -5 16q0 12 8.5 20.5t20.5 8.5q15 0 24 -12q20 -29 20 -69q0 -39 -18 -82q-7 -18 -27 -18q-12 0 -21 8.5t-9 20.5z" />
    <glyph glyph-name="uni0123" unicode="&#x123;" horiz-adv-x="382" 
d="M191 -20q-40 0 -73 31.5t-49 94.5q-24 97 -24 238q0 71 6 155q5 58 16.5 100.5t24 65t30.5 35.5t32.5 16.5t32.5 3.5q88 0 131 -105q2 -4 2 -11q0 -13 -8.5 -21.5t-20.5 -8.5q-21 0 -28 19q-16 41 -33.5 56t-42.5 15q-21 0 -33 -8t-24 -46.5t-19 -114.5q-7 -81 -7 -157
q0 -128 23 -218q11 -43 30 -65t41 -22q31 0 56 38.5t30 101.5q2 42 2 58q0 39 -3 73q-53 -8 -99 -8q-12 0 -20.5 8t-8.5 20q0 11 8.5 19.5t19.5 8.5q63 2 93 8q16 2 22 2q41 0 44 -44q4 -35 4 -84q0 -43 -2 -66q-7 -84 -52.5 -136t-100.5 -52zM149 -191q0 5 2 11
q14 36 14 61q0 21 -9 35q-5 8 -5 16q0 12 8.5 20.5t20.5 8.5q15 0 24 -12q20 -29 20 -69q0 -39 -18 -82q-7 -18 -27 -18q-12 0 -21 8.5t-9 20.5z" />
    <glyph glyph-name="Hcircumflex" unicode="&#x124;" horiz-adv-x="418" 
d="M326 -11q-12 0 -21 9t-9 21q0 16 -0.5 59t-0.5 69q0 62 2 200h-174v-40q0 -188 -3 -288q0 -12 -8.5 -21t-21.5 -9q-12 0 -21 9t-9 22q3 100 3 288t-3 372q0 13 8.5 22t21.5 9t21.5 -9t8.5 -21q0 -31 1 -127.5t2 -150.5h174q0 48 0.5 142.5t0.5 135.5q0 13 9 21.5t21 8.5
q13 0 21.5 -8.5t8.5 -21.5q0 -45 -0.5 -150t-0.5 -156q-2 -156 -2 -227q0 -26 0.5 -69t0.5 -59q0 -13 -8.5 -22t-21.5 -9zM107 759q0 7 3 13q7 12 26 41t33 52q17 30 37 30q6 0 11.5 -2.5t11.5 -9t10 -12t11 -16t12 -17.5q31 -43 45 -66q3 -4 3 -12t-6 -14t-14 -6
q-15 0 -27 17l-56 85q-4 -7 -14 -22.5t-22.5 -35t-17.5 -28.5q-10 -16 -26 -16q-7 0 -13.5 6t-6.5 13z" />
    <glyph glyph-name="hcircumflex" unicode="&#x125;" horiz-adv-x="418" 
d="M326 -11q-12 0 -21 9t-9 21q0 16 -0.5 59t-0.5 69q0 62 2 200h-174v-40q0 -188 -3 -288q0 -12 -8.5 -21t-21.5 -9q-12 0 -21 9t-9 22q3 100 3 288t-3 372q0 13 8.5 22t21.5 9t21.5 -9t8.5 -21q0 -31 1 -127.5t2 -150.5h174q0 48 0.5 142.5t0.5 135.5q0 13 9 21.5t21 8.5
q13 0 21.5 -8.5t8.5 -21.5q0 -45 -0.5 -150t-0.5 -156q-2 -156 -2 -227q0 -26 0.5 -69t0.5 -59q0 -13 -8.5 -22t-21.5 -9zM107 759q0 7 3 13q7 12 26 41t33 52q17 30 37 30q6 0 11.5 -2.5t11.5 -9t10 -12t11 -16t12 -17.5q31 -43 45 -66q3 -4 3 -12t-6 -14t-14 -6
q-15 0 -27 17l-56 85q-4 -7 -14 -22.5t-22.5 -35t-17.5 -28.5q-10 -16 -26 -16q-7 0 -13.5 6t-6.5 13z" />
    <glyph glyph-name="Hbar" unicode="&#x126;" horiz-adv-x="418" 
d="M326 -11q-12 0 -21 9t-9 21q0 16 -0.5 59t-0.5 69q0 62 2 200h-174v-40q0 -188 -3 -288q0 -12 -8.5 -21t-21.5 -9q-12 0 -21 9t-9 22q3 100 3 288q0 155 -1 231h-16q-11 0 -19.5 8.5t-8.5 19.5q0 12 8.5 20t19.5 8h15q0 14 -0.5 42.5t-0.5 42.5q0 13 8.5 22t21.5 9
t21.5 -9t8.5 -21l1 -85q31 0 91.5 0.5t85.5 0.5v84q0 13 9 21.5t21 8.5q13 0 21.5 -8.5t8.5 -21.5v-84h13q11 0 19.5 -8t8.5 -20q0 -11 -8.5 -19.5t-19.5 -8.5h-13q-1 -55 -1 -166q-2 -156 -2 -227q0 -26 0.5 -69t0.5 -59q0 -13 -8.5 -22t-21.5 -9zM122 540l1 -137h174
l1 138q-25 0 -85 -0.5t-91 -0.5z" />
    <glyph glyph-name="hbar" unicode="&#x127;" horiz-adv-x="418" 
d="M326 -11q-12 0 -21 9t-9 21q0 16 -0.5 59t-0.5 69q0 62 2 200h-174v-40q0 -188 -3 -288q0 -12 -8.5 -21t-21.5 -9q-12 0 -21 9t-9 22q3 100 3 288q0 155 -1 231h-16q-11 0 -19.5 8.5t-8.5 19.5q0 12 8.5 20t19.5 8h15q0 14 -0.5 42.5t-0.5 42.5q0 13 8.5 22t21.5 9
t21.5 -9t8.5 -21l1 -85q31 0 91.5 0.5t85.5 0.5v84q0 13 9 21.5t21 8.5q13 0 21.5 -8.5t8.5 -21.5v-84h13q11 0 19.5 -8t8.5 -20q0 -11 -8.5 -19.5t-19.5 -8.5h-13q-1 -55 -1 -166q-2 -156 -2 -227q0 -26 0.5 -69t0.5 -59q0 -13 -8.5 -22t-21.5 -9zM122 540l1 -137h174
l1 138q-25 0 -85 -0.5t-91 -0.5z" />
    <glyph glyph-name="Itilde" unicode="&#x128;" horiz-adv-x="186" 
d="M96 -11q-12 0 -21 9t-9 21q-2 156 -2 237v133q0 210 -4 291q-1 13 7.5 22t21.5 9t21.5 -8t8.5 -20q5 -103 5 -379q0 -191 2 -284q0 -13 -8.5 -22t-21.5 -9zM-31 788q16 80 69 80q43 0 82 -54q16 -23 27 -23q12 0 11 31q0 12 8.5 21t21.5 9q12 0 21 -8.5t9 -21.5
q-1 -40 -21.5 -61t-49.5 -21q-46 0 -76 42q-24 35 -32 35q-9 0 -12 -38q-2 -11 -10 -18.5t-20 -7.5q-14 0 -22.5 11t-5.5 24z" />
    <glyph glyph-name="itilde" unicode="&#x129;" horiz-adv-x="186" 
d="M96 -11q-12 0 -21 9t-9 21q-2 156 -2 237v133q0 210 -4 291q-1 13 7.5 22t21.5 9t21.5 -8t8.5 -20q5 -103 5 -379q0 -191 2 -284q0 -13 -8.5 -22t-21.5 -9zM-31 788q16 80 69 80q43 0 82 -54q16 -23 27 -23q12 0 11 31q0 12 8.5 21t21.5 9q12 0 21 -8.5t9 -21.5
q-1 -40 -21.5 -61t-49.5 -21q-46 0 -76 42q-24 35 -32 35q-9 0 -12 -38q-2 -11 -10 -18.5t-20 -7.5q-14 0 -22.5 11t-5.5 24z" />
    <glyph glyph-name="Imacron" unicode="&#x12a;" horiz-adv-x="186" 
d="M96 -11q-12 0 -21 9t-9 21q-2 156 -2 237v133q0 210 -4 291q-1 13 7.5 22t21.5 9t21.5 -8t8.5 -20q5 -103 5 -379q0 -191 2 -284q0 -13 -8.5 -22t-21.5 -9zM9 768q0 11 8.5 19t19.5 9q58 2 113 2q12 0 20 -8t8 -20q0 -11 -8 -19.5t-19 -8.5q-14 0 -56.5 -1t-58.5 -1
q-10 0 -18.5 8t-8.5 20z" />
    <glyph glyph-name="imacron" unicode="&#x12b;" horiz-adv-x="186" 
d="M96 -11q-12 0 -21 9t-9 21q-2 156 -2 237v133q0 210 -4 291q-1 13 7.5 22t21.5 9t21.5 -8t8.5 -20q5 -103 5 -379q0 -191 2 -284q0 -13 -8.5 -22t-21.5 -9zM9 768q0 11 8.5 19t19.5 9q58 2 113 2q12 0 20 -8t8 -20q0 -11 -8 -19.5t-19 -8.5q-14 0 -56.5 -1t-58.5 -1
q-10 0 -18.5 8t-8.5 20z" />
    <glyph glyph-name="Iogonek" unicode="&#x12e;" horiz-adv-x="186" 
d="M123 -134q-42 0 -63.5 20t-21.5 52q0 42 40 57q-12 10 -12 24q-2 156 -2 237v133q0 210 -4 291q-1 13 7.5 22t21.5 9t21.5 -8t8.5 -20q5 -103 5 -379q0 -191 2 -284q0 -11 -8 -21l-1 -1l-3 -3q-28 -25 -28 -49q0 -31 29 -31h3q29 0 32 -17l1 -8q0 -13 -9.5 -18.5
t-18.5 -5.5z" />
    <glyph glyph-name="iogonek" unicode="&#x12f;" horiz-adv-x="186" 
d="M123 -134q-42 0 -63.5 20t-21.5 52q0 42 40 57q-12 10 -12 24q-2 156 -2 237v133q0 210 -4 291q-1 13 7.5 22t21.5 9t21.5 -8t8.5 -20q5 -103 5 -379q0 -191 2 -284q0 -11 -8 -21l-1 -1l-3 -3q-28 -25 -28 -49q0 -31 29 -31h3q29 0 32 -17l1 -8q0 -13 -9.5 -18.5
t-18.5 -5.5z" />
    <glyph glyph-name="Idotaccent" unicode="&#x130;" horiz-adv-x="186" 
d="M96 -11q-12 0 -21 9t-9 21q-2 156 -2 237v133q0 210 -4 291q-1 13 7.5 22t21.5 9t21.5 -8t8.5 -20q5 -103 5 -379q0 -191 2 -284q0 -13 -8.5 -22t-21.5 -9zM48 785q0 24 13 38t30 14q26 0 41 -28q6 -12 6 -23q0 -20 -15 -33t-34 -13q-4 0 -12 2q-29 10 -29 43z" />
    <glyph glyph-name="dotlessi" unicode="&#x131;" horiz-adv-x="186" 
d="M96 -11q-12 0 -21 9t-9 21q-2 156 -2 237v133q0 210 -4 291q-1 13 7.5 22t21.5 9t21.5 -8t8.5 -20q5 -103 5 -379q0 -191 2 -284q0 -13 -8.5 -22t-21.5 -9z" />
    <glyph glyph-name="IJ" unicode="&#x132;" horiz-adv-x="395" 
d="M209 -20q-105 0 -135 118q-4 12 -4 19q0 12 8.5 20.5t21.5 8.5q20 0 25 -22q10 -53 29 -70.5t49 -17.5q35 0 50.5 38t23.5 130q10 103 10 232q0 107 -8 217q-20 -2 -39 -2q-13 -1 -22.5 7.5t-9.5 21.5q0 11 7 18.5t17 8.5q25 0 45 2q58 0 63 -57q7 -92 7 -208
q0 -136 -10 -245q-10 -115 -41 -167t-87 -52zM60 680q-1 13 7.5 22t21.5 9t21.5 -8t8.5 -20q5 -103 5 -229q0 -91 2 -214q0 -13 -8.5 -22t-21.5 -9q-12 0 -21 9t-9 21q0 41 -0.5 80.5t-1 65.5t-0.5 61v93q0 60 -4 141z" />
    <glyph glyph-name="ij" unicode="&#x133;" horiz-adv-x="511" 
d="M96 -11q-12 0 -21 9t-9 21q-2 156 -2 237v133q0 210 -4 291q-1 13 7.5 22t21.5 9t21.5 -8t8.5 -20q5 -103 5 -379q0 -191 2 -284q0 -13 -8.5 -22t-21.5 -9zM186 117q0 12 8.5 20.5t21.5 8.5q14 0 23 -12q68 -98 100 -98q40 0 54 168q10 103 10 232q0 107 -8 217
q-69 -2 -132 -11q-13 -2 -22.5 6.5t-9.5 21.5q0 11 7 19t17 9q65 9 138 11q58 0 63 -57q7 -92 7 -208q0 -136 -10 -245q-20 -219 -108 -219q-65 0 -153 120q-6 8 -6 17z" />
    <glyph glyph-name="Jcircumflex" unicode="&#x134;" horiz-adv-x="325" 
d="M159 -20q-65 0 -153 120q-6 8 -6 17q0 12 8.5 20.5t21.5 8.5q14 0 23 -12q68 -98 100 -98q40 0 54 168q10 103 10 232q0 107 -8 217q-69 -2 -132 -11q-13 -2 -22.5 6.5t-9.5 21.5q0 11 7 19t17 9q65 9 138 11q58 0 63 -57q7 -92 7 -208q0 -136 -10 -245
q-20 -219 -108 -219zM58 759q0 7 3 13q7 12 26 41t33 52q17 30 37 30q6 0 11.5 -2.5t11.5 -9t10 -12t11 -16t12 -17.5q31 -43 45 -66q3 -4 3 -12t-6 -14t-14 -6q-15 0 -27 17l-56 85q-4 -7 -14 -22.5t-22.5 -35t-17.5 -28.5q-10 -16 -26 -16q-7 0 -13.5 6t-6.5 13z" />
    <glyph glyph-name="jcircumflex" unicode="&#x135;" horiz-adv-x="325" 
d="M159 -20q-65 0 -153 120q-6 8 -6 17q0 12 8.5 20.5t21.5 8.5q14 0 23 -12q68 -98 100 -98q40 0 54 168q10 103 10 232q0 107 -8 217q-69 -2 -132 -11q-13 -2 -22.5 6.5t-9.5 21.5q0 11 7 19t17 9q65 9 138 11q58 0 63 -57q7 -92 7 -208q0 -136 -10 -245
q-20 -219 -108 -219zM58 759q0 7 3 13q7 12 26 41t33 52q17 30 37 30q6 0 11.5 -2.5t11.5 -9t10 -12t11 -16t12 -17.5q31 -43 45 -66q3 -4 3 -12t-6 -14t-14 -6q-15 0 -27 17l-56 85q-4 -7 -14 -22.5t-22.5 -35t-17.5 -28.5q-10 -16 -26 -16q-7 0 -13.5 6t-6.5 13z" />
    <glyph glyph-name="uni0136" unicode="&#x136;" horiz-adv-x="371" 
d="M326 -9q-25 0 -29 25q-27 178 -53 245t-92 94q-16 7 -26 15q1 -46 1 -121v-31l3 -198q0 -12 -9 -20.5t-21 -8.5q-13 0 -21.5 9t-8.5 22l-3 198v30q0 230 -7 429q-1 13 8 22t22 9q12 0 20.5 -8.5t9.5 -20.5q4 -119 6 -274q4 6 9 11q95 110 151 273q7 20 29 20
q13 0 21.5 -9t8.5 -21q0 -3 -2 -9q-58 -165 -149 -274q74 -38 105 -117t57 -255q2 -13 -7 -24t-23 -11zM176 -191q0 5 2 11q14 36 14 61q0 21 -9 35q-5 8 -5 16q0 12 8.5 20.5t20.5 8.5q15 0 24 -12q20 -29 20 -69q0 -39 -18 -82q-7 -18 -27 -18q-12 0 -21 8.5t-9 20.5z" />
    <glyph glyph-name="uni0137" unicode="&#x137;" horiz-adv-x="371" 
d="M326 -9q-25 0 -29 25q-27 178 -53 245t-92 94q-16 7 -26 15q1 -46 1 -121v-31l3 -198q0 -12 -9 -20.5t-21 -8.5q-13 0 -21.5 9t-8.5 22l-3 198v30q0 230 -7 429q-1 13 8 22t22 9q12 0 20.5 -8.5t9.5 -20.5q4 -119 6 -274q4 6 9 11q95 110 151 273q7 20 29 20
q13 0 21.5 -9t8.5 -21q0 -3 -2 -9q-58 -165 -149 -274q74 -38 105 -117t57 -255q2 -13 -7 -24t-23 -11zM176 -191q0 5 2 11q14 36 14 61q0 21 -9 35q-5 8 -5 16q0 12 8.5 20.5t20.5 8.5q15 0 24 -12q20 -29 20 -69q0 -39 -18 -82q-7 -18 -27 -18q-12 0 -21 8.5t-9 20.5z" />
    <glyph glyph-name="Lacute" unicode="&#x139;" horiz-adv-x="325" 
d="M176 -4q-37 0 -57 1q-59 3 -59 62q1 35 2 266t6 353q0 12 9 20.5t21 8.5q13 0 21.5 -9t8.5 -22q-5 -118 -6 -340.5t-2 -282.5q21 -1 58 -1q60 0 109 6q13 1 22.5 -7t9.5 -20q0 -11 -7 -19t-18 -9q-62 -7 -118 -7zM86 766q0 15 9 21q50 46 97 78q7 5 19 5q22 0 22 -23
q0 -15 -12 -24q-35 -23 -91 -74q-9 -7 -19 -7q-25 0 -25 24z" />
    <glyph glyph-name="lacute" unicode="&#x13a;" horiz-adv-x="325" 
d="M176 -4q-37 0 -57 1q-59 3 -59 62q1 35 2 266t6 353q0 12 9 20.5t21 8.5q13 0 21.5 -9t8.5 -22q-5 -118 -6 -340.5t-2 -282.5q21 -1 58 -1q60 0 109 6q13 1 22.5 -7t9.5 -20q0 -11 -7 -19t-18 -9q-62 -7 -118 -7zM86 766q0 15 9 21q50 46 97 78q7 5 19 5q22 0 22 -23
q0 -15 -12 -24q-35 -23 -91 -74q-9 -7 -19 -7q-25 0 -25 24z" />
    <glyph glyph-name="uni013B" unicode="&#x13b;" horiz-adv-x="325" 
d="M176 -4q-37 0 -57 1q-59 3 -59 62q1 35 2 266t6 353q0 12 9 20.5t21 8.5q13 0 21.5 -9t8.5 -22q-5 -118 -6 -340.5t-2 -282.5q21 -1 58 -1q60 0 109 6q13 1 22.5 -7t9.5 -20q0 -11 -7 -19t-18 -9q-62 -7 -118 -7zM151 -191q0 5 2 11q14 36 14 61q0 21 -9 35q-5 8 -5 16
q0 12 8.5 20.5t20.5 8.5q15 0 24 -12q20 -29 20 -69q0 -39 -18 -82q-7 -18 -27 -18q-12 0 -21 8.5t-9 20.5z" />
    <glyph glyph-name="uni013C" unicode="&#x13c;" horiz-adv-x="325" 
d="M176 -4q-37 0 -57 1q-59 3 -59 62q1 35 2 266t6 353q0 12 9 20.5t21 8.5q13 0 21.5 -9t8.5 -22q-5 -118 -6 -340.5t-2 -282.5q21 -1 58 -1q60 0 109 6q13 1 22.5 -7t9.5 -20q0 -11 -7 -19t-18 -9q-62 -7 -118 -7zM151 -191q0 5 2 11q14 36 14 61q0 21 -9 35q-5 8 -5 16
q0 12 8.5 20.5t20.5 8.5q15 0 24 -12q20 -29 20 -69q0 -39 -18 -82q-7 -18 -27 -18q-12 0 -21 8.5t-9 20.5z" />
    <glyph glyph-name="Lcaron" unicode="&#x13d;" horiz-adv-x="325" 
d="M176 -4q-37 0 -57 1q-59 3 -59 62q1 35 2 266t6 353q0 12 9 20.5t21 8.5q13 0 21.5 -9t8.5 -22q-5 -118 -6 -340.5t-2 -282.5q21 -1 58 -1q60 0 109 6q13 1 22.5 -7t9.5 -20q0 -11 -7 -19t-18 -9q-62 -7 -118 -7zM183 572q0 5 2 11q14 36 14 61q0 22 -9 35q-5 8 -5 16
q0 12 8.5 20.5t20.5 8.5q15 0 24 -12q20 -29 20 -69q0 -39 -18 -82q-7 -18 -27 -18q-12 0 -21 8.5t-9 20.5z" />
    <glyph glyph-name="lcaron" unicode="&#x13e;" horiz-adv-x="325" 
d="M176 -4q-37 0 -57 1q-59 3 -59 62q1 35 2 266t6 353q0 12 9 20.5t21 8.5q13 0 21.5 -9t8.5 -22q-5 -118 -6 -340.5t-2 -282.5q21 -1 58 -1q60 0 109 6q13 1 22.5 -7t9.5 -20q0 -11 -7 -19t-18 -9q-62 -7 -118 -7zM61 876q0 7 6.5 13t13.5 6q16 0 26 -16q5 -9 17.5 -28.5
t22.5 -35t14 -22.5l56 85q12 17 27 17q8 0 14 -6t6 -14t-3 -12q-14 -23 -45 -66q-5 -7 -12 -17.5t-11 -16t-10 -12t-11.5 -9t-11.5 -2.5q-20 0 -37 30q-14 23 -33 52t-26 41q-3 6 -3 13z" />
    <glyph glyph-name="Lslash" unicode="&#x141;" horiz-adv-x="325" 
d="M176 -4q-37 0 -57 1q-59 3 -59 62q1 33 1.5 107t0.5 111l-12 -11q-8 -8 -20 -8t-20.5 8.5t-8.5 20.5q0 13 9 21l52 50q2 219 6 320q0 12 9 20.5t21 8.5q13 0 21.5 -9t8.5 -22q-3 -83 -5 -260l83 80q8 8 20 8t20.5 -8.5t8.5 -20.5q0 -13 -9 -21l-124 -119q0 -200 -2 -282
q21 -1 58 -1q60 0 109 6q13 1 22.5 -7t9.5 -20q0 -11 -7 -19t-18 -9q-62 -7 -118 -7z" />
    <glyph glyph-name="lslash" unicode="&#x142;" horiz-adv-x="325" 
d="M176 -4q-37 0 -57 1q-59 3 -59 62q1 33 1.5 107t0.5 111l-12 -11q-8 -8 -20 -8t-20.5 8.5t-8.5 20.5q0 13 9 21l52 50q2 219 6 320q0 12 9 20.5t21 8.5q13 0 21.5 -9t8.5 -22q-3 -83 -5 -260l83 80q8 8 20 8t20.5 -8.5t8.5 -20.5q0 -13 -9 -21l-124 -119q0 -200 -2 -282
q21 -1 58 -1q60 0 109 6q13 1 22.5 -7t9.5 -20q0 -11 -7 -19t-18 -9q-62 -7 -118 -7z" />
    <glyph glyph-name="Nacute" unicode="&#x143;" horiz-adv-x="440" 
d="M346 -11q-30 0 -43 39q-31 85 -97.5 288t-88.5 266v-288t1 -274q0 -12 -8.5 -21t-19.5 -9q-12 0 -20 9t-8 21q-2 180 -2 581v59q1 23 12 36.5t26 13.5q30 0 43 -37q95 -247 178 -526v69q0 76 1.5 212t1.5 183v68q0 13 8 21.5t20 8.5q11 0 19 -8.5t8 -21.5q3 -144 3 -474
v-168q-1 -23 -10.5 -35.5t-23.5 -12.5zM163 766q0 15 9 21q50 46 97 78q7 5 19 5q22 0 22 -23q0 -15 -12 -24q-35 -23 -91 -74q-9 -7 -19 -7q-25 0 -25 24z" />
    <glyph glyph-name="nacute" unicode="&#x144;" horiz-adv-x="440" 
d="M346 -11q-30 0 -43 39q-31 85 -97.5 288t-88.5 266v-288t1 -274q0 -12 -8.5 -21t-19.5 -9q-12 0 -20 9t-8 21q-2 180 -2 581v59q1 23 12 36.5t26 13.5q30 0 43 -37q95 -247 178 -526v69q0 76 1.5 212t1.5 183v68q0 13 8 21.5t20 8.5q11 0 19 -8.5t8 -21.5q3 -144 3 -474
v-168q-1 -23 -10.5 -35.5t-23.5 -12.5zM163 766q0 15 9 21q50 46 97 78q7 5 19 5q22 0 22 -23q0 -15 -12 -24q-35 -23 -91 -74q-9 -7 -19 -7q-25 0 -25 24z" />
    <glyph glyph-name="uni0145" unicode="&#x145;" horiz-adv-x="440" 
d="M346 -11q-30 0 -43 39q-31 85 -97.5 288t-88.5 266v-288t1 -274q0 -12 -8.5 -21t-19.5 -9q-12 0 -20 9t-8 21q-2 180 -2 581v59q1 23 12 36.5t26 13.5q30 0 43 -37q95 -247 178 -526v69q0 76 1.5 212t1.5 183v68q0 13 8 21.5t20 8.5q11 0 19 -8.5t8 -21.5q3 -144 3 -474
v-168q-1 -23 -10.5 -35.5t-23.5 -12.5zM179 -191q0 5 2 11q14 36 14 61q0 21 -9 35q-5 8 -5 16q0 12 8.5 20.5t20.5 8.5q15 0 24 -12q20 -29 20 -69q0 -39 -18 -82q-7 -18 -27 -18q-12 0 -21 8.5t-9 20.5z" />
    <glyph glyph-name="uni0146" unicode="&#x146;" horiz-adv-x="440" 
d="M346 -11q-30 0 -43 39q-31 85 -97.5 288t-88.5 266v-288t1 -274q0 -12 -8.5 -21t-19.5 -9q-12 0 -20 9t-8 21q-2 180 -2 581v59q1 23 12 36.5t26 13.5q30 0 43 -37q95 -247 178 -526v69q0 76 1.5 212t1.5 183v68q0 13 8 21.5t20 8.5q11 0 19 -8.5t8 -21.5q3 -144 3 -474
v-168q-1 -23 -10.5 -35.5t-23.5 -12.5zM179 -191q0 5 2 11q14 36 14 61q0 21 -9 35q-5 8 -5 16q0 12 8.5 20.5t20.5 8.5q15 0 24 -12q20 -29 20 -69q0 -39 -18 -82q-7 -18 -27 -18q-12 0 -21 8.5t-9 20.5z" />
    <glyph glyph-name="Ncaron" unicode="&#x147;" horiz-adv-x="440" 
d="M346 -11q-30 0 -43 39q-31 85 -97.5 288t-88.5 266v-288t1 -274q0 -12 -8.5 -21t-19.5 -9q-12 0 -20 9t-8 21q-2 180 -2 581v59q1 23 12 36.5t26 13.5q30 0 43 -37q95 -247 178 -526v69q0 76 1.5 212t1.5 183v68q0 13 8 21.5t20 8.5q11 0 19 -8.5t8 -21.5q3 -144 3 -474
v-168q-1 -23 -10.5 -35.5t-23.5 -12.5zM138 876q0 7 6.5 13t13.5 6q16 0 26 -16q5 -9 17.5 -28.5t22.5 -35t14 -22.5l56 85q12 17 27 17q8 0 14 -6t6 -14t-3 -12q-14 -23 -45 -66q-5 -7 -12 -17.5t-11 -16t-10 -12t-11.5 -9t-11.5 -2.5q-20 0 -37 30q-14 23 -33 52t-26 41
q-3 6 -3 13z" />
    <glyph glyph-name="ncaron" unicode="&#x148;" horiz-adv-x="440" 
d="M346 -11q-30 0 -43 39q-31 85 -97.5 288t-88.5 266v-288t1 -274q0 -12 -8.5 -21t-19.5 -9q-12 0 -20 9t-8 21q-2 180 -2 581v59q1 23 12 36.5t26 13.5q30 0 43 -37q95 -247 178 -526v69q0 76 1.5 212t1.5 183v68q0 13 8 21.5t20 8.5q11 0 19 -8.5t8 -21.5q3 -144 3 -474
v-168q-1 -23 -10.5 -35.5t-23.5 -12.5zM138 876q0 7 6.5 13t13.5 6q16 0 26 -16q5 -9 17.5 -28.5t22.5 -35t14 -22.5l56 85q12 17 27 17q8 0 14 -6t6 -14t-3 -12q-14 -23 -45 -66q-5 -7 -12 -17.5t-11 -16t-10 -12t-11.5 -9t-11.5 -2.5q-20 0 -37 30q-14 23 -33 52t-26 41
q-3 6 -3 13z" />
    <glyph glyph-name="Eng" unicode="&#x14a;" horiz-adv-x="440" 
d="M251 -135q-11 0 -19.5 8.5t-8.5 19.5t8.5 19.5t19.5 8.5h11q52 0 57 80q-11 11 -16 27q-31 85 -97.5 288t-88.5 266v-288t1 -274q0 -12 -8.5 -21t-19.5 -9q-12 0 -20 9t-8 21q-2 180 -2 581v59q1 23 12 36.5t26 13.5q30 0 43 -37q95 -247 178 -526v69q0 76 1.5 212
t1.5 183v68q0 13 8 21.5t20 8.5q11 0 19 -8.5t8 -21.5q3 -144 3 -474v-163v-5v-17q0 -76 -32.5 -115.5t-85.5 -39.5h-11z" />
    <glyph glyph-name="eng" unicode="&#x14b;" horiz-adv-x="440" 
d="M251 -135q-11 0 -19.5 8.5t-8.5 19.5t8.5 19.5t19.5 8.5h11q52 0 57 80q-11 11 -16 27q-31 85 -97.5 288t-88.5 266v-288t1 -274q0 -12 -8.5 -21t-19.5 -9q-12 0 -20 9t-8 21q-2 180 -2 581v59q1 23 12 36.5t26 13.5q30 0 43 -37q95 -247 178 -526v69q0 76 1.5 212
t1.5 183v68q0 13 8 21.5t20 8.5q11 0 19 -8.5t8 -21.5q3 -144 3 -474v-163v-5v-17q0 -76 -32.5 -115.5t-85.5 -39.5h-11z" />
    <glyph glyph-name="Omacron" unicode="&#x14c;" horiz-adv-x="412" 
d="M210 -9q-33 0 -62.5 15.5t-43.5 39.5q-59 103 -59 331q0 205 51 282q39 61 107 61q38 0 72 -20.5t54 -58.5q38 -72 38 -208q0 -141 -21 -289q-11 -79 -49 -116t-87 -37zM105 377q0 -215 51 -303q17 -31 53 -31q26 0 48 26t30 83q20 149 20 281q0 124 -31 182
q-30 53 -71 53q-34 0 -59 -39q-41 -64 -41 -252zM122 768q0 11 8.5 19t19.5 9q58 2 113 2q12 0 20 -8t8 -20q0 -11 -8 -19.5t-19 -8.5q-14 0 -56.5 -1t-58.5 -1q-10 0 -18.5 8t-8.5 20z" />
    <glyph glyph-name="omacron" unicode="&#x14d;" horiz-adv-x="412" 
d="M210 -9q-33 0 -62.5 15.5t-43.5 39.5q-59 103 -59 331q0 205 51 282q39 61 107 61q38 0 72 -20.5t54 -58.5q38 -72 38 -208q0 -141 -21 -289q-11 -79 -49 -116t-87 -37zM105 377q0 -215 51 -303q17 -31 53 -31q26 0 48 26t30 83q20 149 20 281q0 124 -31 182
q-30 53 -71 53q-34 0 -59 -39q-41 -64 -41 -252zM122 768q0 11 8.5 19t19.5 9q58 2 113 2q12 0 20 -8t8 -20q0 -11 -8 -19.5t-19 -8.5q-14 0 -56.5 -1t-58.5 -1q-10 0 -18.5 8t-8.5 20z" />
    <glyph glyph-name="Ohungarumlaut" unicode="&#x150;" horiz-adv-x="412" 
d="M210 -9q-33 0 -62.5 15.5t-43.5 39.5q-59 103 -59 331q0 205 51 282q39 61 107 61q38 0 72 -20.5t54 -58.5q38 -72 38 -208q0 -141 -21 -289q-11 -79 -49 -116t-87 -37zM78 766q0 15 9 21q50 46 97 78q7 5 19 5q22 0 22 -23q0 -15 -12 -24q-35 -23 -91 -74q-9 -7 -19 -7
q-25 0 -25 24zM105 377q0 -215 51 -303q17 -31 53 -31q26 0 48 26t30 83q20 149 20 281q0 124 -31 182q-30 53 -71 53q-34 0 -59 -39q-41 -64 -41 -252zM185 767q0 15 9 21q50 46 97 78q7 5 19 5q22 0 22 -23q0 -15 -12 -24q-35 -23 -91 -74q-9 -7 -19 -7q-25 0 -25 24z" />
    <glyph glyph-name="ohungarumlaut" unicode="&#x151;" horiz-adv-x="412" 
d="M210 -9q-33 0 -62.5 15.5t-43.5 39.5q-59 103 -59 331q0 205 51 282q39 61 107 61q38 0 72 -20.5t54 -58.5q38 -72 38 -208q0 -141 -21 -289q-11 -79 -49 -116t-87 -37zM78 766q0 15 9 21q50 46 97 78q7 5 19 5q22 0 22 -23q0 -15 -12 -24q-35 -23 -91 -74q-9 -7 -19 -7
q-25 0 -25 24zM105 377q0 -215 51 -303q17 -31 53 -31q26 0 48 26t30 83q20 149 20 281q0 124 -31 182q-30 53 -71 53q-34 0 -59 -39q-41 -64 -41 -252zM185 767q0 15 9 21q50 46 97 78q7 5 19 5q22 0 22 -23q0 -15 -12 -24q-35 -23 -91 -74q-9 -7 -19 -7q-25 0 -25 24z" />
    <glyph glyph-name="OE" unicode="&#x152;" horiz-adv-x="516" 
d="M210 -4q-33 0 -62.5 15.5t-43.5 39.5q-59 103 -59 326q0 189 51 266q39 61 107 61q26 0 54.5 -0.5t45.5 -0.5l145 -3q12 0 20 -8.5t8 -19.5q0 -12 -8.5 -20t-20.5 -8l-144 3q0 -35 1 -75.5t2.5 -90t2.5 -76.5l107 -3q11 0 19 -8.5t8 -19.5q0 -12 -8.5 -20t-20.5 -8
l-104 3v-14q0 -56 -2 -154t-2 -129l145 5q11 0 20 -8t9 -20q0 -11 -8.5 -19t-19.5 -9q-136 -5 -242 -5zM105 377q0 -211 50 -294q19 -31 54 -31h37q2 136 2 283q0 38 -2.5 147t-2.5 170h-38q-34 0 -59 -39q-41 -64 -41 -236z" />
    <glyph glyph-name="oe" unicode="&#x153;" horiz-adv-x="516" 
d="M210 -4q-33 0 -62.5 15.5t-43.5 39.5q-59 103 -59 326q0 189 51 266q39 61 107 61q26 0 54.5 -0.5t45.5 -0.5l145 -3q12 0 20 -8.5t8 -19.5q0 -12 -8.5 -20t-20.5 -8l-144 3q0 -35 1 -75.5t2.5 -90t2.5 -76.5l107 -3q11 0 19 -8.5t8 -19.5q0 -12 -8.5 -20t-20.5 -8
l-104 3v-14q0 -56 -2 -154t-2 -129l145 5q11 0 20 -8t9 -20q0 -11 -8.5 -19t-19.5 -9q-136 -5 -242 -5zM105 377q0 -211 50 -294q19 -31 54 -31h37q2 136 2 283q0 38 -2.5 147t-2.5 170h-38q-34 0 -59 -39q-41 -64 -41 -236z" />
    <glyph glyph-name="Racute" unicode="&#x154;" horiz-adv-x="355" 
d="M96 -11q-13 0 -21.5 9t-8.5 22v53q0 235 -6 595q0 24 28 32q34 9 60 9q61 0 101.5 -39t40.5 -124q0 -109 -109 -137q65 -59 102 -147t54 -237q1 -13 -7.5 -23.5t-21.5 -10.5q-26 0 -30 27q-17 152 -52.5 235.5t-101.5 147.5q2 -230 2 -329v-53q0 -12 -8.5 -21t-21.5 -9z
M109 766q0 15 9 21q50 46 97 78q7 5 19 5q22 0 22 -23q0 -15 -12 -24q-35 -23 -91 -74q-9 -7 -19 -7q-25 0 -25 24zM120 651l3 -204q107 5 107 96q0 112 -79 112q-16 0 -31 -4z" />
    <glyph glyph-name="racute" unicode="&#x155;" horiz-adv-x="355" 
d="M96 -11q-13 0 -21.5 9t-8.5 22v53q0 235 -6 595q0 24 28 32q34 9 60 9q61 0 101.5 -39t40.5 -124q0 -109 -109 -137q65 -59 102 -147t54 -237q1 -13 -7.5 -23.5t-21.5 -10.5q-26 0 -30 27q-17 152 -52.5 235.5t-101.5 147.5q2 -230 2 -329v-53q0 -12 -8.5 -21t-21.5 -9z
M109 766q0 15 9 21q50 46 97 78q7 5 19 5q22 0 22 -23q0 -15 -12 -24q-35 -23 -91 -74q-9 -7 -19 -7q-25 0 -25 24zM120 651l3 -204q107 5 107 96q0 112 -79 112q-16 0 -31 -4z" />
    <glyph glyph-name="uni0156" unicode="&#x156;" horiz-adv-x="355" 
d="M96 -11q-13 0 -21.5 9t-8.5 22v53q0 235 -6 595q0 24 28 32q34 9 60 9q61 0 101.5 -39t40.5 -124q0 -109 -109 -137q65 -59 102 -147t54 -237q1 -13 -7.5 -23.5t-21.5 -10.5q-26 0 -30 27q-17 152 -52.5 235.5t-101.5 147.5q2 -230 2 -329v-53q0 -12 -8.5 -21t-21.5 -9z
M120 651l3 -204q107 5 107 96q0 112 -79 112q-16 0 -31 -4zM158 -191q0 5 2 11q14 36 14 61q0 21 -9 35q-5 8 -5 16q0 12 8.5 20.5t20.5 8.5q15 0 24 -12q20 -29 20 -69q0 -39 -18 -82q-7 -18 -27 -18q-12 0 -21 8.5t-9 20.5z" />
    <glyph glyph-name="uni0157" unicode="&#x157;" horiz-adv-x="355" 
d="M96 -11q-13 0 -21.5 9t-8.5 22v53q0 235 -6 595q0 24 28 32q34 9 60 9q61 0 101.5 -39t40.5 -124q0 -109 -109 -137q65 -59 102 -147t54 -237q1 -13 -7.5 -23.5t-21.5 -10.5q-26 0 -30 27q-17 152 -52.5 235.5t-101.5 147.5q2 -230 2 -329v-53q0 -12 -8.5 -21t-21.5 -9z
M120 651l3 -204q107 5 107 96q0 112 -79 112q-16 0 -31 -4zM158 -191q0 5 2 11q14 36 14 61q0 21 -9 35q-5 8 -5 16q0 12 8.5 20.5t20.5 8.5q15 0 24 -12q20 -29 20 -69q0 -39 -18 -82q-7 -18 -27 -18q-12 0 -21 8.5t-9 20.5z" />
    <glyph glyph-name="Rcaron" unicode="&#x158;" horiz-adv-x="355" 
d="M96 -11q-13 0 -21.5 9t-8.5 22v53q0 235 -6 595q0 24 28 32q34 9 60 9q61 0 101.5 -39t40.5 -124q0 -109 -109 -137q65 -59 102 -147t54 -237q1 -13 -7.5 -23.5t-21.5 -10.5q-26 0 -30 27q-17 152 -52.5 235.5t-101.5 147.5q2 -230 2 -329v-53q0 -12 -8.5 -21t-21.5 -9z
M84 876q0 7 6.5 13t13.5 6q16 0 26 -16q5 -9 17.5 -28.5t22.5 -35t14 -22.5l56 85q12 17 27 17q8 0 14 -6t6 -14t-3 -12q-14 -23 -45 -66q-5 -7 -12 -17.5t-11 -16t-10 -12t-11.5 -9t-11.5 -2.5q-20 0 -37 30q-14 23 -33 52t-26 41q-3 6 -3 13zM120 651l3 -204q107 5 107 96
q0 112 -79 112q-16 0 -31 -4z" />
    <glyph glyph-name="rcaron" unicode="&#x159;" horiz-adv-x="355" 
d="M96 -11q-13 0 -21.5 9t-8.5 22v53q0 235 -6 595q0 24 28 32q34 9 60 9q61 0 101.5 -39t40.5 -124q0 -109 -109 -137q65 -59 102 -147t54 -237q1 -13 -7.5 -23.5t-21.5 -10.5q-26 0 -30 27q-17 152 -52.5 235.5t-101.5 147.5q2 -230 2 -329v-53q0 -12 -8.5 -21t-21.5 -9z
M84 876q0 7 6.5 13t13.5 6q16 0 26 -16q5 -9 17.5 -28.5t22.5 -35t14 -22.5l56 85q12 17 27 17q8 0 14 -6t6 -14t-3 -12q-14 -23 -45 -66q-5 -7 -12 -17.5t-11 -16t-10 -12t-11.5 -9t-11.5 -2.5q-20 0 -37 30q-14 23 -33 52t-26 41q-3 6 -3 13zM120 651l3 -204q107 5 107 96
q0 112 -79 112q-16 0 -31 -4z" />
    <glyph glyph-name="Sacute" unicode="&#x15a;" horiz-adv-x="332" 
d="M167 -20q-54 0 -95.5 38.5t-41.5 63.5q0 12 8.5 21t21.5 9q19 0 26 -17q31 -64 83 -64q32 0 55 31t23 87q0 100 -81 203q-5 6 -37 44.5t-43.5 55t-25.5 50t-14 64.5q0 63 28 107.5t87 44.5q71 0 125 -76q6 -6 6 -17q0 -12 -8.5 -20.5t-20.5 -8.5q-15 0 -24 12
q-21 30 -37.5 42t-40.5 12q-55 0 -55 -96q0 -19 5 -36.5t18 -37.5t21 -30.5t29.5 -36t27.5 -32.5q101 -123 101 -241q-1 -81 -42 -126.5t-99 -45.5zM99 766q0 15 9 21q50 46 97 78q7 5 19 5q22 0 22 -23q0 -15 -12 -24q-35 -23 -91 -74q-9 -7 -19 -7q-25 0 -25 24z" />
    <glyph glyph-name="sacute" unicode="&#x15b;" horiz-adv-x="332" 
d="M167 -20q-54 0 -95.5 38.5t-41.5 63.5q0 12 8.5 21t21.5 9q19 0 26 -17q31 -64 83 -64q32 0 55 31t23 87q0 100 -81 203q-5 6 -37 44.5t-43.5 55t-25.5 50t-14 64.5q0 63 28 107.5t87 44.5q71 0 125 -76q6 -6 6 -17q0 -12 -8.5 -20.5t-20.5 -8.5q-15 0 -24 12
q-21 30 -37.5 42t-40.5 12q-55 0 -55 -96q0 -19 5 -36.5t18 -37.5t21 -30.5t29.5 -36t27.5 -32.5q101 -123 101 -241q-1 -81 -42 -126.5t-99 -45.5zM99 766q0 15 9 21q50 46 97 78q7 5 19 5q22 0 22 -23q0 -15 -12 -24q-35 -23 -91 -74q-9 -7 -19 -7q-25 0 -25 24z" />
    <glyph glyph-name="Scircumflex" unicode="&#x15c;" horiz-adv-x="332" 
d="M167 -20q-54 0 -95.5 38.5t-41.5 63.5q0 12 8.5 21t21.5 9q19 0 26 -17q31 -64 83 -64q32 0 55 31t23 87q0 100 -81 203q-5 6 -37 44.5t-43.5 55t-25.5 50t-14 64.5q0 63 28 107.5t87 44.5q71 0 125 -76q6 -6 6 -17q0 -12 -8.5 -20.5t-20.5 -8.5q-15 0 -24 12
q-21 30 -37.5 42t-40.5 12q-55 0 -55 -96q0 -19 5 -36.5t18 -37.5t21 -30.5t29.5 -36t27.5 -32.5q101 -123 101 -241q-1 -81 -42 -126.5t-99 -45.5zM74 759q0 7 3 13q7 12 26 41t33 52q17 30 37 30q6 0 11.5 -2.5t11.5 -9t10 -12t11 -16t12 -17.5q31 -43 45 -66q3 -4 3 -12
t-6 -14t-14 -6q-15 0 -27 17l-56 85q-4 -7 -14 -22.5t-22.5 -35t-17.5 -28.5q-10 -16 -26 -16q-7 0 -13.5 6t-6.5 13z" />
    <glyph glyph-name="scircumflex" unicode="&#x15d;" horiz-adv-x="332" 
d="M167 -20q-54 0 -95.5 38.5t-41.5 63.5q0 12 8.5 21t21.5 9q19 0 26 -17q31 -64 83 -64q32 0 55 31t23 87q0 100 -81 203q-5 6 -37 44.5t-43.5 55t-25.5 50t-14 64.5q0 63 28 107.5t87 44.5q71 0 125 -76q6 -6 6 -17q0 -12 -8.5 -20.5t-20.5 -8.5q-15 0 -24 12
q-21 30 -37.5 42t-40.5 12q-55 0 -55 -96q0 -19 5 -36.5t18 -37.5t21 -30.5t29.5 -36t27.5 -32.5q101 -123 101 -241q-1 -81 -42 -126.5t-99 -45.5zM74 759q0 7 3 13q7 12 26 41t33 52q17 30 37 30q6 0 11.5 -2.5t11.5 -9t10 -12t11 -16t12 -17.5q31 -43 45 -66q3 -4 3 -12
t-6 -14t-14 -6q-15 0 -27 17l-56 85q-4 -7 -14 -22.5t-22.5 -35t-17.5 -28.5q-10 -16 -26 -16q-7 0 -13.5 6t-6.5 13z" />
    <glyph glyph-name="Scedilla" unicode="&#x15e;" horiz-adv-x="332" 
d="M148 -199q-26 0 -55 6q-22 5 -22 27q0 14 11 22.5t23 5.5q32 -8 50 -8q39 0 39 26q0 17 -14 17q-6 0 -18 -3q-21 -6 -35 -6q-28 0 -28 24q0 15 25 40l29 29q-49 5 -86 41.5t-37 59.5q0 12 8.5 21t21.5 9q19 0 26 -17q31 -64 83 -64q32 0 55 31t23 87q0 100 -81 203
q-5 6 -37 44.5t-43.5 55t-25.5 50t-14 64.5q0 63 28 107.5t87 44.5q71 0 125 -76q6 -6 6 -17q0 -12 -8.5 -20.5t-20.5 -8.5q-15 0 -24 12q-21 30 -37.5 42t-40.5 12q-55 0 -55 -96q0 -19 5 -36.5t18 -37.5t21 -30.5t29.5 -36t27.5 -32.5q101 -123 101 -241
q-1 -76 -37 -120.5t-89 -50.5l-29 -45q49 14 74.5 -4.5t26.5 -51.5q0 -38 -29 -58.5t-77 -20.5z" />
    <glyph glyph-name="scedilla" unicode="&#x15f;" horiz-adv-x="332" 
d="M148 -199q-26 0 -55 6q-22 5 -22 27q0 14 11 22.5t23 5.5q32 -8 50 -8q39 0 39 26q0 17 -14 17q-6 0 -18 -3q-21 -6 -35 -6q-28 0 -28 24q0 15 25 40l29 29q-49 5 -86 41.5t-37 59.5q0 12 8.5 21t21.5 9q19 0 26 -17q31 -64 83 -64q32 0 55 31t23 87q0 100 -81 203
q-5 6 -37 44.5t-43.5 55t-25.5 50t-14 64.5q0 63 28 107.5t87 44.5q71 0 125 -76q6 -6 6 -17q0 -12 -8.5 -20.5t-20.5 -8.5q-15 0 -24 12q-21 30 -37.5 42t-40.5 12q-55 0 -55 -96q0 -19 5 -36.5t18 -37.5t21 -30.5t29.5 -36t27.5 -32.5q101 -123 101 -241
q-1 -76 -37 -120.5t-89 -50.5l-29 -45q49 14 74.5 -4.5t26.5 -51.5q0 -38 -29 -58.5t-77 -20.5z" />
    <glyph glyph-name="Scaron" unicode="&#x160;" horiz-adv-x="332" 
d="M167 -20q-54 0 -95.5 38.5t-41.5 63.5q0 12 8.5 21t21.5 9q19 0 26 -17q31 -64 83 -64q32 0 55 31t23 87q0 100 -81 203q-5 6 -37 44.5t-43.5 55t-25.5 50t-14 64.5q0 63 28 107.5t87 44.5q71 0 125 -76q6 -6 6 -17q0 -12 -8.5 -20.5t-20.5 -8.5q-15 0 -24 12
q-21 30 -37.5 42t-40.5 12q-55 0 -55 -96q0 -19 5 -36.5t18 -37.5t21 -30.5t29.5 -36t27.5 -32.5q101 -123 101 -241q-1 -81 -42 -126.5t-99 -45.5zM74 876q0 7 6.5 13t13.5 6q16 0 26 -16q5 -9 17.5 -28.5t22.5 -35t14 -22.5l56 85q12 17 27 17q8 0 14 -6t6 -14t-3 -12
q-14 -23 -45 -66q-5 -7 -12 -17.5t-11 -16t-10 -12t-11.5 -9t-11.5 -2.5q-20 0 -37 30q-14 23 -33 52t-26 41q-3 6 -3 13z" />
    <glyph glyph-name="scaron" unicode="&#x161;" horiz-adv-x="332" 
d="M167 -20q-54 0 -95.5 38.5t-41.5 63.5q0 12 8.5 21t21.5 9q19 0 26 -17q31 -64 83 -64q32 0 55 31t23 87q0 100 -81 203q-5 6 -37 44.5t-43.5 55t-25.5 50t-14 64.5q0 63 28 107.5t87 44.5q71 0 125 -76q6 -6 6 -17q0 -12 -8.5 -20.5t-20.5 -8.5q-15 0 -24 12
q-21 30 -37.5 42t-40.5 12q-55 0 -55 -96q0 -19 5 -36.5t18 -37.5t21 -30.5t29.5 -36t27.5 -32.5q101 -123 101 -241q-1 -81 -42 -126.5t-99 -45.5zM74 876q0 7 6.5 13t13.5 6q16 0 26 -16q5 -9 17.5 -28.5t22.5 -35t14 -22.5l56 85q12 17 27 17q8 0 14 -6t6 -14t-3 -12
q-14 -23 -45 -66q-5 -7 -12 -17.5t-11 -16t-10 -12t-11.5 -9t-11.5 -2.5q-20 0 -37 30q-14 23 -33 52t-26 41q-3 6 -3 13z" />
    <glyph glyph-name="uni0162" unicode="&#x162;" horiz-adv-x="328" 
d="M122 649q-50 0 -90 4q-11 1 -18.5 9t-7.5 19q0 12 9.5 20.5t21.5 7.5q39 -4 86 -4q24 0 52.5 1t63 2.5t53.5 2.5q12 1 21 -7.5t9 -20.5q0 -11 -8 -19t-19 -9l-99 -4q-2 -64 -2 -115q0 -87 3.5 -288t3.5 -228q0 -12 -9 -23l-36 -54q49 14 74.5 -4.5t26.5 -51.5
q0 -38 -29 -58.5t-77 -20.5q-27 0 -55 6q-22 5 -22 27q0 14 11 22.5t23 5.5q32 -8 50 -8q39 0 39 26q0 17 -14 17q-6 0 -18 -3q-21 -6 -35 -6q-28 0 -28 24q0 15 25 40l33 32q-19 9 -19 28q0 24 -3.5 226.5t-3.5 290.5q0 51 2 113h-14z" />
    <glyph glyph-name="uni0163" unicode="&#x163;" horiz-adv-x="328" 
d="M122 649q-50 0 -90 4q-11 1 -18.5 9t-7.5 19q0 12 9.5 20.5t21.5 7.5q39 -4 86 -4q24 0 52.5 1t63 2.5t53.5 2.5q12 1 21 -7.5t9 -20.5q0 -11 -8 -19t-19 -9l-99 -4q-2 -64 -2 -115q0 -87 3.5 -288t3.5 -228q0 -12 -9 -23l-36 -54q49 14 74.5 -4.5t26.5 -51.5
q0 -38 -29 -58.5t-77 -20.5q-27 0 -55 6q-22 5 -22 27q0 14 11 22.5t23 5.5q32 -8 50 -8q39 0 39 26q0 17 -14 17q-6 0 -18 -3q-21 -6 -35 -6q-28 0 -28 24q0 15 25 40l33 32q-19 9 -19 28q0 24 -3.5 226.5t-3.5 290.5q0 51 2 113h-14z" />
    <glyph glyph-name="Tcaron" unicode="&#x164;" horiz-adv-x="328" 
d="M171 -11q-12 0 -21 9t-9 21q0 24 -3.5 226.5t-3.5 290.5q0 51 2 113h-14q-50 0 -90 4q-11 1 -18.5 9t-7.5 19q0 12 9.5 20.5t21.5 7.5q39 -4 86 -4q24 0 52.5 1t63 2.5t53.5 2.5q12 1 21 -7.5t9 -20.5q0 -11 -8 -19t-19 -9l-99 -4q-2 -64 -2 -115q0 -87 3.5 -288
t3.5 -228q0 -13 -8.5 -22t-21.5 -9zM62 876q0 7 6.5 13t13.5 6q16 0 26 -16q5 -9 17.5 -28.5t22.5 -35t14 -22.5l56 85q12 17 27 17q8 0 14 -6t6 -14t-3 -12q-14 -23 -45 -66q-5 -7 -12 -17.5t-11 -16t-10 -12t-11.5 -9t-11.5 -2.5q-20 0 -37 30q-14 23 -33 52t-26 41
q-3 6 -3 13z" />
    <glyph glyph-name="tcaron" unicode="&#x165;" horiz-adv-x="328" 
d="M171 -11q-12 0 -21 9t-9 21q0 24 -3.5 226.5t-3.5 290.5q0 51 2 113h-14q-50 0 -90 4q-11 1 -18.5 9t-7.5 19q0 12 9.5 20.5t21.5 7.5q39 -4 86 -4q24 0 52.5 1t63 2.5t53.5 2.5q12 1 21 -7.5t9 -20.5q0 -11 -8 -19t-19 -9l-99 -4q-2 -64 -2 -115q0 -87 3.5 -288
t3.5 -228q0 -13 -8.5 -22t-21.5 -9zM62 876q0 7 6.5 13t13.5 6q16 0 26 -16q5 -9 17.5 -28.5t22.5 -35t14 -22.5l56 85q12 17 27 17q8 0 14 -6t6 -14t-3 -12q-14 -23 -45 -66q-5 -7 -12 -17.5t-11 -16t-10 -12t-11.5 -9t-11.5 -2.5q-20 0 -37 30q-14 23 -33 52t-26 41
q-3 6 -3 13z" />
    <glyph glyph-name="Tbar" unicode="&#x166;" horiz-adv-x="328" 
d="M171 -11q-12 0 -21 9t-9 21q-1 102 -5 300l-49 2q-11 1 -18.5 9t-7.5 19q0 12 9 20.5t21 7.5q30 -2 44 -2q0 30 -0.5 84t-0.5 77q0 51 2 113h-14q-50 0 -90 4q-11 1 -18.5 9t-7.5 19q0 12 9.5 20.5t21.5 7.5q39 -4 86 -4q24 0 52.5 1t63 2.5t53.5 2.5q12 1 21 -7.5
t9 -20.5q0 -11 -8 -19t-19 -9l-99 -4q-2 -64 -2 -115q0 -23 0.5 -76.5t0.5 -83.5q18 1 39 5q13 3 23.5 -5.5t10.5 -21.5q0 -23 -23 -28q-21 -4 -49 -6q4 -199 5 -300q0 -13 -8.5 -22t-21.5 -9z" />
    <glyph glyph-name="tbar" unicode="&#x167;" horiz-adv-x="328" 
d="M171 -11q-12 0 -21 9t-9 21q-1 102 -5 300l-49 2q-11 1 -18.5 9t-7.5 19q0 12 9 20.5t21 7.5q30 -2 44 -2q0 30 -0.5 84t-0.5 77q0 51 2 113h-14q-50 0 -90 4q-11 1 -18.5 9t-7.5 19q0 12 9.5 20.5t21.5 7.5q39 -4 86 -4q24 0 52.5 1t63 2.5t53.5 2.5q12 1 21 -7.5
t9 -20.5q0 -11 -8 -19t-19 -9l-99 -4q-2 -64 -2 -115q0 -23 0.5 -76.5t0.5 -83.5q18 1 39 5q13 3 23.5 -5.5t10.5 -21.5q0 -23 -23 -28q-21 -4 -49 -6q4 -199 5 -300q0 -13 -8.5 -22t-21.5 -9z" />
    <glyph glyph-name="Utilde" unicode="&#x168;" horiz-adv-x="396" 
d="M195 -19q-48 0 -85 47t-48 138q-8 69 -8 199q0 61 2 172t2 142q0 13 8.5 21.5t21.5 8.5q12 0 21 -8.5t9 -21.5q0 -32 -2 -142t-2 -170q0 -128 8 -195q8 -69 29.5 -104t48.5 -35q33 0 57.5 48.5t24.5 127.5q0 80 -3 192.5t-3 203.5v74q0 12 8.5 21t21.5 9q12 0 21 -9
t9 -21v-51q0 -103 3 -222t3 -197q0 -102 -44.5 -165t-102.5 -63zM74 788q16 80 69 80q43 0 82 -54q16 -23 27 -23q12 0 11 31q0 12 8.5 21t21.5 9q12 0 21 -8.5t9 -21.5q-1 -40 -21.5 -61t-49.5 -21q-46 0 -76 42q-24 35 -32 35q-9 0 -12 -38q-2 -11 -10 -18.5t-20 -7.5
q-14 0 -22.5 11t-5.5 24z" />
    <glyph glyph-name="utilde" unicode="&#x169;" horiz-adv-x="396" 
d="M195 -19q-48 0 -85 47t-48 138q-8 69 -8 199q0 61 2 172t2 142q0 13 8.5 21.5t21.5 8.5q12 0 21 -8.5t9 -21.5q0 -32 -2 -142t-2 -170q0 -128 8 -195q8 -69 29.5 -104t48.5 -35q33 0 57.5 48.5t24.5 127.5q0 80 -3 192.5t-3 203.5v74q0 12 8.5 21t21.5 9q12 0 21 -9
t9 -21v-51q0 -103 3 -222t3 -197q0 -102 -44.5 -165t-102.5 -63zM74 788q16 80 69 80q43 0 82 -54q16 -23 27 -23q12 0 11 31q0 12 8.5 21t21.5 9q12 0 21 -8.5t9 -21.5q-1 -40 -21.5 -61t-49.5 -21q-46 0 -76 42q-24 35 -32 35q-9 0 -12 -38q-2 -11 -10 -18.5t-20 -7.5
q-14 0 -22.5 11t-5.5 24z" />
    <glyph glyph-name="Umacron" unicode="&#x16a;" horiz-adv-x="396" 
d="M195 -19q-48 0 -85 47t-48 138q-8 69 -8 199q0 61 2 172t2 142q0 13 8.5 21.5t21.5 8.5q12 0 21 -8.5t9 -21.5q0 -32 -2 -142t-2 -170q0 -128 8 -195q8 -69 29.5 -104t48.5 -35q33 0 57.5 48.5t24.5 127.5q0 80 -3 192.5t-3 203.5v74q0 12 8.5 21t21.5 9q12 0 21 -9
t9 -21v-51q0 -103 3 -222t3 -197q0 -102 -44.5 -165t-102.5 -63zM114 768q0 11 8.5 19t19.5 9q58 2 113 2q12 0 20 -8t8 -20q0 -11 -8 -19.5t-19 -8.5q-14 0 -56.5 -1t-58.5 -1q-10 0 -18.5 8t-8.5 20z" />
    <glyph glyph-name="umacron" unicode="&#x16b;" horiz-adv-x="396" 
d="M195 -19q-48 0 -85 47t-48 138q-8 69 -8 199q0 61 2 172t2 142q0 13 8.5 21.5t21.5 8.5q12 0 21 -8.5t9 -21.5q0 -32 -2 -142t-2 -170q0 -128 8 -195q8 -69 29.5 -104t48.5 -35q33 0 57.5 48.5t24.5 127.5q0 80 -3 192.5t-3 203.5v74q0 12 8.5 21t21.5 9q12 0 21 -9
t9 -21v-51q0 -103 3 -222t3 -197q0 -102 -44.5 -165t-102.5 -63zM114 768q0 11 8.5 19t19.5 9q58 2 113 2q12 0 20 -8t8 -20q0 -11 -8 -19.5t-19 -8.5q-14 0 -56.5 -1t-58.5 -1q-10 0 -18.5 8t-8.5 20z" />
    <glyph glyph-name="Ubreve" unicode="&#x16c;" horiz-adv-x="396" 
d="M195 -19q-48 0 -85 47t-48 138q-8 69 -8 199q0 61 2 172t2 142q0 13 8.5 21.5t21.5 8.5q12 0 21 -8.5t9 -21.5q0 -32 -2 -142t-2 -170q0 -128 8 -195q8 -69 29.5 -104t48.5 -35q33 0 57.5 48.5t24.5 127.5q0 80 -3 192.5t-3 203.5v74q0 12 8.5 21t21.5 9q12 0 21 -9
t9 -21v-51q0 -103 3 -222t3 -197q0 -102 -44.5 -165t-102.5 -63zM105 821q0 25 25 25q16 0 26 -21q21 -34 42 -34q13 0 21.5 7.5t21.5 26.5q9 18 28 18q21 0 21 -25q0 -4 -2 -12q-29 -66 -90 -66q-66 0 -91 72q-2 6 -2 9z" />
    <glyph glyph-name="ubreve" unicode="&#x16d;" horiz-adv-x="396" 
d="M195 -19q-48 0 -85 47t-48 138q-8 69 -8 199q0 61 2 172t2 142q0 13 8.5 21.5t21.5 8.5q12 0 21 -8.5t9 -21.5q0 -32 -2 -142t-2 -170q0 -128 8 -195q8 -69 29.5 -104t48.5 -35q33 0 57.5 48.5t24.5 127.5q0 80 -3 192.5t-3 203.5v74q0 12 8.5 21t21.5 9q12 0 21 -9
t9 -21v-51q0 -103 3 -222t3 -197q0 -102 -44.5 -165t-102.5 -63zM105 821q0 25 25 25q16 0 26 -21q21 -34 42 -34q13 0 21.5 7.5t21.5 26.5q9 18 28 18q21 0 21 -25q0 -4 -2 -12q-29 -66 -90 -66q-66 0 -91 72q-2 6 -2 9z" />
    <glyph glyph-name="Uring" unicode="&#x16e;" horiz-adv-x="396" 
d="M195 -19q-48 0 -85 47t-48 138q-8 69 -8 199q0 61 2 172t2 142q0 13 8.5 21.5t21.5 8.5q12 0 21 -8.5t9 -21.5q0 -32 -2 -142t-2 -170q0 -128 8 -195q8 -69 29.5 -104t48.5 -35q33 0 57.5 48.5t24.5 127.5q0 80 -3 192.5t-3 203.5v74q0 12 8.5 21t21.5 9q12 0 21 -9
t9 -21v-51q0 -103 3 -222t3 -197q0 -102 -44.5 -165t-102.5 -63zM127 826q0 32 19 55.5t45 23.5q31 0 56 -24t25 -65q0 -32 -22.5 -54t-51.5 -22t-50 23.5t-21 62.5zM178 836q0 -55 19 -55q24 0 24 31q0 52 -23 52q-20 0 -20 -28z" />
    <glyph glyph-name="uring" unicode="&#x16f;" horiz-adv-x="396" 
d="M195 -19q-48 0 -85 47t-48 138q-8 69 -8 199q0 61 2 172t2 142q0 13 8.5 21.5t21.5 8.5q12 0 21 -8.5t9 -21.5q0 -32 -2 -142t-2 -170q0 -128 8 -195q8 -69 29.5 -104t48.5 -35q33 0 57.5 48.5t24.5 127.5q0 80 -3 192.5t-3 203.5v74q0 12 8.5 21t21.5 9q12 0 21 -9
t9 -21v-51q0 -103 3 -222t3 -197q0 -102 -44.5 -165t-102.5 -63zM127 826q0 32 19 55.5t45 23.5q31 0 56 -24t25 -65q0 -32 -22.5 -54t-51.5 -22t-50 23.5t-21 62.5zM178 836q0 -55 19 -55q24 0 24 31q0 52 -23 52q-20 0 -20 -28z" />
    <glyph glyph-name="Uhungarumlaut" unicode="&#x170;" horiz-adv-x="396" 
d="M195 -19q-48 0 -85 47t-48 138q-8 69 -8 199q0 61 2 172t2 142q0 13 8.5 21.5t21.5 8.5q12 0 21 -8.5t9 -21.5q0 -32 -2 -142t-2 -170q0 -128 8 -195q8 -69 29.5 -104t48.5 -35q33 0 57.5 48.5t24.5 127.5q0 80 -3 192.5t-3 203.5v74q0 12 8.5 21t21.5 9q12 0 21 -9
t9 -21v-51q0 -103 3 -222t3 -197q0 -102 -44.5 -165t-102.5 -63zM70 766q0 15 9 21q50 46 97 78q7 5 19 5q22 0 22 -23q0 -15 -12 -24q-35 -23 -91 -74q-9 -7 -19 -7q-25 0 -25 24zM177 767q0 15 9 21q50 46 97 78q7 5 19 5q22 0 22 -23q0 -15 -12 -24q-35 -23 -91 -74
q-9 -7 -19 -7q-25 0 -25 24z" />
    <glyph glyph-name="uhungarumlaut" unicode="&#x171;" horiz-adv-x="396" 
d="M195 -19q-48 0 -85 47t-48 138q-8 69 -8 199q0 61 2 172t2 142q0 13 8.5 21.5t21.5 8.5q12 0 21 -8.5t9 -21.5q0 -32 -2 -142t-2 -170q0 -128 8 -195q8 -69 29.5 -104t48.5 -35q33 0 57.5 48.5t24.5 127.5q0 80 -3 192.5t-3 203.5v74q0 12 8.5 21t21.5 9q12 0 21 -9
t9 -21v-51q0 -103 3 -222t3 -197q0 -102 -44.5 -165t-102.5 -63zM70 766q0 15 9 21q50 46 97 78q7 5 19 5q22 0 22 -23q0 -15 -12 -24q-35 -23 -91 -74q-9 -7 -19 -7q-25 0 -25 24zM177 767q0 15 9 21q50 46 97 78q7 5 19 5q22 0 22 -23q0 -15 -12 -24q-35 -23 -91 -74
q-9 -7 -19 -7q-25 0 -25 24z" />
    <glyph glyph-name="Uogonek" unicode="&#x172;" horiz-adv-x="396" 
d="M269 -125q-42 0 -63.5 20t-21.5 52q0 19 10 34q-48 1 -84.5 47.5t-47.5 137.5q-8 69 -8 199q0 61 2 172t2 142q0 13 8.5 21.5t21.5 8.5q12 0 21 -8.5t9 -21.5q0 -32 -2 -142t-2 -170q0 -128 8 -195q8 -69 29.5 -104t48.5 -35q33 0 57.5 48.5t24.5 127.5q0 80 -3 192.5
t-3 203.5v74q0 12 8.5 21t21.5 9q12 0 21 -9t9 -21v-51q0 -103 3 -222t3 -197q0 -71 -22.5 -123.5t-58.5 -80.5q-29 -27 -29 -50q0 -31 29 -31h3q29 0 32 -17l1 -8q0 -13 -9.5 -18.5t-18.5 -5.5z" />
    <glyph glyph-name="uogonek" unicode="&#x173;" horiz-adv-x="396" 
d="M269 -125q-42 0 -63.5 20t-21.5 52q0 19 10 34q-48 1 -84.5 47.5t-47.5 137.5q-8 69 -8 199q0 61 2 172t2 142q0 13 8.5 21.5t21.5 8.5q12 0 21 -8.5t9 -21.5q0 -32 -2 -142t-2 -170q0 -128 8 -195q8 -69 29.5 -104t48.5 -35q33 0 57.5 48.5t24.5 127.5q0 80 -3 192.5
t-3 203.5v74q0 12 8.5 21t21.5 9q12 0 21 -9t9 -21v-51q0 -103 3 -222t3 -197q0 -71 -22.5 -123.5t-58.5 -80.5q-29 -27 -29 -50q0 -31 29 -31h3q29 0 32 -17l1 -8q0 -13 -9.5 -18.5t-18.5 -5.5z" />
    <glyph glyph-name="Wcircumflex" unicode="&#x174;" horiz-adv-x="551" 
d="M403 -12q-11 0 -20 6.5t-11 16.5l-90 355l-109 -355q-7 -22 -29 -22q-20 0 -31 15t-18 57q-38 224 -65 614q-1 13 7.5 22.5t21.5 9.5q12 0 20.5 -8t9.5 -20q26 -350 57 -553l103 326q13 42 39 42t37 -44l80 -320q51 300 60 552q0 12 9 20.5t21 8.5t19 -9t7 -22
q-4 -119 -27.5 -322.5t-53.5 -343.5q-4 -26 -37 -26zM174 759q0 7 3 13q7 12 26 41t33 52q17 30 37 30q6 0 11.5 -2.5t11.5 -9t10 -12t11 -16t12 -17.5q31 -43 45 -66q3 -4 3 -12t-6 -14t-14 -6q-15 0 -27 17l-56 85q-4 -7 -14 -22.5t-22.5 -35t-17.5 -28.5q-10 -16 -26 -16
q-7 0 -13.5 6t-6.5 13z" />
    <glyph glyph-name="wcircumflex" unicode="&#x175;" horiz-adv-x="551" 
d="M403 -12q-11 0 -20 6.5t-11 16.5l-90 355l-109 -355q-7 -22 -29 -22q-20 0 -31 15t-18 57q-38 224 -65 614q-1 13 7.5 22.5t21.5 9.5q12 0 20.5 -8t9.5 -20q26 -350 57 -553l103 326q13 42 39 42t37 -44l80 -320q51 300 60 552q0 12 9 20.5t21 8.5t19 -9t7 -22
q-4 -119 -27.5 -322.5t-53.5 -343.5q-4 -26 -37 -26zM174 759q0 7 3 13q7 12 26 41t33 52q17 30 37 30q6 0 11.5 -2.5t11.5 -9t10 -12t11 -16t12 -17.5q31 -43 45 -66q3 -4 3 -12t-6 -14t-14 -6q-15 0 -27 17l-56 85q-4 -7 -14 -22.5t-22.5 -35t-17.5 -28.5q-10 -16 -26 -16
q-7 0 -13.5 6t-6.5 13z" />
    <glyph glyph-name="Ycircumflex" unicode="&#x176;" horiz-adv-x="393" 
d="M205 -10q-12 0 -20.5 8t-9.5 19q-4 50 -4 173v173l-161 301q-4 7 -4 15q0 12 9 20.5t21 8.5q18 0 26 -15l144 -274l127 275q7 16 27 16q12 0 19.5 -9t7.5 -21q0 -8 -3 -14q-143 -287 -153 -305v-171t4 -168q1 -13 -8 -22.5t-22 -9.5zM95 759q0 7 3 13q7 12 26 41t33 52
q17 30 37 30q6 0 11.5 -2.5t11.5 -9t10 -12t11 -16t12 -17.5q31 -43 45 -66q3 -4 3 -12t-6 -14t-14 -6q-15 0 -27 17l-56 85q-4 -7 -14 -22.5t-22.5 -35t-17.5 -28.5q-10 -16 -26 -16q-7 0 -13.5 6t-6.5 13z" />
    <glyph glyph-name="ycircumflex" unicode="&#x177;" horiz-adv-x="393" 
d="M205 -10q-12 0 -20.5 8t-9.5 19q-4 50 -4 173v173l-161 301q-4 7 -4 15q0 12 9 20.5t21 8.5q18 0 26 -15l144 -274l127 275q7 16 27 16q12 0 19.5 -9t7.5 -21q0 -8 -3 -14q-143 -287 -153 -305v-171t4 -168q1 -13 -8 -22.5t-22 -9.5zM95 759q0 7 3 13q7 12 26 41t33 52
q17 30 37 30q6 0 11.5 -2.5t11.5 -9t10 -12t11 -16t12 -17.5q31 -43 45 -66q3 -4 3 -12t-6 -14t-14 -6q-15 0 -27 17l-56 85q-4 -7 -14 -22.5t-22.5 -35t-17.5 -28.5q-10 -16 -26 -16q-7 0 -13.5 6t-6.5 13z" />
    <glyph glyph-name="Ydieresis" unicode="&#x178;" horiz-adv-x="393" 
d="M205 -10q-12 0 -20.5 8t-9.5 19q-4 50 -4 173v173l-161 301q-4 7 -4 15q0 12 9 20.5t21 8.5q18 0 26 -15l144 -274l127 275q7 16 27 16q12 0 19.5 -9t7.5 -21q0 -8 -3 -14q-143 -287 -153 -305v-171t4 -168q1 -13 -8 -22.5t-22 -9.5zM119 769v26q0 13 8.5 21.5t21.5 8.5
q12 0 21 -8.5t9 -21.5v-26q0 -13 -9 -21.5t-21 -8.5q-13 0 -21.5 8.5t-8.5 21.5zM214 770v26q0 13 8.5 21.5t21.5 8.5q12 0 21 -8.5t9 -21.5v-26q0 -13 -9 -21.5t-21 -8.5q-13 0 -21.5 8.5t-8.5 21.5z" />
    <glyph glyph-name="Zacute" unicode="&#x179;" horiz-adv-x="309" 
d="M48 -1q-13 0 -21.5 9t-8.5 20q0 4 2 10q27 79 74 213t75.5 219t56.5 176l-170 -4q-11 0 -19 8.5t-8 19.5q0 12 8.5 20t20.5 8l207 5h1q15 0 24 -12t5 -26q-29 -96 -57.5 -181.5t-77 -222.5t-72.5 -206l181 -1q11 0 19.5 -8.5t8.5 -19.5q0 -12 -9 -20t-20 -8zM98 766
q0 15 9 21q50 46 97 78q7 5 19 5q22 0 22 -23q0 -15 -12 -24q-35 -23 -91 -74q-9 -7 -19 -7q-25 0 -25 24z" />
    <glyph glyph-name="zacute" unicode="&#x17a;" horiz-adv-x="309" 
d="M48 -1q-13 0 -21.5 9t-8.5 20q0 4 2 10q27 79 74 213t75.5 219t56.5 176l-170 -4q-11 0 -19 8.5t-8 19.5q0 12 8.5 20t20.5 8l207 5h1q15 0 24 -12t5 -26q-29 -96 -57.5 -181.5t-77 -222.5t-72.5 -206l181 -1q11 0 19.5 -8.5t8.5 -19.5q0 -12 -9 -20t-20 -8zM98 766
q0 15 9 21q50 46 97 78q7 5 19 5q22 0 22 -23q0 -15 -12 -24q-35 -23 -91 -74q-9 -7 -19 -7q-25 0 -25 24z" />
    <glyph glyph-name="Zdotaccent" unicode="&#x17b;" horiz-adv-x="309" 
d="M48 -1q-13 0 -21.5 9t-8.5 20q0 4 2 10q27 79 74 213t75.5 219t56.5 176l-170 -4q-11 0 -19 8.5t-8 19.5q0 12 8.5 20t20.5 8l207 5h1q15 0 24 -12t5 -26q-29 -96 -57.5 -181.5t-77 -222.5t-72.5 -206l181 -1q11 0 19.5 -8.5t8.5 -19.5q0 -12 -9 -20t-20 -8zM130 785
q0 24 13 38t30 14q26 0 41 -28q6 -12 6 -23q0 -20 -15 -33t-34 -13q-4 0 -12 2q-29 10 -29 43z" />
    <glyph glyph-name="zdotaccent" unicode="&#x17c;" horiz-adv-x="309" 
d="M48 -1q-13 0 -21.5 9t-8.5 20q0 4 2 10q27 79 74 213t75.5 219t56.5 176l-170 -4q-11 0 -19 8.5t-8 19.5q0 12 8.5 20t20.5 8l207 5h1q15 0 24 -12t5 -26q-29 -96 -57.5 -181.5t-77 -222.5t-72.5 -206l181 -1q11 0 19.5 -8.5t8.5 -19.5q0 -12 -9 -20t-20 -8zM130 785
q0 24 13 38t30 14q26 0 41 -28q6 -12 6 -23q0 -20 -15 -33t-34 -13q-4 0 -12 2q-29 10 -29 43z" />
    <glyph glyph-name="Zcaron" unicode="&#x17d;" horiz-adv-x="309" 
d="M48 -1q-13 0 -21.5 9t-8.5 20q0 4 2 10q27 79 74 213t75.5 219t56.5 176l-170 -4q-11 0 -19 8.5t-8 19.5q0 12 8.5 20t20.5 8l207 5h1q15 0 24 -12t5 -26q-29 -96 -57.5 -181.5t-77 -222.5t-72.5 -206l181 -1q11 0 19.5 -8.5t8.5 -19.5q0 -12 -9 -20t-20 -8zM73 876
q0 7 6.5 13t13.5 6q16 0 26 -16q5 -9 17.5 -28.5t22.5 -35t14 -22.5l56 85q12 17 27 17q8 0 14 -6t6 -14t-3 -12q-14 -23 -45 -66q-5 -7 -12 -17.5t-11 -16t-10 -12t-11.5 -9t-11.5 -2.5q-20 0 -37 30q-14 23 -33 52t-26 41q-3 6 -3 13z" />
    <glyph glyph-name="zcaron" unicode="&#x17e;" horiz-adv-x="309" 
d="M48 -1q-13 0 -21.5 9t-8.5 20q0 4 2 10q27 79 74 213t75.5 219t56.5 176l-170 -4q-11 0 -19 8.5t-8 19.5q0 12 8.5 20t20.5 8l207 5h1q15 0 24 -12t5 -26q-29 -96 -57.5 -181.5t-77 -222.5t-72.5 -206l181 -1q11 0 19.5 -8.5t8.5 -19.5q0 -12 -9 -20t-20 -8zM73 876
q0 7 6.5 13t13.5 6q16 0 26 -16q5 -9 17.5 -28.5t22.5 -35t14 -22.5l56 85q12 17 27 17q8 0 14 -6t6 -14t-3 -12q-14 -23 -45 -66q-5 -7 -12 -17.5t-11 -16t-10 -12t-11.5 -9t-11.5 -2.5q-20 0 -37 30q-14 23 -33 52t-26 41q-3 6 -3 13z" />
    <glyph glyph-name="uni018F" unicode="&#x18f;" horiz-adv-x="412" 
d="M203 -20q-68 0 -107 61q-51 77 -51 282q0 11 8 19.5t19 8.5l234 -2q-3 86 -19 199q-8 57 -30 83t-48 26q-36 0 -53 -31q-18 -31 -31 -87q-7 -30 -35 -25q-12 2 -19 12t-4 23q13 60 37 105q14 24 43.5 39.5t62.5 15.5q49 0 87 -37t49 -116q21 -148 21 -289
q0 -136 -38 -208q-20 -38 -54 -58.5t-72 -20.5zM105 295q3 -164 41 -224q25 -39 59 -39q41 0 71 53q31 58 31 182v26z" />
    <glyph glyph-name="florin" unicode="&#x192;" horiz-adv-x="441" 
d="M107 -20q-47 0 -79 26q-10 9 -10 22q0 11 8.5 20t19.5 9q8 0 20 -8q18 -13 41 -13q33 0 53.5 70.5t36.5 235.5h-8q-4 0 -41 1.5t-54 1.5q-11 0 -19.5 8.5t-8.5 19.5q0 12 8.5 20t19.5 8q14 0 30 -0.5t36.5 -1.5t31.5 -1h10q16 171 46.5 246t83.5 75q19 0 43 -8t37 -18
q11 -7 11 -23q0 -12 -8 -20.5t-20 -8.5q-10 0 -19 7q-21 15 -44 15q-26 0 -41 -57.5t-29 -210.5q66 -2 87 -1q11 0 19.5 -8.5t8.5 -19.5q0 -12 -8.5 -20t-19.5 -8q-33 -1 -92 2q-18 -188 -54 -274t-96 -86z" />
    <glyph glyph-name="uni01CD" unicode="&#x1cd;" horiz-adv-x="376" 
d="M84 -11q-13 0 -21.5 8.5t-8.5 21.5q3 296 15 405q17 163 42 228.5t77 65.5q107 0 123 -276q11 -178 11 -295v-128q0 -12 -8.5 -21t-21.5 -9q-12 0 -21 9t-9 21q-2 225 -3 261q-38 -6 -87 -6q-18 0 -54 2q0 -13 -4 -257q0 -13 -9 -21.5t-21 -8.5zM86 876q0 7 6.5 13
t13.5 6q16 0 26 -16q5 -9 17.5 -28.5t22.5 -35t14 -22.5l56 85q12 17 27 17q8 0 14 -6t6 -14t-3 -12q-14 -23 -45 -66q-5 -7 -12 -17.5t-11 -16t-10 -12t-11.5 -9t-11.5 -2.5q-20 0 -37 30q-14 23 -33 52t-26 41q-3 6 -3 13zM121 331q18 -1 53 -1q49 0 82 6h1q-1 27 -6 103
q-13 223 -63 223q-12 0 -21 -20t-19 -74t-20 -150q-3 -30 -7 -87z" />
    <glyph glyph-name="uni01CE" unicode="&#x1ce;" horiz-adv-x="376" 
d="M84 -11q-13 0 -21.5 8.5t-8.5 21.5q3 296 15 405q17 163 42 228.5t77 65.5q107 0 123 -276q11 -178 11 -295v-128q0 -12 -8.5 -21t-21.5 -9q-12 0 -21 9t-9 21q-2 225 -3 261q-38 -6 -87 -6q-18 0 -54 2q0 -13 -4 -257q0 -13 -9 -21.5t-21 -8.5zM86 876q0 7 6.5 13
t13.5 6q16 0 26 -16q5 -9 17.5 -28.5t22.5 -35t14 -22.5l56 85q12 17 27 17q8 0 14 -6t6 -14t-3 -12q-14 -23 -45 -66q-5 -7 -12 -17.5t-11 -16t-10 -12t-11.5 -9t-11.5 -2.5q-20 0 -37 30q-14 23 -33 52t-26 41q-3 6 -3 13zM121 331q18 -1 53 -1q49 0 82 6h1q-1 27 -6 103
q-13 223 -63 223q-12 0 -21 -20t-19 -74t-20 -150q-3 -30 -7 -87z" />
    <glyph glyph-name="Gcaron" unicode="&#x1e6;" horiz-adv-x="382" 
d="M191 -20q-40 0 -73 31.5t-49 94.5q-24 97 -24 238q0 71 6 155q5 58 16.5 100.5t24 65t30.5 35.5t32.5 16.5t32.5 3.5q88 0 131 -105q2 -4 2 -11q0 -13 -8.5 -21.5t-20.5 -8.5q-21 0 -28 19q-16 41 -33.5 56t-42.5 15q-21 0 -33 -8t-24 -46.5t-19 -114.5q-7 -81 -7 -157
q0 -128 23 -218q11 -43 30 -65t41 -22q31 0 56 38.5t30 101.5q2 42 2 58q0 39 -3 73q-53 -8 -99 -8q-12 0 -20.5 8t-8.5 20q0 11 8.5 19.5t19.5 8.5q63 2 93 8q16 2 22 2q41 0 44 -44q4 -35 4 -84q0 -43 -2 -66q-7 -84 -52.5 -136t-100.5 -52zM85 876q0 7 6.5 13t13.5 6
q16 0 26 -16q5 -9 17.5 -28.5t22.5 -35t14 -22.5l56 85q12 17 27 17q8 0 14 -6t6 -14t-3 -12q-14 -23 -45 -66q-5 -7 -12 -17.5t-11 -16t-10 -12t-11.5 -9t-11.5 -2.5q-20 0 -37 30q-14 23 -33 52t-26 41q-3 6 -3 13z" />
    <glyph glyph-name="gcaron" unicode="&#x1e7;" horiz-adv-x="382" 
d="M191 -20q-40 0 -73 31.5t-49 94.5q-24 97 -24 238q0 71 6 155q5 58 16.5 100.5t24 65t30.5 35.5t32.5 16.5t32.5 3.5q88 0 131 -105q2 -4 2 -11q0 -13 -8.5 -21.5t-20.5 -8.5q-21 0 -28 19q-16 41 -33.5 56t-42.5 15q-21 0 -33 -8t-24 -46.5t-19 -114.5q-7 -81 -7 -157
q0 -128 23 -218q11 -43 30 -65t41 -22q31 0 56 38.5t30 101.5q2 42 2 58q0 39 -3 73q-53 -8 -99 -8q-12 0 -20.5 8t-8.5 20q0 11 8.5 19.5t19.5 8.5q63 2 93 8q16 2 22 2q41 0 44 -44q4 -35 4 -84q0 -43 -2 -66q-7 -84 -52.5 -136t-100.5 -52zM85 876q0 7 6.5 13t13.5 6
q16 0 26 -16q5 -9 17.5 -28.5t22.5 -35t14 -22.5l56 85q12 17 27 17q8 0 14 -6t6 -14t-3 -12q-14 -23 -45 -66q-5 -7 -12 -17.5t-11 -16t-10 -12t-11.5 -9t-11.5 -2.5q-20 0 -37 30q-14 23 -33 52t-26 41q-3 6 -3 13z" />
    <glyph glyph-name="uni01E8" unicode="&#x1e8;" horiz-adv-x="371" 
d="M326 -9q-25 0 -29 25q-27 178 -53 245t-92 94q-16 7 -26 15q1 -46 1 -121v-31l3 -198q0 -12 -9 -20.5t-21 -8.5q-13 0 -21.5 9t-8.5 22l-3 198v30q0 230 -7 429q-1 13 8 22t22 9q12 0 20.5 -8.5t9.5 -20.5q4 -119 6 -274q4 6 9 11q95 110 151 273q7 20 29 20
q13 0 21.5 -9t8.5 -21q0 -3 -2 -9q-58 -165 -149 -274q74 -38 105 -117t57 -255q2 -13 -7 -24t-23 -11zM96 876q0 7 6.5 13t13.5 6q16 0 26 -16q5 -9 17.5 -28.5t22.5 -35t14 -22.5l56 85q12 17 27 17q8 0 14 -6t6 -14t-3 -12q-14 -23 -45 -66q-5 -7 -12 -17.5t-11 -16
t-10 -12t-11.5 -9t-11.5 -2.5q-20 0 -37 30q-14 23 -33 52t-26 41q-3 6 -3 13z" />
    <glyph glyph-name="uni01E9" unicode="&#x1e9;" horiz-adv-x="371" 
d="M326 -9q-25 0 -29 25q-27 178 -53 245t-92 94q-16 7 -26 15q1 -46 1 -121v-31l3 -198q0 -12 -9 -20.5t-21 -8.5q-13 0 -21.5 9t-8.5 22l-3 198v30q0 230 -7 429q-1 13 8 22t22 9q12 0 20.5 -8.5t9.5 -20.5q4 -119 6 -274q4 6 9 11q95 110 151 273q7 20 29 20
q13 0 21.5 -9t8.5 -21q0 -3 -2 -9q-58 -165 -149 -274q74 -38 105 -117t57 -255q2 -13 -7 -24t-23 -11zM96 876q0 7 6.5 13t13.5 6q16 0 26 -16q5 -9 17.5 -28.5t22.5 -35t14 -22.5l56 85q12 17 27 17q8 0 14 -6t6 -14t-3 -12q-14 -23 -45 -66q-5 -7 -12 -17.5t-11 -16
t-10 -12t-11.5 -9t-11.5 -2.5q-20 0 -37 30q-14 23 -33 52t-26 41q-3 6 -3 13z" />
    <glyph glyph-name="uni0218" unicode="&#x218;" horiz-adv-x="332" 
d="M167 -20q-54 0 -95.5 38.5t-41.5 63.5q0 12 8.5 21t21.5 9q19 0 26 -17q31 -64 83 -64q32 0 55 31t23 87q0 100 -81 203q-5 6 -37 44.5t-43.5 55t-25.5 50t-14 64.5q0 63 28 107.5t87 44.5q71 0 125 -76q6 -6 6 -17q0 -12 -8.5 -20.5t-20.5 -8.5q-15 0 -24 12
q-21 30 -37.5 42t-40.5 12q-55 0 -55 -96q0 -19 5 -36.5t18 -37.5t21 -30.5t29.5 -36t27.5 -32.5q101 -123 101 -241q-1 -81 -42 -126.5t-99 -45.5zM125 -191q0 5 2 11q14 36 14 61q0 21 -9 35q-5 8 -5 16q0 12 8.5 20.5t20.5 8.5q15 0 24 -12q20 -29 20 -69q0 -39 -18 -82
q-7 -18 -27 -18q-12 0 -21 8.5t-9 20.5z" />
    <glyph glyph-name="uni0219" unicode="&#x219;" horiz-adv-x="332" 
d="M167 -20q-54 0 -95.5 38.5t-41.5 63.5q0 12 8.5 21t21.5 9q19 0 26 -17q31 -64 83 -64q32 0 55 31t23 87q0 100 -81 203q-5 6 -37 44.5t-43.5 55t-25.5 50t-14 64.5q0 63 28 107.5t87 44.5q71 0 125 -76q6 -6 6 -17q0 -12 -8.5 -20.5t-20.5 -8.5q-15 0 -24 12
q-21 30 -37.5 42t-40.5 12q-55 0 -55 -96q0 -19 5 -36.5t18 -37.5t21 -30.5t29.5 -36t27.5 -32.5q101 -123 101 -241q-1 -81 -42 -126.5t-99 -45.5zM125 -191q0 5 2 11q14 36 14 61q0 21 -9 35q-5 8 -5 16q0 12 8.5 20.5t20.5 8.5q15 0 24 -12q20 -29 20 -69q0 -39 -18 -82
q-7 -18 -27 -18q-12 0 -21 8.5t-9 20.5z" />
    <glyph glyph-name="uni021A" unicode="&#x21a;" horiz-adv-x="328" 
d="M171 -11q-12 0 -21 9t-9 21q0 24 -3.5 226.5t-3.5 290.5q0 51 2 113h-14q-50 0 -90 4q-11 1 -18.5 9t-7.5 19q0 12 9.5 20.5t21.5 7.5q39 -4 86 -4q24 0 52.5 1t63 2.5t53.5 2.5q12 1 21 -7.5t9 -20.5q0 -11 -8 -19t-19 -9l-99 -4q-2 -64 -2 -115q0 -87 3.5 -288
t3.5 -228q0 -13 -8.5 -22t-21.5 -9zM128 -184q0 5 2 11q14 36 14 61q0 22 -9 35q-5 8 -5 16q0 12 8.5 20.5t20.5 8.5q15 0 24 -12q20 -29 20 -69q0 -39 -18 -82q-7 -18 -27 -18q-12 0 -21 8.5t-9 20.5z" />
    <glyph glyph-name="uni021B" unicode="&#x21b;" horiz-adv-x="328" 
d="M171 -11q-12 0 -21 9t-9 21q0 24 -3.5 226.5t-3.5 290.5q0 51 2 113h-14q-50 0 -90 4q-11 1 -18.5 9t-7.5 19q0 12 9.5 20.5t21.5 7.5q39 -4 86 -4q24 0 52.5 1t63 2.5t53.5 2.5q12 1 21 -7.5t9 -20.5q0 -11 -8 -19t-19 -9l-99 -4q-2 -64 -2 -115q0 -87 3.5 -288
t3.5 -228q0 -13 -8.5 -22t-21.5 -9zM128 -184q0 5 2 11q14 36 14 61q0 22 -9 35q-5 8 -5 16q0 12 8.5 20.5t20.5 8.5q15 0 24 -12q20 -29 20 -69q0 -39 -18 -82q-7 -18 -27 -18q-12 0 -21 8.5t-9 20.5z" />
    <glyph glyph-name="uni0237" unicode="&#x237;" horiz-adv-x="325" 
d="M159 -20q-65 0 -153 120q-6 8 -6 17q0 12 8.5 20.5t21.5 8.5q14 0 23 -12q68 -98 100 -98q40 0 54 168q10 103 10 232q0 107 -8 217q-69 -2 -132 -11q-13 -2 -22.5 6.5t-9.5 21.5q0 11 7 19t17 9q65 9 138 11q58 0 63 -57q7 -92 7 -208q0 -136 -10 -245
q-20 -219 -108 -219z" />
    <glyph glyph-name="uni0259" unicode="&#x259;" horiz-adv-x="412" 
d="M203 -20q-68 0 -107 61q-51 77 -51 282q0 11 8 19.5t19 8.5l234 -2q-3 86 -19 199q-8 57 -30 83t-48 26q-36 0 -53 -31q-18 -31 -31 -87q-7 -30 -35 -25q-12 2 -19 12t-4 23q13 60 37 105q14 24 43.5 39.5t62.5 15.5q49 0 87 -37t49 -116q21 -148 21 -289
q0 -136 -38 -208q-20 -38 -54 -58.5t-72 -20.5zM105 295q3 -164 41 -224q25 -39 59 -39q41 0 71 53q31 58 31 182v26z" />
    <glyph glyph-name="circumflex" unicode="&#x2c6;" horiz-adv-x="263" 
d="M50 620q-7 0 -13.5 6t-6.5 13t3 13q7 12 26 41t33 52q17 30 37 30q6 0 11.5 -2.5t11.5 -9t10 -12t11 -16t12 -17.5q31 -43 45 -66q3 -4 3 -12t-6 -14t-14 -6q-15 0 -27 17l-56 85q-4 -7 -14 -22.5t-22.5 -35t-17.5 -28.5q-10 -16 -26 -16z" />
    <glyph glyph-name="caron" unicode="&#x2c7;" horiz-adv-x="263" 
d="M50 775q16 0 26 -16q5 -9 17.5 -28.5t22.5 -35t14 -22.5l56 85q12 17 27 17q8 0 14 -6t6 -14q0 -7 -3 -12q-14 -23 -45 -66q-5 -7 -12 -17.5t-11 -16t-10 -12t-11.5 -9t-11.5 -2.5q-20 0 -37 30q-14 23 -33 52t-26 41q-3 6 -3 13t6.5 13t13.5 6z" />
    <glyph glyph-name="breve" unicode="&#x2d8;" horiz-adv-x="245" 
d="M123 620q-66 0 -91 72q-2 6 -2 9q0 25 25 25q16 0 26 -21q21 -34 42 -34q13 0 21.5 7.5t21.5 26.5q9 18 28 18q21 0 21 -25q0 -4 -2 -12q-29 -66 -90 -66z" />
    <glyph glyph-name="dotaccent" unicode="&#x2d9;" horiz-adv-x="150" 
d="M71 620q-4 0 -12 2q-29 10 -29 43q0 24 13 38t30 14q26 0 41 -28q6 -12 6 -23q0 -20 -15 -33t-34 -13z" />
    <glyph glyph-name="ring" unicode="&#x2da;" horiz-adv-x="205" 
d="M101 620q-29 0 -50 23.5t-21 62.5q0 32 19 55.5t45 23.5q31 0 56 -24t25 -65q0 -32 -22.5 -54t-51.5 -22zM81 716q0 -55 19 -55q24 0 24 31q0 52 -23 52q-20 0 -20 -28z" />
    <glyph glyph-name="ogonek" unicode="&#x2db;" horiz-adv-x="173" 
d="M115 -136q-42 0 -63.5 20t-21.5 52q0 29 22 46.5t56 17.5q7 0 0 -5q-30 -27 -30 -51q0 -31 29 -31h3q29 0 32 -17l1 -8q0 -13 -9.5 -18.5t-18.5 -5.5z" />
    <glyph glyph-name="tilde" unicode="&#x2dc;" horiz-adv-x="310" 
d="M209 620q-46 0 -76 42q-24 35 -32 35q-9 0 -12 -38q-2 -11 -10 -18.5t-20 -7.5q-14 0 -22.5 11t-5.5 24q16 80 69 80q43 0 82 -54q16 -23 27 -23q12 0 11 31q0 12 8.5 21t21.5 9q12 0 21 -8.5t9 -21.5q-1 -40 -21.5 -61t-49.5 -21z" />
    <glyph glyph-name="hungarumlaut" unicode="&#x2dd;" horiz-adv-x="314" 
d="M55 622q-25 0 -25 24q0 15 9 21q50 46 97 78q7 5 19 5q22 0 22 -23q0 -15 -12 -24q-35 -23 -91 -74q-9 -7 -19 -7zM137 647q0 15 9 21q50 46 97 78q7 5 19 5q22 0 22 -23q0 -15 -12 -24q-35 -23 -91 -74q-9 -7 -19 -7q-25 0 -25 24z" />
    <glyph glyph-name="gravecomb" unicode="&#x300;" horiz-adv-x="207" 
d="M152 622q-10 0 -19 7q-56 51 -91 74q-12 9 -12 24q0 23 22 23q12 0 19 -5q47 -32 97 -78q9 -6 9 -21q0 -24 -25 -24z" />
    <glyph glyph-name="acutecomb" unicode="&#x301;" horiz-adv-x="207" 
d="M55 622q-25 0 -25 24q0 15 9 21q50 46 97 78q7 5 19 5q22 0 22 -23q0 -15 -12 -24q-35 -23 -91 -74q-9 -7 -19 -7z" />
    <glyph glyph-name="uni0302" unicode="&#x302;" horiz-adv-x="263" 
d="M50 620q-7 0 -13.5 6t-6.5 13t3 13q7 12 26 41t33 52q17 30 37 30q6 0 11.5 -2.5t11.5 -9t10 -12t11 -16t12 -17.5q31 -43 45 -66q3 -4 3 -12t-6 -14t-14 -6q-15 0 -27 17l-56 85q-4 -7 -14 -22.5t-22.5 -35t-17.5 -28.5q-10 -16 -26 -16z" />
    <glyph glyph-name="tildecomb" unicode="&#x303;" horiz-adv-x="310" 
d="M209 620q-46 0 -76 42q-24 35 -32 35q-9 0 -12 -38q-2 -11 -10 -18.5t-20 -7.5q-14 0 -22.5 11t-5.5 24q16 80 69 80q43 0 82 -54q16 -23 27 -23q12 0 11 31q0 12 8.5 21t21.5 9q12 0 21 -8.5t9 -21.5q-1 -40 -21.5 -61t-49.5 -21z" />
    <glyph glyph-name="uni0304" unicode="&#x304;" horiz-adv-x="229" 
d="M57 620q-10 0 -18.5 8t-8.5 20q0 11 8.5 19t19.5 9q58 2 113 2q12 0 20 -8t8 -20q0 -11 -8 -19.5t-19 -8.5q-14 0 -56.5 -1t-58.5 -1z" />
    <glyph glyph-name="uni0306" unicode="&#x306;" horiz-adv-x="245" 
d="M123 620q-66 0 -91 72q-2 6 -2 9q0 25 25 25q16 0 26 -21q21 -34 42 -34q13 0 21.5 7.5t21.5 26.5q9 18 28 18q21 0 21 -25q0 -4 -2 -12q-29 -66 -90 -66z" />
    <glyph glyph-name="uni0307" unicode="&#x307;" horiz-adv-x="150" 
d="M71 620q-4 0 -12 2q-29 10 -29 43q0 24 13 38t30 14q26 0 41 -28q6 -12 6 -23q0 -20 -15 -33t-34 -13z" />
    <glyph glyph-name="uni0308" unicode="&#x308;" horiz-adv-x="215" 
d="M155 620q-13 0 -21.5 8.5t-8.5 21.5v26q0 13 8.5 21.5t21.5 8.5q12 0 21 -8.5t9 -21.5v-26q0 -13 -9 -21.5t-21 -8.5zM30 649v26q0 13 8.5 21.5t21.5 8.5q12 0 21 -8.5t9 -21.5v-26q0 -13 -9 -21.5t-21 -8.5q-13 0 -21.5 8.5t-8.5 21.5z" />
    <glyph glyph-name="uni030A" unicode="&#x30a;" horiz-adv-x="205" 
d="M101 620q-29 0 -50 23.5t-21 62.5q0 32 19 55.5t45 23.5q31 0 56 -24t25 -65q0 -32 -22.5 -54t-51.5 -22zM81 716q0 -55 19 -55q24 0 24 31q0 52 -23 52q-20 0 -20 -28z" />
    <glyph glyph-name="uni030B" unicode="&#x30b;" horiz-adv-x="314" 
d="M55 622q-25 0 -25 24q0 15 9 21q50 46 97 78q7 5 19 5q22 0 22 -23q0 -15 -12 -24q-35 -23 -91 -74q-9 -7 -19 -7zM137 647q0 15 9 21q50 46 97 78q7 5 19 5q22 0 22 -23q0 -15 -12 -24q-35 -23 -91 -74q-9 -7 -19 -7q-25 0 -25 24z" />
    <glyph glyph-name="uni030C" unicode="&#x30c;" horiz-adv-x="263" 
d="M50 775q16 0 26 -16q5 -9 17.5 -28.5t22.5 -35t14 -22.5l56 85q12 17 27 17q8 0 14 -6t6 -14q0 -7 -3 -12q-14 -23 -45 -66q-5 -7 -12 -17.5t-11 -16t-10 -12t-11.5 -9t-11.5 -2.5q-20 0 -37 30q-14 23 -33 52t-26 41q-3 6 -3 13t6.5 13t13.5 6z" />
    <glyph glyph-name="uni0326" unicode="&#x326;" horiz-adv-x="0" 
d="M60 -200q-12 0 -21 8.5t-9 20.5q0 5 2 11q14 36 14 61q0 21 -9 35q-5 8 -5 16q0 12 8.5 20.5t20.5 8.5q15 0 24 -12q20 -29 20 -69q0 -38 -18 -82q-7 -18 -27 -18z" />
    <glyph glyph-name="uni0327" unicode="&#x327;" horiz-adv-x="243" 
d="M107 -179q-27 0 -55 6q-22 5 -22 27q0 14 11 22.5t23 5.5q32 -8 50 -8q39 0 39 26q0 17 -14 17q-6 0 -18 -3q-21 -6 -35 -6q-28 0 -28 24q0 15 25 40l41 40l24 -1l-36 -55q49 14 74.5 -4.5t26.5 -51.5q0 -38 -29 -58.5t-77 -20.5z" />
    <glyph glyph-name="uni0328" unicode="&#x328;" horiz-adv-x="173" 
d="M115 -136q-42 0 -63.5 20t-21.5 52q0 29 22 46.5t56 17.5q7 0 0 -5q-30 -27 -30 -51q0 -31 29 -31h3q29 0 32 -17l1 -8q0 -13 -9.5 -18.5t-18.5 -5.5z" />
    <glyph glyph-name="uni03A9" unicode="&#x3a9;" horiz-adv-x="468" 
d="M300 0q-18 0 -28.5 13.5t-4.5 30.5q14 40 65 161q31 77 31 223q0 109 -37 173.5t-95 64.5q-126 0 -126 -242q0 -125 58 -252q38 -87 53 -127q6 -17 -4.5 -30.5t-28.5 -13.5h-89q-11 0 -19.5 8.5t-8.5 19.5t8.5 19.5t19.5 8.5h53q-11 29 -27 61q-78 168 -75 306
q1 53 10 100.5t29 94t59.5 74t93.5 27.5q46 0 80.5 -19.5t53.5 -48t31 -70.5t16 -76.5t5 -77.5q4 -142 -68 -321q-14 -34 -20 -51h50q11 0 19.5 -8.5t8.5 -19.5t-8.5 -19.5t-19.5 -8.5h-85z" />
    <glyph glyph-name="uni0400" unicode="&#x400;" 
d="M123 -4q-29 -1 -44.5 14t-15.5 43q0 47 2 140t2 142q0 45 -3.5 150t-3.5 161q0 28 15.5 43t44.5 14l145 -3q12 0 20 -8.5t8 -19.5q0 -12 -8.5 -20t-20.5 -8l-144 3q0 -35 1 -75.5t2.5 -90t2.5 -76.5l107 -3q11 0 19 -8.5t8 -19.5q0 -12 -8.5 -20t-20.5 -8l-104 3v-14
q0 -56 -2 -154t-2 -129l145 5q11 0 20 -8t9 -20q0 -11 -8.5 -19t-19.5 -9zM110 847q0 23 22 23q12 0 19 -5q47 -32 97 -78q9 -6 9 -21q0 -24 -25 -24q-10 0 -19 7q-56 51 -91 74q-12 9 -12 24z" />
    <glyph glyph-name="uni0401" unicode="&#x401;" 
d="M123 -4q-29 -1 -44.5 14t-15.5 43q0 47 2 140t2 142q0 45 -3.5 150t-3.5 161q0 28 15.5 43t44.5 14l145 -3q12 0 20 -8.5t8 -19.5q0 -12 -8.5 -20t-20.5 -8l-144 3q0 -35 1 -75.5t2.5 -90t2.5 -76.5l107 -3q11 0 19 -8.5t8 -19.5q0 -12 -8.5 -20t-20.5 -8l-104 3v-14
q0 -56 -2 -154t-2 -129l145 5q11 0 20 -8t9 -20q0 -11 -8.5 -19t-19.5 -9zM109 769v26q0 13 8.5 21.5t21.5 8.5q12 0 21 -8.5t9 -21.5v-26q0 -13 -9 -21.5t-21 -8.5q-13 0 -21.5 8.5t-8.5 21.5zM204 770v26q0 13 8.5 21.5t21.5 8.5q12 0 21 -8.5t9 -21.5v-26q0 -13 -9 -21.5
t-21 -8.5q-13 0 -21.5 8.5t-8.5 21.5z" />
    <glyph glyph-name="uni0402" unicode="&#x402;" horiz-adv-x="497" 
d="M269 -20q-11 0 -19.5 8.5t-8.5 19.5t8.5 19.5t19.5 8.5q123 0 123 212q0 94 -28.5 133t-80.5 39q-50 0 -86 -14l-2 -1q1 -64 3.5 -196t2.5 -189q0 -13 -8.5 -22t-21.5 -9q-12 0 -21 9t-9 21q0 24 -3.5 226.5t-3.5 290.5q0 43 2 105h-14q-50 0 -90 4q-11 1 -18.5 9
t-7.5 19q0 12 9.5 20.5t21.5 7.5q39 -4 86 -4q24 0 52.5 1t63 2.5t53.5 2.5q12 1 21 -7.5t9 -20.5q0 -11 -8 -19t-19 -9l-99 -4q-2 -64 -2 -107v-75q33 15 89 15q74 0 121.5 -56t47.5 -172q0 -121 -45 -194.5t-138 -73.5z" />
    <glyph glyph-name="uni0403" unicode="&#x403;" horiz-adv-x="285" 
d="M109 -12q-12 0 -20.5 8t-9.5 21q-2 62 -7.5 204.5t-9 249.5t-2.5 172q2 58 61 58l129 1q12 0 20.5 -8t8.5 -20q0 -11 -8.5 -19.5t-19.5 -8.5l-132 -1v-32q0 -58 3.5 -160.5t9 -234.5t7.5 -200q0 -12 -8.5 -21t-21.5 -9zM122 746q0 15 9 21q50 46 97 78q7 5 19 5
q22 0 22 -23q0 -15 -12 -24q-35 -23 -91 -74q-9 -7 -19 -7q-25 0 -25 24z" />
    <glyph glyph-name="uni0404" unicode="&#x404;" 
d="M169 -19q-41 0 -71.5 32.5t-39.5 98.5q-13 96 -13 284v81q0 243 127 243q34 0 59.5 -17.5t55.5 -54.5q7 -9 7 -19q0 -12 -8.5 -20.5t-20.5 -8.5q-15 0 -23 11q-25 32 -39 42.5t-31 10.5q-19 0 -31.5 -10t-23.5 -54t-12 -124v-58q85 0 109 -3q10 -2 17 -10t7 -18
q0 -12 -9.5 -20.5t-21.5 -7.5q-38 4 -102 4q0 -160 12 -243q13 -87 59 -87q25 0 47 27.5t30 72.5q4 25 29 25q14 0 23 -11t6 -25q-14 -63 -55 -102t-87 -39z" />
    <glyph glyph-name="uni0405" unicode="&#x405;" horiz-adv-x="332" 
d="M167 -20q-54 0 -95.5 38.5t-41.5 63.5q0 12 8.5 21t21.5 9q19 0 26 -17q31 -64 83 -64q32 0 55 31t23 87q0 100 -81 203q-5 6 -37 44.5t-43.5 55t-25.5 50t-14 64.5q0 63 28 107.5t87 44.5q71 0 125 -76q6 -6 6 -17q0 -12 -8.5 -20.5t-20.5 -8.5q-15 0 -24 12
q-21 30 -37.5 42t-40.5 12q-55 0 -55 -96q0 -19 5 -36.5t18 -37.5t21 -30.5t29.5 -36t27.5 -32.5q101 -123 101 -241q-1 -81 -42 -126.5t-99 -45.5z" />
    <glyph glyph-name="uni0406" unicode="&#x406;" horiz-adv-x="186" 
d="M96 -11q-12 0 -21 9t-9 21q-2 156 -2 237v133q0 210 -4 291q-1 13 7.5 22t21.5 9t21.5 -8t8.5 -20q5 -103 5 -379q0 -191 2 -284q0 -13 -8.5 -22t-21.5 -9z" />
    <glyph glyph-name="uni0407" unicode="&#x407;" horiz-adv-x="186" 
d="M96 -11q-12 0 -21 9t-9 21q-2 156 -2 237v133q0 210 -4 291q-1 13 7.5 22t21.5 9t21.5 -8t8.5 -20q5 -103 5 -379q0 -191 2 -284q0 -13 -8.5 -22t-21.5 -9zM23 779v31q0 15 8 25.5t19 10.5t19 -10.5t8 -25.5v-31q0 -15 -8 -25.5t-19 -10.5t-19 10t-8 26zM109 780v31
q0 16 7.5 26t19.5 10q11 0 19 -10.5t8 -25.5v-31q0 -15 -8 -25.5t-19 -10.5q-12 0 -19.5 10.5t-7.5 25.5z" />
    <glyph glyph-name="uni0408" unicode="&#x408;" horiz-adv-x="325" 
d="M159 -20q-65 0 -153 120q-6 8 -6 17q0 12 8.5 20.5t21.5 8.5q14 0 23 -12q68 -98 100 -98q40 0 54 168q10 103 10 232q0 107 -8 217q-69 -2 -132 -11q-13 -2 -22.5 6.5t-9.5 21.5q0 11 7 19t17 9q65 9 138 11q58 0 63 -57q7 -92 7 -208q0 -136 -10 -245
q-20 -219 -108 -219z" />
    <glyph glyph-name="uni0409" unicode="&#x409;" horiz-adv-x="551" 
d="M41 -20q-15 0 -25 8.5t-10 20.5t7.5 20.5t18.5 8.5q21 0 35.5 15t25 55t16.5 82t10 122.5t6 148.5t4 187q1 59 62 61q54 2 89 1q56 -3 58 -62l6 -292q189 -29 189 -186q0 -83 -61 -131t-151 -48q-12 0 -21 8.5t-9 21.5l-13 634q-24 1 -98 -1q-9 -354 -16 -435
q-17 -181 -71 -222q-22 -17 -52 -17zM345 300l6 -255h5q45 0 81 33.5t36 91.5q0 61 -33.5 91t-94.5 39z" />
    <glyph glyph-name="uni040A" unicode="&#x40a;" horiz-adv-x="566" 
d="M90 -11q-12 0 -21 9t-9 22q3 100 3 288t-3 372q0 13 8.5 22t21.5 9t21.5 -9t8.5 -21q0 -31 1 -127.5t2 -150.5h174q0 48 0.5 142.5t0.5 135.5q0 13 9 21.5t21 8.5q13 0 21.5 -8.5t8.5 -21.5l-1 -285q89 -6 140 -51.5t51 -156.5q0 -97 -62 -148t-160 -51q-12 0 -21 9
t-9 21q0 16 -0.5 59t-0.5 69q0 62 2 200h-174v-40q0 -188 -3 -288q0 -12 -8.5 -21t-21.5 -9zM355 148q0 -20 0.5 -55t0.5 -50h5q54 0 90.5 36.5t36.5 108.5q0 86 -32.5 118t-98.5 34q-2 -134 -2 -192z" />
    <glyph glyph-name="uni040B" unicode="&#x40b;" horiz-adv-x="484" 
d="M409 -8q-13 0 -21.5 8.5t-8.5 21.5q0 152 -8.5 229.5t-30 111.5t-64.5 34q-41 0 -81 -28q6 -347 6 -349q0 -13 -8.5 -22t-21.5 -9q-12 0 -21 9t-9 21q0 24 -3.5 226.5t-3.5 290.5q0 43 2 105h-14q-50 0 -90 4q-11 1 -18.5 9t-7.5 19q0 12 9.5 20.5t21.5 7.5q39 -4 86 -4
q24 0 52.5 1t63 2.5t53.5 2.5q12 1 21 -7.5t9 -20.5q0 -11 -8 -19t-19 -9l-99 -4q-2 -64 -2 -107l1 -113q29 30 81 30q42 0 70 -13.5t47 -41t28.5 -81t13.5 -121.5t4 -174q0 -13 -8.5 -21.5t-21.5 -8.5z" />
    <glyph glyph-name="uni040C" unicode="&#x40c;" horiz-adv-x="371" 
d="M326 -9q-25 0 -29 25q-27 178 -53 245t-92 94q-16 7 -26 15q1 -46 1 -121v-31l3 -198q0 -12 -9 -20.5t-21 -8.5q-13 0 -21.5 9t-8.5 22l-3 198v30q0 230 -7 429q-1 13 8 22t22 9q12 0 20.5 -8.5t9.5 -20.5q4 -119 6 -274q4 6 9 11q95 110 151 273q7 20 29 20
q13 0 21.5 -9t8.5 -21q0 -3 -2 -9q-58 -165 -149 -274q74 -38 105 -117t57 -255q2 -13 -7 -24t-23 -11zM149 746q0 15 9 21q50 46 97 78q7 5 19 5q22 0 22 -23q0 -15 -12 -24q-35 -23 -91 -74q-9 -7 -19 -7q-25 0 -25 24z" />
    <glyph glyph-name="uni040D" unicode="&#x40d;" horiz-adv-x="440" 
d="M347 -10q-13 0 -21.5 8.5t-8.5 21.5q0 86 1.5 235.5t1.5 205.5v89l-189 -522q-13 -37 -39 -37q-13 0 -21.5 13t-8.5 37q-2 105 -2 337v302q0 13 9 21.5t21 8.5q13 0 21.5 -8.5t8.5 -21.5q0 -85 -0.5 -261.5t-0.5 -261.5l187 517q13 35 36 35q14 0 24.5 -15.5t11.5 -41.5
q2 -62 2 -177q0 -63 -1.5 -216.5t-1.5 -238.5q0 -13 -9 -21.5t-21 -8.5zM143 827q0 23 22 23q12 0 19 -5q47 -32 97 -78q9 -6 9 -21q0 -24 -25 -24q-10 0 -19 7q-56 51 -91 74q-12 9 -12 24z" />
    <glyph glyph-name="uni040E" unicode="&#x40e;" 
d="M98 -11q-27 0 -27 27q0 24 23 28q35 6 69 152l-2 7l-142 468q-4 14 5.5 26t23.5 12q22 0 29 -22l112 -371q1 7 64 368q2 11 10.5 18t19.5 7q13 0 18.5 -10.5t3.5 -24.5q-61 -358 -72 -409q-48 -232 -107 -268q-13 -8 -28 -8zM87 785q0 12 8.5 20.5t20.5 8.5q14 0 23 -11
q17 -22 37 -22q22 0 49 25q8 8 20 8t20.5 -8.5t8.5 -20.5q0 -14 -10 -22q-42 -38 -88 -38q-47 0 -82 41q-7 9 -7 19z" />
    <glyph glyph-name="uni040F" unicode="&#x40f;" horiz-adv-x="424" 
d="M121 3q-61 -2 -61 60l4 622q0 12 9 21t21 9q13 0 21.5 -9t8.5 -21l-3 -626l175 3q0 23 4 187.5t4 261.5t-3 170q0 12 9 21.5t21 9.5q13 0 21.5 -8.5t8.5 -20.5q3 -75 3 -172q0 -104 -4 -274t-4 -199v-2v-1q0 -12 -8.5 -20t-19.5 -8l-85 -2q-4 -33 -2 -82q0 -12 -9 -21
t-21 -9q-13 0 -21.5 9t-8.5 21q-2 46 2 81z" />
    <glyph glyph-name="uni0410" unicode="&#x410;" horiz-adv-x="376" 
d="M84 -11q-13 0 -21.5 8.5t-8.5 21.5q3 296 15 405q17 163 42 228.5t77 65.5q107 0 123 -276q11 -178 11 -295v-128q0 -12 -8.5 -21t-21.5 -9q-12 0 -21 9t-9 21q-2 225 -3 261q-38 -6 -87 -6q-18 0 -54 2q0 -13 -4 -257q0 -13 -9 -21.5t-21 -8.5zM121 331q18 -1 53 -1
q49 0 82 6h1q-1 27 -6 103q-13 223 -63 223q-12 0 -21 -20t-19 -74t-20 -150q-3 -30 -7 -87z" />
    <glyph glyph-name="uni0411" unicode="&#x411;" horiz-adv-x="328" 
d="M92 -9q-12 0 -21 8.5t-9 21.5v60q0 56 -1 176.5t-1 177.5q0 166 8 231q3 20 20 26q48 14 104 14q16 0 46 -2q11 -1 18.5 -9t7.5 -19q0 -12 -9.5 -20.5t-21.5 -7.5q-28 2 -42 2q-35 0 -66 -7q-5 -53 -5 -190v-3q34 -7 64.5 -21t58.5 -39t44.5 -65.5t16.5 -91.5
q0 -100 -58 -171t-154 -71zM120 393q2 -200 2 -313v-35q48 -2 85 58.5t37 129.5q0 132 -124 160z" />
    <glyph glyph-name="uni0412" unicode="&#x412;" horiz-adv-x="329" 
d="M116 -4q-56 0 -56 30q0 38 2 210.5t2 258.5q0 31 -1 83.5t-1 73.5q0 29 15.5 45.5t42.5 12.5q56 -9 93 -48.5t37 -101.5q0 -43 -15.5 -72t-56.5 -51q136 -45 136 -228q0 -103 -51.5 -158t-146.5 -55zM120 52q70 4 102.5 39t32.5 108q0 187 -131 211zM122 653
q2 -94 2 -162v-34q25 15 36.5 24.5t20.5 28t9 45.5q0 83 -68 98z" />
    <glyph glyph-name="uni0413" unicode="&#x413;" horiz-adv-x="285" 
d="M109 -12q-12 0 -20.5 8t-9.5 21q-2 62 -7.5 204.5t-9 249.5t-2.5 172q2 58 61 58l129 1q12 0 20.5 -8t8.5 -20q0 -11 -8.5 -19.5t-19.5 -8.5l-132 -1v-32q0 -58 3.5 -160.5t9 -234.5t7.5 -200q0 -12 -8.5 -21t-21.5 -9z" />
    <glyph glyph-name="uni0414" unicode="&#x414;" horiz-adv-x="404" 
d="M37 -106q-12 0 -20.5 8.5t-9.5 20.5l-4 70q-3 57 50 62q20 76 29 170.5t13 229t8 192.5q4 56 63 58q13 1 42 1q31 0 47 -1q56 -3 58 -62l13 -586h8q30 0 46 -15t15 -45l-1 -73q0 -12 -9 -21t-21 -9q-13 0 -21.5 9t-8.5 22v76l-272 -3l5 -72q1 -13 -8 -22.5t-22 -9.5z
M114 55l152 1l-13 594q-28 1 -89 -1q-4 -57 -8 -188.5t-13 -228.5t-29 -177z" />
    <glyph glyph-name="uni0415" unicode="&#x415;" 
d="M123 -4q-29 -1 -44.5 14t-15.5 43q0 47 2 140t2 142q0 45 -3.5 150t-3.5 161q0 28 15.5 43t44.5 14l145 -3q12 0 20 -8.5t8 -19.5q0 -12 -8.5 -20t-20.5 -8l-144 3q0 -35 1 -75.5t2.5 -90t2.5 -76.5l107 -3q11 0 19 -8.5t8 -19.5q0 -12 -8.5 -20t-20.5 -8l-104 3v-14
q0 -56 -2 -154t-2 -129l145 5q11 0 20 -8t9 -20q0 -11 -8.5 -19t-19.5 -9z" />
    <glyph glyph-name="uni0416" unicode="&#x416;" horiz-adv-x="512" 
d="M468 -6q-11 0 -19.5 7t-10.5 18q-29 175 -59 247t-96 96q3 -59 3 -144l-1 -198q0 -12 -9 -20.5t-21 -8.5q-13 0 -21.5 9t-8.5 22l1 198q0 85 -3 144q-66 -25 -98 -102t-51 -245q-1 -11 -9.5 -18.5t-20.5 -7.5q-13 0 -21.5 10t-7.5 23q18 155 53 243t98 128
q-37 44 -60 75.5t-49 87.5t-35 115q-2 13 6.5 24t23.5 11q25 0 29 -25q11 -78 45 -137.5t95 -134.5q-2 46 -3.5 138.5t-2.5 129.5q-1 13 8 22t22 9q12 0 20.5 -8.5t9.5 -20.5q1 -37 2.5 -129.5t3.5 -139.5q64 56 102 118.5t50 151.5q2 11 10 18.5t19 7.5q14 0 23.5 -11
t7.5 -24q-23 -164 -140 -279q60 -37 87.5 -116t56.5 -249q2 -13 -6.5 -24t-22.5 -11z" />
    <glyph glyph-name="uni0417" unicode="&#x417;" horiz-adv-x="307" 
d="M122 -19q-57 0 -101 41q-9 11 -9 21q0 12 8.5 20.5t20.5 8.5q13 0 21 -8q29 -30 66 -30q40 0 67.5 38.5t27.5 111.5q0 82 -25 121t-88 39q-32 0 -32 32q0 13 7.5 22t17.5 9q99 0 99 140q0 58 -18 87t-49 29q-35 0 -53 -13q-8 -5 -16 -5q-12 0 -20.5 8.5t-8.5 20.5
q0 16 15 24q34 21 83 21q56 0 91.5 -47.5t35.5 -124.5q0 -121 -80 -166q52 -17 76.5 -72t24.5 -125q0 -95 -47.5 -149t-113.5 -54z" />
    <glyph glyph-name="uni0418" unicode="&#x418;" horiz-adv-x="440" 
d="M347 -10q-13 0 -21.5 8.5t-8.5 21.5q0 86 1.5 235.5t1.5 205.5v89l-189 -522q-13 -37 -39 -37q-13 0 -21.5 13t-8.5 37q-2 105 -2 337v302q0 13 9 21.5t21 8.5q13 0 21.5 -8.5t8.5 -21.5q0 -85 -0.5 -261.5t-0.5 -261.5l187 517q13 35 36 35q14 0 24.5 -15.5t11.5 -41.5
q2 -62 2 -177q0 -63 -1.5 -216.5t-1.5 -238.5q0 -13 -9 -21.5t-21 -8.5z" />
    <glyph glyph-name="uni0419" unicode="&#x419;" horiz-adv-x="440" 
d="M347 -10q-13 0 -21.5 8.5t-8.5 21.5q0 86 1.5 235.5t1.5 205.5v89l-189 -522q-13 -37 -39 -37q-13 0 -21.5 13t-8.5 37q-2 105 -2 337v302q0 13 9 21.5t21 8.5q13 0 21.5 -8.5t8.5 -21.5q0 -85 -0.5 -261.5t-0.5 -261.5l187 517q13 35 36 35q14 0 24.5 -15.5t11.5 -41.5
q2 -62 2 -177q0 -63 -1.5 -216.5t-1.5 -238.5q0 -13 -9 -21.5t-21 -8.5zM131 785q0 12 8.5 20.5t20.5 8.5q14 0 23 -11q17 -22 37 -22q22 0 49 25q8 8 20 8t20.5 -8.5t8.5 -20.5q0 -14 -10 -22q-42 -38 -88 -38q-47 0 -82 41q-7 9 -7 19z" />
    <glyph glyph-name="uni041A" unicode="&#x41a;" horiz-adv-x="371" 
d="M326 -9q-25 0 -29 25q-27 178 -53 245t-92 94q-16 7 -26 15q1 -46 1 -121v-31l3 -198q0 -12 -9 -20.5t-21 -8.5q-13 0 -21.5 9t-8.5 22l-3 198v30q0 230 -7 429q-1 13 8 22t22 9q12 0 20.5 -8.5t9.5 -20.5q4 -119 6 -274q4 6 9 11q95 110 151 273q7 20 29 20
q13 0 21.5 -9t8.5 -21q0 -3 -2 -9q-58 -165 -149 -274q74 -38 105 -117t57 -255q2 -13 -7 -24t-23 -11z" />
    <glyph glyph-name="uni041B" unicode="&#x41b;" horiz-adv-x="411" 
d="M41 -20q-15 0 -25 8.5t-10 20.5t7.5 20.5t18.5 8.5q21 0 35.5 15t25 55t16.5 82t10 122.5t6 148.5t4 187q1 59 62 61q54 2 89 1q56 -3 58 -62l13 -626q0 -13 -8.5 -22t-21.5 -9q-12 0 -21 8.5t-9 21.5l-13 634q-24 1 -98 -1q-9 -354 -16 -435q-17 -181 -71 -222
q-22 -17 -52 -17z" />
    <glyph glyph-name="uni041C" unicode="&#x41c;" horiz-adv-x="497" 
d="M92 -11q-13 0 -21.5 9t-8.5 21q-1 89 -1 258v238q0 124 -1 165q0 13 9 22t21 9q20 0 30 -22l126 -290l119 287q2 5 6 11q9 14 25 14q12 0 21 -8.5t9 -20.5q9 -232 11 -663q0 -12 -8.5 -21t-21.5 -9q-12 0 -21 9t-9 21q-2 269 -7 541l-93 -218q-15 -33 -38 -33
q-22 0 -35 32l-83 204v-52q0 -291 1 -473q0 -13 -9 -22t-21 -9z" />
    <glyph glyph-name="uni041D" unicode="&#x41d;" horiz-adv-x="418" 
d="M326 -11q-12 0 -21 9t-9 21q0 16 -0.5 59t-0.5 69q0 62 2 200h-174v-40q0 -188 -3 -288q0 -12 -8.5 -21t-21.5 -9q-12 0 -21 9t-9 22q3 100 3 288t-3 372q0 13 8.5 22t21.5 9t21.5 -9t8.5 -21q0 -31 1 -127.5t2 -150.5h174q0 48 0.5 142.5t0.5 135.5q0 13 9 21.5t21 8.5
q13 0 21.5 -8.5t8.5 -21.5q0 -45 -0.5 -150t-0.5 -156q-2 -156 -2 -227q0 -26 0.5 -69t0.5 -59q0 -13 -8.5 -22t-21.5 -9z" />
    <glyph glyph-name="uni041E" unicode="&#x41e;" horiz-adv-x="412" 
d="M210 -9q-33 0 -62.5 15.5t-43.5 39.5q-59 103 -59 331q0 205 51 282q39 61 107 61q38 0 72 -20.5t54 -58.5q38 -72 38 -208q0 -141 -21 -289q-11 -79 -49 -116t-87 -37zM105 377q0 -215 51 -303q17 -31 53 -31q26 0 48 26t30 83q20 149 20 281q0 124 -31 182
q-30 53 -71 53q-34 0 -59 -39q-41 -64 -41 -252z" />
    <glyph glyph-name="uni041F" unicode="&#x41f;" horiz-adv-x="384" 
d="M90 -10q-13 0 -21.5 8.5t-8.5 21.5q1 49 1 156t0.5 247.5t0.5 217.5q0 60 60 60h143q61 0 59 -61q-1 -42 -1 -126q0 -40 0.5 -120.5t0.5 -121.5q0 -152 -5 -253q0 -11 -9 -19.5t-21 -8.5q-13 0 -21.5 9t-8.5 22q5 102 5 258q0 34 -0.5 104t-0.5 104q0 53 2 157h-143
q0 -93 -0.5 -330t-1.5 -295q0 -13 -9 -21.5t-21 -8.5z" />
    <glyph glyph-name="uni0420" unicode="&#x420;" horiz-adv-x="312" 
d="M93 -11q-13 0 -21.5 8.5t-8.5 21.5v55q0 58 -1.5 181.5t-1.5 182.5q0 143 9 231q3 30 32 35q10 2 31 2q66 0 114 -39.5t48 -113.5q-1 -76 -50.5 -133.5t-122.5 -67.5q2 -182 2 -274v-59q0 -13 -9 -21.5t-21 -8.5zM121 408q49 8 81 48.5t32 96.5q0 49 -27 74t-69 25h-11
q-6 -52 -6 -202v-42z" />
    <glyph glyph-name="uni0421" unicode="&#x421;" horiz-adv-x="338" 
d="M180 -19q-38 0 -69.5 32t-45.5 94q-20 86 -20 215q0 66 7 176q10 127 43.5 174.5t82.5 47.5q36 0 62 -20t56 -63q5 -8 5 -16q0 -13 -8.5 -21.5t-21.5 -8.5q-16 0 -24 13q-24 36 -37.5 48t-31.5 12t-28.5 -9.5t-21.5 -48.5t-16 -112q-7 -112 -7 -175q0 -123 18 -199
q20 -87 62 -87q24 0 44.5 31.5t28.5 84.5q2 11 10 18.5t19 7.5q15 0 23.5 -11t6.5 -24q-12 -72 -51.5 -115.5t-85.5 -43.5z" />
    <glyph glyph-name="uni0422" unicode="&#x422;" horiz-adv-x="328" 
d="M171 -11q-12 0 -21 9t-9 21q0 24 -3.5 226.5t-3.5 290.5q0 51 2 113h-14q-50 0 -90 4q-11 1 -18.5 9t-7.5 19q0 12 9.5 20.5t21.5 7.5q39 -4 86 -4q24 0 52.5 1t63 2.5t53.5 2.5q12 1 21 -7.5t9 -20.5q0 -11 -8 -19t-19 -9l-99 -4q-2 -64 -2 -115q0 -87 3.5 -288
t3.5 -228q0 -13 -8.5 -22t-21.5 -9z" />
    <glyph glyph-name="uni0423" unicode="&#x423;" 
d="M98 -11q-27 0 -27 27q0 24 23 28q35 6 69 152l-2 7l-142 468q-4 14 5.5 26t23.5 12q22 0 29 -22l112 -371q1 7 64 368q2 11 10.5 18t19.5 7q13 0 18.5 -10.5t3.5 -24.5q-61 -358 -72 -409q-48 -232 -107 -268q-13 -8 -28 -8z" />
    <glyph glyph-name="uni0424" unicode="&#x424;" horiz-adv-x="489" 
d="M242 -91q-13 0 -21.5 8.5t-8.5 21.5l1 65q-17 -4 -40 -4q-58 0 -90.5 42.5t-32.5 154.5q0 37 -2.5 129.5t-2.5 155.5q0 44 1 67q1 36 8 63t20.5 44t27 27.5t35.5 16t39 7t44 2.5v34q0 13 9 21.5t21 8.5q13 0 21.5 -8.5t8.5 -21.5v-34q40 -2 64.5 -7t51 -20.5t38.5 -49
t10 -85.5q-2 -139 -2 -342q0 -199 -146 -199q-15 0 -23 1q0 -12 -0.5 -34.5t-0.5 -33.5q0 -13 -9 -21.5t-21 -8.5zM105 483q-2 -150 5 -288q4 -81 19 -110t49 -29q10 0 36 4l5 593q-65 -3 -87.5 -21t-25.5 -85q-1 -22 -1 -64zM274 63q4 0 11 -0.5t11 -0.5q41 0 63.5 31.5
t22.5 111.5q0 203 3 344q1 64 -21 82t-85 21q-1 -257 -5 -589z" />
    <glyph glyph-name="uni0425" unicode="&#x425;" horiz-adv-x="382" 
d="M44 -12q-12 0 -20.5 8.5t-8.5 21.5q0 8 2 11l136 354l-129 286q-3 6 -3 12q0 13 8.5 21.5t20.5 8.5q20 0 27 -17l113 -258l103 252q7 17 27 17q12 0 21 -8.5t9 -20.5q0 -4 -3 -12l-119 -280l137 -352q2 -6 2 -12q0 -30 -29 -30q-12 0 -20.5 9.5t-11 15.5t-9.5 26
l-106 284l-119 -319q-7 -18 -28 -18z" />
    <glyph glyph-name="uni0426" unicode="&#x426;" horiz-adv-x="405" 
d="M365 -106q-13 0 -21.5 9t-8.5 22v76l-214 -3q-61 -2 -61 60l4 623q0 12 9 21t21 9q13 0 21.5 -9t8.5 -21l-3 -627l141 2q2 96 2 207q0 259 -5 414q-1 13 8 22t22 9q12 0 20.5 -8.5t9.5 -20.5q5 -155 5 -415q0 -111 -2 -207h13q30 1 46 -14.5t15 -45.5l-1 -73
q0 -12 -9 -21t-21 -9z" />
    <glyph glyph-name="uni0427" unicode="&#x427;" horiz-adv-x="344" 
d="M140 383q-70 0 -100 55q-22 39 -22 108q0 21 2.5 67t2.5 68q0 12 9 21t22 9q12 0 21 -9t9 -21q0 -23 -3 -71t-3 -68q0 -49 15 -78q14 -27 51 -27q38 0 76 23l4 1q-2 137 -3 218q0 13 8.5 21.5t21.5 8.5q12 0 21 -8.5t9 -20.5q3 -147 3 -346q0 -216 -5 -314
q-1 -12 -9.5 -20.5t-20.5 -8.5q-13 0 -22 9.5t-8 22.5q5 96 5 311v66q-42 -17 -84 -17z" />
    <glyph glyph-name="uni0428" unicode="&#x428;" horiz-adv-x="519" 
d="M121 3q-61 -2 -61 60l4 622q0 12 9 21t21 9q13 0 21.5 -9t8.5 -21l-3 -626l110 1q6 60 6 254q0 143 -2 347q0 12 9 21t21 9q13 0 21.5 -9t8.5 -21q2 -202 2 -345q0 -185 -5 -255l107 2q0 14 -4 185t-4 273q0 87 3 162q0 12 8.5 20.5t21.5 8.5q12 0 21 -9.5t9 -21.5
q-3 -74 -3 -160q0 -103 4 -273t4 -200q0 -7 -3 -13q0 -12 -8.5 -20t-19.5 -8z" />
    <glyph glyph-name="uni0429" unicode="&#x429;" horiz-adv-x="525" 
d="M485 -106q-13 0 -21.5 9t-8.5 22v77l-334 -4q-61 0 -61 60l4 627q0 12 9 21t21 9q13 0 21.5 -9t8.5 -21l-3 -631l96 1q-4 96 -4 213q0 234 11 393q1 12 9.5 20t20.5 8q13 0 22 -9.5t8 -22.5q-11 -158 -11 -389q0 -119 4 -213l104 1q1 47 1 205q0 265 -5 420q0 13 9 22
t21 9q13 0 21.5 -8.5t8.5 -20.5q5 -156 5 -422q0 -157 -1 -204h14q30 0 46 -15t15 -45l-1 -73q0 -12 -9 -21t-21 -9z" />
    <glyph glyph-name="uni042A" unicode="&#x42a;" horiz-adv-x="369" 
d="M165 -15q-21 0 -44 8t-23 26v51q0 55 -1.5 180t-1.5 189q0 149 8 213l-74 -1q-12 0 -20.5 8t-8.5 20q0 11 8.5 19.5t19.5 8.5l85 2q30 1 44 -16t10 -48q-10 -86 -10 -289v-43q36 -5 67.5 -15.5t61.5 -29.5t47.5 -51t17.5 -73q0 -67 -58.5 -113t-127.5 -46zM157 256
q1 -59 1 -174v-42q5 -1 14 -1q44 0 81.5 30t37.5 75q-1 96 -134 112z" />
    <glyph glyph-name="uni042B" unicode="&#x42b;" horiz-adv-x="467" 
d="M112 -13q-51 0 -51 32q1 60 1 195q0 102 -1 268t-1 197q0 12 9 21t21 9q13 0 21.5 -9t8.5 -21q0 -59 2 -311q67 -14 114.5 -59.5t47.5 -133.5q0 -79 -54.5 -133.5t-117.5 -54.5zM121 41q39 2 71 39.5t32 94.5q0 111 -102 136v-97q0 -119 -1 -173zM338 677q0 13 8.5 21.5
t21.5 8.5q12 0 21 -8.5t9 -21.5q-1 -49 4 -273t5 -336v-49q0 -13 -9 -21.5t-21 -8.5q-13 0 -21.5 8.5t-8.5 21.5v48q0 109 -5 334t-4 276z" />
    <glyph glyph-name="uni042C" unicode="&#x42c;" horiz-adv-x="329" 
d="M129 -15q-67 0 -67 34v60q0 56 -1 186t-1 187q0 177 8 233q2 11 10.5 18t19.5 7q13 0 22 -10t7 -23q-7 -53 -7 -196q0 -22 0.5 -81.5t0.5 -86.5q35 -5 66 -15.5t60.5 -29.5t46.5 -51t17 -73q0 -67 -57 -113t-125 -46zM122 40q4 -1 12 -1q44 0 80.5 30t36.5 75
q0 96 -129 112q0 -17 1 -70.5t0 -81.5z" />
    <glyph glyph-name="uni042D" unicode="&#x42d;" 
d="M164 -19q-46 0 -87 39t-55 102q-3 14 6 25t23 11q25 0 29 -25q8 -45 30 -72.5t47 -27.5q46 0 59 87q12 83 12 243q-64 0 -102 -4q-12 -1 -21.5 7.5t-9.5 20.5q0 10 7 18t17 10q24 3 109 3v58q-1 80 -12 124t-23.5 54t-31.5 10q-17 0 -31 -10.5t-39 -42.5q-8 -11 -23 -11
q-12 0 -20.5 8.5t-8.5 20.5q0 10 7 19q30 37 55.5 54.5t59.5 17.5q127 0 127 -243v-81q0 -188 -13 -284q-9 -66 -39.5 -98.5t-71.5 -32.5z" />
    <glyph glyph-name="uni042E" unicode="&#x42e;" horiz-adv-x="559" 
d="M103 -11q-12 0 -21 8.5t-9 21.5l-13 658q0 13 8.5 21.5t21.5 8.5q12 0 21 -8.5t9 -20.5l5 -262q24 -4 56 -4l43 1q3 172 47 245q35 62 96 62q70 0 112 -80q34 -72 34 -207v-108q0 -106 -9 -181q-11 -79 -48.5 -116.5t-84.5 -37.5q-33 0 -61 16t-41 41q-43 83 -45 310
q-11 -1 -35 -1q-30 0 -63 3l7 -339q0 -13 -8.5 -22t-21.5 -9zM284 377q0 -231 38 -304q16 -31 49 -31q25 0 45 26.5t28 83.5q9 71 9 173v108q0 124 -28 183q-26 52 -56 52q-24 0 -47 -38q-38 -66 -38 -253z" />
    <glyph glyph-name="uni042F" unicode="&#x42f;" horiz-adv-x="358" 
d="M206 314q-52 -55 -77 -117.5t-39 -182.5q-1 -11 -10 -18.5t-20 -7.5q-13 0 -22.5 10t-7.5 23q14 117 39.5 185.5t73.5 124.5q-94 45 -94 174q0 11 2 37q8 91 49 130.5t99 39.5q32 0 56 -8l5 -2q23 -7 23 -29q0 -16 7.5 -242t7.5 -352v-56q0 -12 -8.5 -21t-21.5 -9
q-12 0 -21 9t-9 21v56q0 76 -4 234q-10 1 -28 1zM109 502q0 -71 32 -102t92 -33q-9 271 -10 288q-12 3 -25 3q-77 0 -87 -122q-2 -24 -2 -34z" />
    <glyph glyph-name="uni0430" unicode="&#x430;" horiz-adv-x="376" 
d="M84 -11q-13 0 -21.5 8.5t-8.5 21.5q3 296 15 405q17 163 42 228.5t77 65.5q107 0 123 -276q11 -178 11 -295v-128q0 -12 -8.5 -21t-21.5 -9q-12 0 -21 9t-9 21q-2 225 -3 261q-38 -6 -87 -6q-18 0 -54 2q0 -13 -4 -257q0 -13 -9 -21.5t-21 -8.5zM121 331q18 -1 53 -1
q49 0 82 6h1q-1 27 -6 103q-13 223 -63 223q-12 0 -21 -20t-19 -74t-20 -150q-3 -30 -7 -87z" />
    <glyph glyph-name="uni0431" unicode="&#x431;" horiz-adv-x="328" 
d="M92 -9q-12 0 -21 8.5t-9 21.5v60q0 56 -1 176.5t-1 177.5q0 166 8 231q3 20 20 26q48 14 104 14q16 0 46 -2q11 -1 18.5 -9t7.5 -19q0 -12 -9.5 -20.5t-21.5 -7.5q-28 2 -42 2q-35 0 -66 -7q-5 -53 -5 -190v-3q34 -7 64.5 -21t58.5 -39t44.5 -65.5t16.5 -91.5
q0 -100 -58 -171t-154 -71zM120 393q2 -200 2 -313v-35q48 -2 85 58.5t37 129.5q0 132 -124 160z" />
    <glyph glyph-name="uni0432" unicode="&#x432;" horiz-adv-x="329" 
d="M116 -4q-56 0 -56 30q0 38 2 210.5t2 258.5q0 31 -1 83.5t-1 73.5q0 29 15.5 45.5t42.5 12.5q56 -9 93 -48.5t37 -101.5q0 -43 -15.5 -72t-56.5 -51q136 -45 136 -228q0 -103 -51.5 -158t-146.5 -55zM120 52q70 4 102.5 39t32.5 108q0 187 -131 211zM122 653
q2 -94 2 -162v-34q25 15 36.5 24.5t20.5 28t9 45.5q0 83 -68 98z" />
    <glyph glyph-name="uni0433" unicode="&#x433;" horiz-adv-x="285" 
d="M109 -12q-12 0 -20.5 8t-9.5 21q-2 62 -7.5 204.5t-9 249.5t-2.5 172q2 58 61 58l129 1q12 0 20.5 -8t8.5 -20q0 -11 -8.5 -19.5t-19.5 -8.5l-132 -1v-32q0 -58 3.5 -160.5t9 -234.5t7.5 -200q0 -12 -8.5 -21t-21.5 -9z" />
    <glyph glyph-name="uni0434" unicode="&#x434;" horiz-adv-x="404" 
d="M37 -106q-12 0 -20.5 8.5t-9.5 20.5l-4 70q-3 57 50 62q20 76 29 170.5t13 229t8 192.5q4 56 63 58q13 1 42 1q31 0 47 -1q56 -3 58 -62l13 -586h8q30 0 46 -15t15 -45l-1 -73q0 -12 -9 -21t-21 -9q-13 0 -21.5 9t-8.5 22v76l-272 -3l5 -72q1 -13 -8 -22.5t-22 -9.5z
M114 55l152 1l-13 594q-28 1 -89 -1q-4 -57 -8 -188.5t-13 -228.5t-29 -177z" />
    <glyph glyph-name="uni0435" unicode="&#x435;" 
d="M123 -4q-29 -1 -44.5 14t-15.5 43q0 47 2 140t2 142q0 45 -3.5 150t-3.5 161q0 28 15.5 43t44.5 14l145 -3q12 0 20 -8.5t8 -19.5q0 -12 -8.5 -20t-20.5 -8l-144 3q0 -35 1 -75.5t2.5 -90t2.5 -76.5l107 -3q11 0 19 -8.5t8 -19.5q0 -12 -8.5 -20t-20.5 -8l-104 3v-14
q0 -56 -2 -154t-2 -129l145 5q11 0 20 -8t9 -20q0 -11 -8.5 -19t-19.5 -9z" />
    <glyph glyph-name="uni0436" unicode="&#x436;" horiz-adv-x="512" 
d="M468 -6q-11 0 -19.5 7t-10.5 18q-29 175 -59 247t-96 96q3 -59 3 -144l-1 -198q0 -12 -9 -20.5t-21 -8.5q-13 0 -21.5 9t-8.5 22l1 198q0 85 -3 144q-66 -25 -98 -102t-51 -245q-1 -11 -9.5 -18.5t-20.5 -7.5q-13 0 -21.5 10t-7.5 23q18 155 53 243t98 128
q-37 44 -60 75.5t-49 87.5t-35 115q-2 13 6.5 24t23.5 11q25 0 29 -25q11 -78 45 -137.5t95 -134.5q-2 46 -3.5 138.5t-2.5 129.5q-1 13 8 22t22 9q12 0 20.5 -8.5t9.5 -20.5q1 -37 2.5 -129.5t3.5 -139.5q64 56 102 118.5t50 151.5q2 11 10 18.5t19 7.5q14 0 23.5 -11
t7.5 -24q-23 -164 -140 -279q60 -37 87.5 -116t56.5 -249q2 -13 -6.5 -24t-22.5 -11z" />
    <glyph glyph-name="uni0437" unicode="&#x437;" horiz-adv-x="307" 
d="M122 -19q-57 0 -101 41q-9 11 -9 21q0 12 8.5 20.5t20.5 8.5q13 0 21 -8q29 -30 66 -30q40 0 67.5 38.5t27.5 111.5q0 82 -25 121t-88 39q-32 0 -32 32q0 13 7.5 22t17.5 9q99 0 99 140q0 58 -18 87t-49 29q-35 0 -53 -13q-8 -5 -16 -5q-12 0 -20.5 8.5t-8.5 20.5
q0 16 15 24q34 21 83 21q56 0 91.5 -47.5t35.5 -124.5q0 -121 -80 -166q52 -17 76.5 -72t24.5 -125q0 -95 -47.5 -149t-113.5 -54z" />
    <glyph glyph-name="uni0438" unicode="&#x438;" horiz-adv-x="440" 
d="M347 -10q-13 0 -21.5 8.5t-8.5 21.5q0 86 1.5 235.5t1.5 205.5v89l-189 -522q-13 -37 -39 -37q-13 0 -21.5 13t-8.5 37q-2 105 -2 337v302q0 13 9 21.5t21 8.5q13 0 21.5 -8.5t8.5 -21.5q0 -85 -0.5 -261.5t-0.5 -261.5l187 517q13 35 36 35q14 0 24.5 -15.5t11.5 -41.5
q2 -62 2 -177q0 -63 -1.5 -216.5t-1.5 -238.5q0 -13 -9 -21.5t-21 -8.5z" />
    <glyph glyph-name="uni0439" unicode="&#x439;" horiz-adv-x="440" 
d="M347 -10q-13 0 -21.5 8.5t-8.5 21.5q0 86 1.5 235.5t1.5 205.5v89l-189 -522q-13 -37 -39 -37q-13 0 -21.5 13t-8.5 37q-2 105 -2 337v302q0 13 9 21.5t21 8.5q13 0 21.5 -8.5t8.5 -21.5q0 -85 -0.5 -261.5t-0.5 -261.5l187 517q13 35 36 35q14 0 24.5 -15.5t11.5 -41.5
q2 -62 2 -177q0 -63 -1.5 -216.5t-1.5 -238.5q0 -13 -9 -21.5t-21 -8.5zM131 785q0 12 8.5 20.5t20.5 8.5q14 0 23 -11q17 -22 37 -22q22 0 49 25q8 8 20 8t20.5 -8.5t8.5 -20.5q0 -14 -10 -22q-42 -38 -88 -38q-47 0 -82 41q-7 9 -7 19z" />
    <glyph glyph-name="uni043A" unicode="&#x43a;" horiz-adv-x="371" 
d="M326 -9q-25 0 -29 25q-27 178 -53 245t-92 94q-16 7 -26 15q1 -46 1 -121v-31l3 -198q0 -12 -9 -20.5t-21 -8.5q-13 0 -21.5 9t-8.5 22l-3 198v30q0 230 -7 429q-1 13 8 22t22 9q12 0 20.5 -8.5t9.5 -20.5q4 -119 6 -274q4 6 9 11q95 110 151 273q7 20 29 20
q13 0 21.5 -9t8.5 -21q0 -3 -2 -9q-58 -165 -149 -274q74 -38 105 -117t57 -255q2 -13 -7 -24t-23 -11z" />
    <glyph glyph-name="uni043B" unicode="&#x43b;" horiz-adv-x="411" 
d="M41 -20q-15 0 -25 8.5t-10 20.5t7.5 20.5t18.5 8.5q21 0 35.5 15t25 55t16.5 82t10 122.5t6 148.5t4 187q1 59 62 61q54 2 89 1q56 -3 58 -62l13 -626q0 -13 -8.5 -22t-21.5 -9q-12 0 -21 8.5t-9 21.5l-13 634q-24 1 -98 -1q-9 -354 -16 -435q-17 -181 -71 -222
q-22 -17 -52 -17z" />
    <glyph glyph-name="uni043C" unicode="&#x43c;" horiz-adv-x="497" 
d="M92 -11q-13 0 -21.5 9t-8.5 21q-1 89 -1 258v238q0 124 -1 165q0 13 9 22t21 9q20 0 30 -22l126 -290l119 287q2 5 6 11q9 14 25 14q12 0 21 -8.5t9 -20.5q9 -232 11 -663q0 -12 -8.5 -21t-21.5 -9q-12 0 -21 9t-9 21q-2 269 -7 541l-93 -218q-15 -33 -38 -33
q-22 0 -35 32l-83 204v-52q0 -291 1 -473q0 -13 -9 -22t-21 -9z" />
    <glyph glyph-name="uni043D" unicode="&#x43d;" horiz-adv-x="418" 
d="M326 -11q-12 0 -21 9t-9 21q0 16 -0.5 59t-0.5 69q0 62 2 200h-174v-40q0 -188 -3 -288q0 -12 -8.5 -21t-21.5 -9q-12 0 -21 9t-9 22q3 100 3 288t-3 372q0 13 8.5 22t21.5 9t21.5 -9t8.5 -21q0 -31 1 -127.5t2 -150.5h174q0 48 0.5 142.5t0.5 135.5q0 13 9 21.5t21 8.5
q13 0 21.5 -8.5t8.5 -21.5q0 -45 -0.5 -150t-0.5 -156q-2 -156 -2 -227q0 -26 0.5 -69t0.5 -59q0 -13 -8.5 -22t-21.5 -9z" />
    <glyph glyph-name="uni043E" unicode="&#x43e;" horiz-adv-x="412" 
d="M210 -9q-33 0 -62.5 15.5t-43.5 39.5q-59 103 -59 331q0 205 51 282q39 61 107 61q38 0 72 -20.5t54 -58.5q38 -72 38 -208q0 -141 -21 -289q-11 -79 -49 -116t-87 -37zM105 377q0 -215 51 -303q17 -31 53 -31q26 0 48 26t30 83q20 149 20 281q0 124 -31 182
q-30 53 -71 53q-34 0 -59 -39q-41 -64 -41 -252z" />
    <glyph glyph-name="uni043F" unicode="&#x43f;" horiz-adv-x="384" 
d="M90 -10q-13 0 -21.5 8.5t-8.5 21.5q1 49 1 156t0.5 247.5t0.5 217.5q0 60 60 60h143q61 0 59 -61q-1 -42 -1 -126q0 -40 0.5 -120.5t0.5 -121.5q0 -152 -5 -253q0 -11 -9 -19.5t-21 -8.5q-13 0 -21.5 9t-8.5 22q5 102 5 258q0 34 -0.5 104t-0.5 104q0 53 2 157h-143
q0 -93 -0.5 -330t-1.5 -295q0 -13 -9 -21.5t-21 -8.5z" />
    <glyph glyph-name="uni0440" unicode="&#x440;" horiz-adv-x="312" 
d="M93 -11q-13 0 -21.5 8.5t-8.5 21.5v55q0 58 -1.5 181.5t-1.5 182.5q0 143 9 231q3 30 32 35q10 2 31 2q66 0 114 -39.5t48 -113.5q-1 -76 -50.5 -133.5t-122.5 -67.5q2 -182 2 -274v-59q0 -13 -9 -21.5t-21 -8.5zM121 408q49 8 81 48.5t32 96.5q0 49 -27 74t-69 25h-11
q-6 -52 -6 -202v-42z" />
    <glyph glyph-name="uni0441" unicode="&#x441;" horiz-adv-x="338" 
d="M180 -19q-38 0 -69.5 32t-45.5 94q-20 86 -20 215q0 66 7 176q10 127 43.5 174.5t82.5 47.5q36 0 62 -20t56 -63q5 -8 5 -16q0 -13 -8.5 -21.5t-21.5 -8.5q-16 0 -24 13q-24 36 -37.5 48t-31.5 12t-28.5 -9.5t-21.5 -48.5t-16 -112q-7 -112 -7 -175q0 -123 18 -199
q20 -87 62 -87q24 0 44.5 31.5t28.5 84.5q2 11 10 18.5t19 7.5q15 0 23.5 -11t6.5 -24q-12 -72 -51.5 -115.5t-85.5 -43.5z" />
    <glyph glyph-name="uni0442" unicode="&#x442;" horiz-adv-x="328" 
d="M171 -11q-12 0 -21 9t-9 21q0 24 -3.5 226.5t-3.5 290.5q0 51 2 113h-14q-50 0 -90 4q-11 1 -18.5 9t-7.5 19q0 12 9.5 20.5t21.5 7.5q39 -4 86 -4q24 0 52.5 1t63 2.5t53.5 2.5q12 1 21 -7.5t9 -20.5q0 -11 -8 -19t-19 -9l-99 -4q-2 -64 -2 -115q0 -87 3.5 -288
t3.5 -228q0 -13 -8.5 -22t-21.5 -9z" />
    <glyph glyph-name="uni0443" unicode="&#x443;" 
d="M98 -11q-27 0 -27 27q0 24 23 28q35 6 69 152l-2 7l-142 468q-4 14 5.5 26t23.5 12q22 0 29 -22l112 -371q1 7 64 368q2 11 10.5 18t19.5 7q13 0 18.5 -10.5t3.5 -24.5q-61 -358 -72 -409q-48 -232 -107 -268q-13 -8 -28 -8z" />
    <glyph glyph-name="uni0444" unicode="&#x444;" horiz-adv-x="489" 
d="M242 -91q-13 0 -21.5 8.5t-8.5 21.5l1 65q-17 -4 -40 -4q-58 0 -90.5 42.5t-32.5 154.5q0 37 -2.5 129.5t-2.5 155.5q0 44 1 67q1 36 8 63t20.5 44t27 27.5t35.5 16t39 7t44 2.5v34q0 13 9 21.5t21 8.5q13 0 21.5 -8.5t8.5 -21.5v-34q40 -2 64.5 -7t51 -20.5t38.5 -49
t10 -85.5q-2 -139 -2 -342q0 -199 -146 -199q-15 0 -23 1q0 -12 -0.5 -34.5t-0.5 -33.5q0 -13 -9 -21.5t-21 -8.5zM105 483q-2 -150 5 -288q4 -81 19 -110t49 -29q10 0 36 4l5 593q-65 -3 -87.5 -21t-25.5 -85q-1 -22 -1 -64zM274 63q4 0 11 -0.5t11 -0.5q41 0 63.5 31.5
t22.5 111.5q0 203 3 344q1 64 -21 82t-85 21q-1 -257 -5 -589z" />
    <glyph glyph-name="uni0445" unicode="&#x445;" horiz-adv-x="382" 
d="M44 -12q-12 0 -20.5 8.5t-8.5 21.5q0 8 2 11l136 354l-129 286q-3 6 -3 12q0 13 8.5 21.5t20.5 8.5q20 0 27 -17l113 -258l103 252q7 17 27 17q12 0 21 -8.5t9 -20.5q0 -4 -3 -12l-119 -280l137 -352q2 -6 2 -12q0 -30 -29 -30q-12 0 -20.5 9.5t-11 15.5t-9.5 26
l-106 284l-119 -319q-7 -18 -28 -18z" />
    <glyph glyph-name="uni0446" unicode="&#x446;" horiz-adv-x="405" 
d="M365 -106q-13 0 -21.5 9t-8.5 22v76l-214 -3q-61 -2 -61 60l4 623q0 12 9 21t21 9q13 0 21.5 -9t8.5 -21l-3 -627l141 2q2 96 2 207q0 259 -5 414q-1 13 8 22t22 9q12 0 20.5 -8.5t9.5 -20.5q5 -155 5 -415q0 -111 -2 -207h13q30 1 46 -14.5t15 -45.5l-1 -73
q0 -12 -9 -21t-21 -9z" />
    <glyph glyph-name="uni0447" unicode="&#x447;" horiz-adv-x="344" 
d="M140 383q-70 0 -100 55q-22 39 -22 108q0 21 2.5 67t2.5 68q0 12 9 21t22 9q12 0 21 -9t9 -21q0 -23 -3 -71t-3 -68q0 -49 15 -78q14 -27 51 -27q38 0 76 23l4 1q-2 137 -3 218q0 13 8.5 21.5t21.5 8.5q12 0 21 -8.5t9 -20.5q3 -147 3 -346q0 -216 -5 -314
q-1 -12 -9.5 -20.5t-20.5 -8.5q-13 0 -22 9.5t-8 22.5q5 96 5 311v66q-42 -17 -84 -17z" />
    <glyph glyph-name="uni0448" unicode="&#x448;" horiz-adv-x="519" 
d="M121 3q-61 -2 -61 60l4 622q0 12 9 21t21 9q13 0 21.5 -9t8.5 -21l-3 -626l110 1q6 60 6 254q0 143 -2 347q0 12 9 21t21 9q13 0 21.5 -9t8.5 -21q2 -202 2 -345q0 -185 -5 -255l107 2q0 14 -4 185t-4 273q0 87 3 162q0 12 8.5 20.5t21.5 8.5q12 0 21 -9.5t9 -21.5
q-3 -74 -3 -160q0 -103 4 -273t4 -200q0 -7 -3 -13q0 -12 -8.5 -20t-19.5 -8z" />
    <glyph glyph-name="uni0449" unicode="&#x449;" horiz-adv-x="525" 
d="M485 -106q-13 0 -21.5 9t-8.5 22v77l-334 -4q-61 0 -61 60l4 627q0 12 9 21t21 9q13 0 21.5 -9t8.5 -21l-3 -631l96 1q-4 96 -4 213q0 234 11 393q1 12 9.5 20t20.5 8q13 0 22 -9.5t8 -22.5q-11 -158 -11 -389q0 -119 4 -213l104 1q1 47 1 205q0 265 -5 420q0 13 9 22
t21 9q13 0 21.5 -8.5t8.5 -20.5q5 -156 5 -422q0 -157 -1 -204h14q30 0 46 -15t15 -45l-1 -73q0 -12 -9 -21t-21 -9z" />
    <glyph glyph-name="uni044A" unicode="&#x44a;" horiz-adv-x="369" 
d="M165 -15q-21 0 -44 8t-23 26v51q0 55 -1.5 180t-1.5 189q0 149 8 213l-74 -1q-12 0 -20.5 8t-8.5 20q0 11 8.5 19.5t19.5 8.5l85 2q30 1 44 -16t10 -48q-10 -86 -10 -289v-43q36 -5 67.5 -15.5t61.5 -29.5t47.5 -51t17.5 -73q0 -67 -58.5 -113t-127.5 -46zM157 256
q1 -59 1 -174v-42q5 -1 14 -1q44 0 81.5 30t37.5 75q-1 96 -134 112z" />
    <glyph glyph-name="uni044B" unicode="&#x44b;" horiz-adv-x="467" 
d="M112 -13q-51 0 -51 32q1 60 1 195q0 102 -1 268t-1 197q0 12 9 21t21 9q13 0 21.5 -9t8.5 -21q0 -59 2 -311q67 -14 114.5 -59.5t47.5 -133.5q0 -79 -54.5 -133.5t-117.5 -54.5zM121 41q39 2 71 39.5t32 94.5q0 111 -102 136v-97q0 -119 -1 -173zM338 677q0 13 8.5 21.5
t21.5 8.5q12 0 21 -8.5t9 -21.5q-1 -49 4 -273t5 -336v-49q0 -13 -9 -21.5t-21 -8.5q-13 0 -21.5 8.5t-8.5 21.5v48q0 109 -5 334t-4 276z" />
    <glyph glyph-name="uni044C" unicode="&#x44c;" horiz-adv-x="329" 
d="M129 -15q-67 0 -67 34v60q0 56 -1 186t-1 187q0 177 8 233q2 11 10.5 18t19.5 7q13 0 22 -10t7 -23q-7 -53 -7 -196q0 -22 0.5 -81.5t0.5 -86.5q35 -5 66 -15.5t60.5 -29.5t46.5 -51t17 -73q0 -67 -57 -113t-125 -46zM122 40q4 -1 12 -1q44 0 80.5 30t36.5 75
q0 96 -129 112q0 -17 1 -70.5t0 -81.5z" />
    <glyph glyph-name="uni044D" unicode="&#x44d;" 
d="M164 -19q-46 0 -87 39t-55 102q-3 14 6 25t23 11q25 0 29 -25q8 -45 30 -72.5t47 -27.5q46 0 59 87q12 83 12 243q-64 0 -102 -4q-12 -1 -21.5 7.5t-9.5 20.5q0 10 7 18t17 10q24 3 109 3v58q-1 80 -12 124t-23.5 54t-31.5 10q-17 0 -31 -10.5t-39 -42.5q-8 -11 -23 -11
q-12 0 -20.5 8.5t-8.5 20.5q0 10 7 19q30 37 55.5 54.5t59.5 17.5q127 0 127 -243v-81q0 -188 -13 -284q-9 -66 -39.5 -98.5t-71.5 -32.5z" />
    <glyph glyph-name="uni044E" unicode="&#x44e;" horiz-adv-x="559" 
d="M103 -11q-12 0 -21 8.5t-9 21.5l-13 658q0 13 8.5 21.5t21.5 8.5q12 0 21 -8.5t9 -20.5l5 -262q24 -4 56 -4l43 1q3 172 47 245q35 62 96 62q70 0 112 -80q34 -72 34 -207v-108q0 -106 -9 -181q-11 -79 -48.5 -116.5t-84.5 -37.5q-33 0 -61 16t-41 41q-43 83 -45 310
q-11 -1 -35 -1q-30 0 -63 3l7 -339q0 -13 -8.5 -22t-21.5 -9zM284 377q0 -231 38 -304q16 -31 49 -31q25 0 45 26.5t28 83.5q9 71 9 173v108q0 124 -28 183q-26 52 -56 52q-24 0 -47 -38q-38 -66 -38 -253z" />
    <glyph glyph-name="uni044F" unicode="&#x44f;" horiz-adv-x="358" 
d="M206 314q-52 -55 -77 -117.5t-39 -182.5q-1 -11 -10 -18.5t-20 -7.5q-13 0 -22.5 10t-7.5 23q14 117 39.5 185.5t73.5 124.5q-94 45 -94 174q0 11 2 37q8 91 49 130.5t99 39.5q32 0 56 -8l5 -2q23 -7 23 -29q0 -16 7.5 -242t7.5 -352v-56q0 -12 -8.5 -21t-21.5 -9
q-12 0 -21 9t-9 21v56q0 76 -4 234q-10 1 -28 1zM109 502q0 -71 32 -102t92 -33q-9 271 -10 288q-12 3 -25 3q-77 0 -87 -122q-2 -24 -2 -34z" />
    <glyph glyph-name="uni0450" unicode="&#x450;" 
d="M123 -4q-29 -1 -44.5 14t-15.5 43q0 47 2 140t2 142q0 45 -3.5 150t-3.5 161q0 28 15.5 43t44.5 14l145 -3q12 0 20 -8.5t8 -19.5q0 -12 -8.5 -20t-20.5 -8l-144 3q0 -35 1 -75.5t2.5 -90t2.5 -76.5l107 -3q11 0 19 -8.5t8 -19.5q0 -12 -8.5 -20t-20.5 -8l-104 3v-14
q0 -56 -2 -154t-2 -129l145 5q11 0 20 -8t9 -20q0 -11 -8.5 -19t-19.5 -9zM110 847q0 23 22 23q12 0 19 -5q47 -32 97 -78q9 -6 9 -21q0 -24 -25 -24q-10 0 -19 7q-56 51 -91 74q-12 9 -12 24z" />
    <glyph glyph-name="uni0451" unicode="&#x451;" 
d="M123 -4q-29 -1 -44.5 14t-15.5 43q0 47 2 140t2 142q0 45 -3.5 150t-3.5 161q0 28 15.5 43t44.5 14l145 -3q12 0 20 -8.5t8 -19.5q0 -12 -8.5 -20t-20.5 -8l-144 3q0 -35 1 -75.5t2.5 -90t2.5 -76.5l107 -3q11 0 19 -8.5t8 -19.5q0 -12 -8.5 -20t-20.5 -8l-104 3v-14
q0 -56 -2 -154t-2 -129l145 5q11 0 20 -8t9 -20q0 -11 -8.5 -19t-19.5 -9zM109 769v26q0 13 8.5 21.5t21.5 8.5q12 0 21 -8.5t9 -21.5v-26q0 -13 -9 -21.5t-21 -8.5q-13 0 -21.5 8.5t-8.5 21.5zM204 770v26q0 13 8.5 21.5t21.5 8.5q12 0 21 -8.5t9 -21.5v-26q0 -13 -9 -21.5
t-21 -8.5q-13 0 -21.5 8.5t-8.5 21.5z" />
    <glyph glyph-name="uni0452" unicode="&#x452;" horiz-adv-x="497" 
d="M269 -20q-11 0 -19.5 8.5t-8.5 19.5t8.5 19.5t19.5 8.5q123 0 123 212q0 94 -28.5 133t-80.5 39q-50 0 -86 -14l-2 -1q1 -64 3.5 -196t2.5 -189q0 -13 -8.5 -22t-21.5 -9q-12 0 -21 9t-9 21q0 24 -3.5 226.5t-3.5 290.5q0 43 2 105h-14q-50 0 -90 4q-11 1 -18.5 9
t-7.5 19q0 12 9.5 20.5t21.5 7.5q39 -4 86 -4q24 0 52.5 1t63 2.5t53.5 2.5q12 1 21 -7.5t9 -20.5q0 -11 -8 -19t-19 -9l-99 -4q-2 -64 -2 -107v-75q33 15 89 15q74 0 121.5 -56t47.5 -172q0 -121 -45 -194.5t-138 -73.5z" />
    <glyph glyph-name="uni0453" unicode="&#x453;" horiz-adv-x="285" 
d="M109 -12q-12 0 -20.5 8t-9.5 21q-2 62 -7.5 204.5t-9 249.5t-2.5 172q2 58 61 58l129 1q12 0 20.5 -8t8.5 -20q0 -11 -8.5 -19.5t-19.5 -8.5l-132 -1v-32q0 -58 3.5 -160.5t9 -234.5t7.5 -200q0 -12 -8.5 -21t-21.5 -9zM122 746q0 15 9 21q50 46 97 78q7 5 19 5
q22 0 22 -23q0 -15 -12 -24q-35 -23 -91 -74q-9 -7 -19 -7q-25 0 -25 24z" />
    <glyph glyph-name="uni0454" unicode="&#x454;" 
d="M169 -19q-41 0 -71.5 32.5t-39.5 98.5q-13 96 -13 284v81q0 243 127 243q34 0 59.5 -17.5t55.5 -54.5q7 -9 7 -19q0 -12 -8.5 -20.5t-20.5 -8.5q-15 0 -23 11q-25 32 -39 42.5t-31 10.5q-19 0 -31.5 -10t-23.5 -54t-12 -124v-58q85 0 109 -3q10 -2 17 -10t7 -18
q0 -12 -9.5 -20.5t-21.5 -7.5q-38 4 -102 4q0 -160 12 -243q13 -87 59 -87q25 0 47 27.5t30 72.5q4 25 29 25q14 0 23 -11t6 -25q-14 -63 -55 -102t-87 -39z" />
    <glyph glyph-name="uni0455" unicode="&#x455;" horiz-adv-x="332" 
d="M167 -20q-54 0 -95.5 38.5t-41.5 63.5q0 12 8.5 21t21.5 9q19 0 26 -17q31 -64 83 -64q32 0 55 31t23 87q0 100 -81 203q-5 6 -37 44.5t-43.5 55t-25.5 50t-14 64.5q0 63 28 107.5t87 44.5q71 0 125 -76q6 -6 6 -17q0 -12 -8.5 -20.5t-20.5 -8.5q-15 0 -24 12
q-21 30 -37.5 42t-40.5 12q-55 0 -55 -96q0 -19 5 -36.5t18 -37.5t21 -30.5t29.5 -36t27.5 -32.5q101 -123 101 -241q-1 -81 -42 -126.5t-99 -45.5z" />
    <glyph glyph-name="uni0456" unicode="&#x456;" horiz-adv-x="186" 
d="M96 -11q-12 0 -21 9t-9 21q-2 156 -2 237v133q0 210 -4 291q-1 13 7.5 22t21.5 9t21.5 -8t8.5 -20q5 -103 5 -379q0 -191 2 -284q0 -13 -8.5 -22t-21.5 -9z" />
    <glyph glyph-name="uni0457" unicode="&#x457;" horiz-adv-x="186" 
d="M96 -11q-12 0 -21 9t-9 21q-2 156 -2 237v133q0 210 -4 291q-1 13 7.5 22t21.5 9t21.5 -8t8.5 -20q5 -103 5 -379q0 -191 2 -284q0 -13 -8.5 -22t-21.5 -9zM15 769v26q0 13 8.5 21.5t21.5 8.5q12 0 21 -8.5t9 -21.5v-26q0 -13 -9 -21.5t-21 -8.5q-13 0 -21.5 8.5
t-8.5 21.5zM110 770v26q0 13 8.5 21.5t21.5 8.5q12 0 21 -8.5t9 -21.5v-26q0 -13 -9 -21.5t-21 -8.5q-13 0 -21.5 8.5t-8.5 21.5z" />
    <glyph glyph-name="uni0458" unicode="&#x458;" horiz-adv-x="325" 
d="M159 -20q-65 0 -153 120q-6 8 -6 17q0 12 8.5 20.5t21.5 8.5q14 0 23 -12q68 -98 100 -98q40 0 54 168q10 103 10 232q0 107 -8 217q-69 -2 -132 -11q-13 -2 -22.5 6.5t-9.5 21.5q0 11 7 19t17 9q65 9 138 11q58 0 63 -57q7 -92 7 -208q0 -136 -10 -245
q-20 -219 -108 -219z" />
    <glyph glyph-name="uni0459" unicode="&#x459;" horiz-adv-x="551" 
d="M41 -20q-15 0 -25 8.5t-10 20.5t7.5 20.5t18.5 8.5q21 0 35.5 15t25 55t16.5 82t10 122.5t6 148.5t4 187q1 59 62 61q54 2 89 1q56 -3 58 -62l6 -292q189 -29 189 -186q0 -83 -61 -131t-151 -48q-12 0 -21 8.5t-9 21.5l-13 634q-24 1 -98 -1q-9 -354 -16 -435
q-17 -181 -71 -222q-22 -17 -52 -17zM345 300l6 -255h5q45 0 81 33.5t36 91.5q0 61 -33.5 91t-94.5 39z" />
    <glyph glyph-name="uni045A" unicode="&#x45a;" horiz-adv-x="566" 
d="M90 -11q-12 0 -21 9t-9 22q3 100 3 288t-3 372q0 13 8.5 22t21.5 9t21.5 -9t8.5 -21q0 -31 1 -127.5t2 -150.5h174q0 48 0.5 142.5t0.5 135.5q0 13 9 21.5t21 8.5q13 0 21.5 -8.5t8.5 -21.5l-1 -285q89 -6 140 -51.5t51 -156.5q0 -97 -62 -148t-160 -51q-12 0 -21 9
t-9 21q0 16 -0.5 59t-0.5 69q0 62 2 200h-174v-40q0 -188 -3 -288q0 -12 -8.5 -21t-21.5 -9zM355 148q0 -20 0.5 -55t0.5 -50h5q54 0 90.5 36.5t36.5 108.5q0 86 -32.5 118t-98.5 34q-2 -134 -2 -192z" />
    <glyph glyph-name="uni045B" unicode="&#x45b;" horiz-adv-x="484" 
d="M409 -8q-13 0 -21.5 8.5t-8.5 21.5q0 152 -8.5 229.5t-30 111.5t-64.5 34q-41 0 -81 -28q6 -347 6 -349q0 -13 -8.5 -22t-21.5 -9q-12 0 -21 9t-9 21q0 24 -3.5 226.5t-3.5 290.5q0 43 2 105h-14q-50 0 -90 4q-11 1 -18.5 9t-7.5 19q0 12 9.5 20.5t21.5 7.5q39 -4 86 -4
q24 0 52.5 1t63 2.5t53.5 2.5q12 1 21 -7.5t9 -20.5q0 -11 -8 -19t-19 -9l-99 -4q-2 -64 -2 -107l1 -113q29 30 81 30q42 0 70 -13.5t47 -41t28.5 -81t13.5 -121.5t4 -174q0 -13 -8.5 -21.5t-21.5 -8.5z" />
    <glyph glyph-name="uni045C" unicode="&#x45c;" horiz-adv-x="371" 
d="M326 -9q-25 0 -29 25q-27 178 -53 245t-92 94q-16 7 -26 15q1 -46 1 -121v-31l3 -198q0 -12 -9 -20.5t-21 -8.5q-13 0 -21.5 9t-8.5 22l-3 198v30q0 230 -7 429q-1 13 8 22t22 9q12 0 20.5 -8.5t9.5 -20.5q4 -119 6 -274q4 6 9 11q95 110 151 273q7 20 29 20
q13 0 21.5 -9t8.5 -21q0 -3 -2 -9q-58 -165 -149 -274q74 -38 105 -117t57 -255q2 -13 -7 -24t-23 -11zM121 766q0 15 9 21q50 46 97 78q7 5 19 5q22 0 22 -23q0 -15 -12 -24q-35 -23 -91 -74q-9 -7 -19 -7q-25 0 -25 24z" />
    <glyph glyph-name="uni045D" unicode="&#x45d;" horiz-adv-x="440" 
d="M347 -10q-13 0 -21.5 8.5t-8.5 21.5q0 86 1.5 235.5t1.5 205.5v89l-189 -522q-13 -37 -39 -37q-13 0 -21.5 13t-8.5 37q-2 105 -2 337v302q0 13 9 21.5t21 8.5q13 0 21.5 -8.5t8.5 -21.5q0 -85 -0.5 -261.5t-0.5 -261.5l187 517q13 35 36 35q14 0 24.5 -15.5t11.5 -41.5
q2 -62 2 -177q0 -63 -1.5 -216.5t-1.5 -238.5q0 -13 -9 -21.5t-21 -8.5zM143 827q0 23 22 23q12 0 19 -5q47 -32 97 -78q9 -6 9 -21q0 -24 -25 -24q-10 0 -19 7q-56 51 -91 74q-12 9 -12 24z" />
    <glyph glyph-name="uni045E" unicode="&#x45e;" 
d="M98 -11q-27 0 -27 27q0 24 23 28q35 6 69 152l-2 7l-142 468q-4 14 5.5 26t23.5 12q22 0 29 -22l112 -371q1 7 64 368q2 11 10.5 18t19.5 7q13 0 18.5 -10.5t3.5 -24.5q-61 -358 -72 -409q-48 -232 -107 -268q-13 -8 -28 -8zM87 785q0 12 8.5 20.5t20.5 8.5q14 0 23 -11
q17 -22 37 -22q22 0 49 25q8 8 20 8t20.5 -8.5t8.5 -20.5q0 -14 -10 -22q-42 -38 -88 -38q-47 0 -82 41q-7 9 -7 19z" />
    <glyph glyph-name="uni045F" unicode="&#x45f;" horiz-adv-x="424" 
d="M121 3q-61 -2 -61 60l4 622q0 12 9 21t21 9q13 0 21.5 -9t8.5 -21l-3 -626l175 3q0 23 4 187.5t4 261.5t-3 170q0 12 9 21.5t21 9.5q13 0 21.5 -8.5t8.5 -20.5q3 -75 3 -172q0 -104 -4 -274t-4 -199v-2v-1q0 -12 -8.5 -20t-19.5 -8l-85 -2q-4 -33 -2 -82q0 -12 -9 -21
t-21 -9q-13 0 -21.5 9t-8.5 21q-2 46 2 81z" />
    <glyph glyph-name="uni0490" unicode="&#x490;" horiz-adv-x="286" 
d="M99 -12q-12 0 -20.5 8t-9.5 21q-11 373 -8 626q2 58 61 58l98 1l-1 37q0 13 8.5 22.5t21.5 9.5q12 0 21 -8t9 -20v-26t0.5 -19.5t0.5 -13v-8.5v-2q0 -11 -8.5 -19.5t-19.5 -8.5l-132 -1v-32q0 -310 9 -595q0 -12 -8.5 -21t-21.5 -9z" />
    <glyph glyph-name="uni0491" unicode="&#x491;" horiz-adv-x="286" 
d="M99 -12q-12 0 -20.5 8t-9.5 21q-11 373 -8 626q2 58 61 58l98 1l-1 37q0 13 8.5 22.5t21.5 9.5q12 0 21 -8t9 -20v-26t0.5 -19.5t0.5 -13v-8.5v-2q0 -11 -8.5 -19.5t-19.5 -8.5l-132 -1v-32q0 -310 9 -595q0 -12 -8.5 -21t-21.5 -9z" />
    <glyph glyph-name="uni0E3F" unicode="&#xe3f;" horiz-adv-x="329" 
d="M116 74q-33 0 -44.5 8.5t-11.5 28.5t2 136t2 203q0 24 -1 64.5t-1 62.5q0 28 15 44t43 16l21 -1v44q0 13 9 21.5t21 8.5q13 0 21.5 -8.5t8.5 -21.5q0 -40 -1 -56q47 -16 73.5 -48.5t26.5 -70.5q0 -37 -19 -64.5t-73 -48.5q106 -47 106 -148q0 -51 -29.5 -93t-82.5 -62
q0 -6 1 -34t0 -36q0 -13 -8.5 -21.5t-21.5 -8.5q-12 0 -21 8.5t-9 21.5q1 14 -1 56q-8 -1 -26 -1zM120 137q65 -3 100 26.5t35 70.5q0 107 -131 131q-1 -41 -2.5 -119.5t-1.5 -108.5zM122 578q2 -94 2 -132v-34q70 19 93 36t23 52q0 66 -118 78z" />
    <glyph glyph-name="uni1E20" unicode="&#x1e20;" horiz-adv-x="382" 
d="M191 -20q-40 0 -73 31.5t-49 94.5q-24 97 -24 238q0 71 6 155q5 58 16.5 100.5t24 65t30.5 35.5t32.5 16.5t32.5 3.5q88 0 131 -105q2 -4 2 -11q0 -13 -8.5 -21.5t-20.5 -8.5q-21 0 -28 19q-16 41 -33.5 56t-42.5 15q-21 0 -33 -8t-24 -46.5t-19 -114.5q-7 -81 -7 -157
q0 -128 23 -218q11 -43 30 -65t41 -22q31 0 56 38.5t30 101.5q2 42 2 58q0 39 -3 73q-53 -8 -99 -8q-12 0 -20.5 8t-8.5 20q0 11 8.5 19.5t19.5 8.5q63 2 93 8q16 2 22 2q41 0 44 -44q4 -35 4 -84q0 -43 -2 -66q-7 -84 -52.5 -136t-100.5 -52zM103 768q0 11 8.5 19t19.5 9
q58 2 113 2q12 0 20 -8t8 -20q0 -11 -8 -19.5t-19 -8.5q-14 0 -56.5 -1t-58.5 -1q-10 0 -18.5 8t-8.5 20z" />
    <glyph glyph-name="uni1E21" unicode="&#x1e21;" horiz-adv-x="382" 
d="M191 -20q-40 0 -73 31.5t-49 94.5q-24 97 -24 238q0 71 6 155q5 58 16.5 100.5t24 65t30.5 35.5t32.5 16.5t32.5 3.5q88 0 131 -105q2 -4 2 -11q0 -13 -8.5 -21.5t-20.5 -8.5q-21 0 -28 19q-16 41 -33.5 56t-42.5 15q-21 0 -33 -8t-24 -46.5t-19 -114.5q-7 -81 -7 -157
q0 -128 23 -218q11 -43 30 -65t41 -22q31 0 56 38.5t30 101.5q2 42 2 58q0 39 -3 73q-53 -8 -99 -8q-12 0 -20.5 8t-8.5 20q0 11 8.5 19.5t19.5 8.5q63 2 93 8q16 2 22 2q41 0 44 -44q4 -35 4 -84q0 -43 -2 -66q-7 -84 -52.5 -136t-100.5 -52zM103 768q0 11 8.5 19t19.5 9
q58 2 113 2q12 0 20 -8t8 -20q0 -11 -8 -19.5t-19 -8.5q-14 0 -56.5 -1t-58.5 -1q-10 0 -18.5 8t-8.5 20z" />
    </font>
</defs>
</svg>
